<?xml version="1.0" standalone="no"?>
<!DOCTYPE svg PUBLIC "-//W3C//DTD SVG 20010904//EN"
 "http://www.w3.org/TR/2001/REC-SVG-20010904/DTD/svg10.dtd">
<svg version="1.0" xmlns="http://www.w3.org/2000/svg"
 width="280" height="280" viewBox="0 0 640.000000 640.000000"
 preserveAspectRatio="xMidYMid meet">
<metadata>
Created by potrace 1.16, written by Peter Selinger 2001-2019
</metadata>
<g transform="translate(0.000000,640.000000) scale(0.100000,-0.100000)"
fill="#000000" stroke="none">
<path d="M0 5160 l0 -1240 40 0 40 0 0 160 0 160 40 0 c46 0 42 -13 40 143
l-1 97 40 0 41 0 0 80 0 80 40 0 40 0 0 80 0 80 40 0 40 0 0 40 0 40 40 0 40
0 0 80 0 80 40 0 40 0 0 40 0 40 40 0 40 0 0 80 0 80 40 0 40 0 0 40 0 40 40
0 40 0 0 40 0 40 40 0 40 0 0 40 0 40 40 0 40 0 0 40 0 40 40 0 40 0 0 40 0
40 40 0 40 0 0 40 0 40 80 0 80 0 0 40 0 40 40 0 40 0 0 40 0 40 80 0 80 0 0
40 0 40 40 0 40 0 0 40 0 40 80 0 80 0 0 40 0 40 80 0 80 0 0 40 0 40 120 0
120 0 0 40 0 40 160 0 160 0 0 40 0 40 -1240 0 -1240 0 0 -1240z"/>
<path d="M3920 6360 l0 -40 160 0 160 0 0 -40 0 -40 120 0 120 0 0 -40 0 -40
80 0 80 0 0 -40 0 -40 80 0 80 0 0 -40 0 -40 40 0 40 0 0 -40 0 -40 80 0 80 0
0 -40 0 -40 40 0 40 0 0 -40 0 -40 80 0 80 0 0 -40 0 -40 40 0 40 0 0 -40 0
-40 40 0 40 0 0 -40 0 -40 40 0 40 0 0 -40 0 -40 40 0 40 0 0 -40 0 -40 40 0
40 0 0 -40 0 -40 40 0 40 0 0 -80 0 -80 40 0 40 0 0 -40 0 -40 40 0 40 0 0
-80 0 -80 40 0 40 0 0 -40 0 -40 40 0 40 0 0 -80 0 -80 40 0 40 0 0 -80 0 -80
40 0 40 0 0 -120 0 -120 40 0 40 0 0 -160 0 -160 40 0 40 0 0 1240 0 1240
-1240 0 -1240 0 0 -40z"/>
<path d="M3060 6350 c-22 -7 -21 -8 13 -9 20 -1 37 4 37 9 0 11 -14 11 -50 0z"/>
<path d="M3120 6350 c0 -5 7 -10 15 -10 8 0 15 5 15 10 0 6 -7 10 -15 10 -8 0
-15 -4 -15 -10z"/>
<path d="M3265 6350 c-14 -5 -4 -9 35 -13 87 -9 200 -8 200 3 0 6 -28 10 -62
11 -35 0 -83 2 -108 3 -25 2 -54 0 -65 -4z"/>
<path d="M2780 6336 l-35 -13 28 -7 c23 -5 143 17 156 30 10 10 -117 1 -149
-10z"/>
<path d="M2690 6320 c19 -13 30 -13 30 0 0 6 -10 10 -22 10 -19 0 -20 -2 -8
-10z"/>
<path d="M3555 6326 c53 -21 130 -37 153 -31 43 11 6 24 -85 30 -43 3 -73 3
-68 1z"/>
<path d="M2985 6300 c-3 -5 -1 -10 4 -10 6 0 11 5 11 10 0 6 -2 10 -4 10 -3 0
-8 -4 -11 -10z"/>
<path d="M3140 6300 c0 -5 7 -10 16 -10 8 0 12 5 9 10 -3 6 -10 10 -16 10 -5
0 -9 -4 -9 -10z"/>
<path d="M3775 6292 c6 -6 37 -15 70 -21 33 -7 73 -15 89 -18 20 -4 27 -2 22
6 -4 6 -16 11 -27 11 -11 0 -28 4 -37 9 -25 13 -129 24 -117 13z"/>
<path d="M2485 6280 c-8 -13 25 -13 45 0 12 8 9 10 -12 10 -15 0 -30 -4 -33
-10z"/>
<path d="M2395 6260 c-3 -6 5 -10 19 -10 14 0 28 5 31 10 3 6 -5 10 -19 10
-14 0 -28 -4 -31 -10z"/>
<path d="M2295 6230 c-3 -5 3 -10 14 -10 12 0 21 5 21 10 0 6 -6 10 -14 10 -8
0 -18 -4 -21 -10z"/>
<path d="M3105 6216 c-14 -10 -25 -11 -42 -3 -19 8 -27 6 -46 -10 -24 -22 -47
-20 -47 3 0 12 -6 12 -38 -1 -20 -9 -60 -14 -87 -13 -47 3 -50 2 -47 -19 4
-27 -8 -28 -72 -11 -36 10 -50 9 -70 -2 -21 -10 -28 -11 -41 0 -12 10 -15 10
-15 -4 0 -20 -38 -59 -50 -51 -6 4 -10 15 -10 26 0 27 -34 24 -54 -5 -10 -17
-22 -23 -35 -19 -11 3 -34 -2 -51 -10 -19 -10 -44 -14 -68 -10 -34 5 -35 4
-18 -9 14 -11 16 -17 7 -22 -6 -4 -18 -2 -26 4 -18 15 -51 5 -97 -31 -26 -20
-53 -31 -92 -35 -50 -6 -56 -9 -56 -30 0 -19 -5 -24 -24 -24 -13 0 -26 5 -28
11 -5 15 -80 -1 -85 -18 -2 -6 2 -11 9 -10 7 0 26 -1 43 -1 l29 -2 -22 -16
c-18 -12 -26 -13 -37 -4 -12 10 -15 10 -15 -2 0 -17 -51 -48 -78 -48 -12 0
-24 -5 -27 -10 -9 -15 -25 -2 -18 16 4 11 14 13 34 9 30 -7 36 4 23 39 -5 14
-9 13 -33 -5 -14 -11 -41 -27 -58 -34 -18 -8 -33 -19 -33 -26 0 -6 -6 -9 -14
-6 -8 3 -22 0 -32 -8 -16 -11 -16 -15 -4 -30 8 -9 22 -14 33 -11 18 4 18 3 6
-9 -8 -8 -25 -16 -39 -17 -19 -2 -26 2 -28 20 -4 24 -27 25 -27 1 0 -8 -8 -13
-18 -13 -9 1 -15 -2 -12 -6 3 -4 -5 -10 -16 -13 -17 -5 -20 -12 -17 -31 6 -28
-23 -63 -42 -51 -6 4 -18 1 -27 -6 -17 -14 -19 -15 -69 -17 -43 -3 -89 -39
-73 -58 9 -11 7 -14 -15 -14 -14 0 -26 -5 -26 -11 0 -5 -4 -7 -10 -4 -5 3 -23
-4 -39 -16 -20 -15 -27 -27 -24 -42 4 -18 3 -19 -6 -7 -12 17 -25 7 -36 -28
-6 -21 -5 -23 13 -13 15 8 23 7 31 -3 14 -16 4 -26 -25 -26 -12 0 -35 -7 -50
-15 -20 -10 -23 -15 -11 -15 9 0 17 -6 17 -13 0 -16 -63 -85 -66 -72 -1 6 -5
27 -9 49 l-6 39 -52 -55 c-29 -30 -63 -70 -77 -88 -14 -18 -37 -46 -53 -62
-15 -16 -27 -31 -27 -34 0 -3 -6 -11 -12 -18 -30 -30 -114 -130 -122 -145 -5
-9 -28 -39 -52 -67 -23 -28 -53 -72 -65 -97 -13 -26 -26 -47 -30 -47 -9 0 -99
-168 -99 -185 0 -7 -11 -29 -25 -49 -14 -20 -25 -45 -25 -56 0 -10 -4 -21 -9
-24 -12 -8 -51 -92 -51 -111 0 -13 4 -14 23 -4 12 6 32 23 44 38 l22 26 -9
-34 c-5 -18 -16 -44 -25 -57 -8 -13 -15 -33 -15 -45 0 -43 -50 -172 -72 -185
-16 -10 -2 52 22 99 11 21 20 46 20 56 0 26 -10 51 -21 51 -8 0 -33 -72 -34
-100 0 -8 -6 -25 -13 -37 -6 -12 -12 -39 -12 -61 0 -22 -6 -45 -13 -51 -16
-12 -41 -90 -33 -99 3 -3 6 2 6 11 0 9 9 21 19 27 11 5 23 19 26 30 3 11 13
20 22 20 12 0 14 -8 9 -37 -30 -176 -43 -272 -58 -453 -20 -236 -16 -337 28
-720 1 -14 3 -31 3 -39 1 -11 6 -10 21 4 11 10 23 16 26 12 3 -3 16 -45 29
-94 l24 -88 -20 -21 c-19 -21 -20 -23 -4 -72 11 -33 23 -52 37 -55 32 -9 48 3
48 33 0 16 4 32 10 35 6 4 10 -14 10 -47 0 -50 12 -78 32 -78 11 0 10 48 -1
88 -6 18 -21 46 -35 63 -29 34 -37 99 -12 99 22 0 27 60 11 114 -8 27 -15 87
-15 133 0 81 -6 97 -28 70 -17 -20 -25 -116 -14 -162 9 -43 6 -69 -9 -59 -5 3
-9 27 -9 53 0 27 -7 85 -15 130 -12 60 -13 99 -7 153 5 40 5 109 2 153 -4 44
-6 83 -4 86 6 11 185 109 199 109 9 0 15 10 15 25 0 25 -14 33 -25 15 -17 -28
-132 -104 -166 -110 -60 -11 -47 30 21 65 19 10 58 34 85 54 28 20 60 41 70
47 21 12 33 54 16 54 -6 0 -19 -7 -29 -15 -9 -9 -47 -38 -85 -66 -56 -42 -70
-48 -87 -39 -17 9 -19 17 -14 53 3 23 7 47 9 54 2 6 -3 19 -10 30 -8 10 -15
31 -15 47 0 25 2 27 17 15 15 -13 15 -12 0 17 -9 17 -14 34 -12 36 3 3 6 35 7
72 1 39 7 71 14 77 8 6 10 23 7 43 -3 20 -1 36 6 40 6 4 11 16 11 27 0 10 4
19 8 19 5 0 15 26 22 58 7 31 16 62 19 67 3 6 6 16 7 23 7 40 55 165 110 280
35 73 64 139 64 146 0 7 9 21 20 31 11 10 22 27 26 38 4 12 30 55 59 97 29 41
58 87 66 102 13 25 45 66 179 227 54 66 195 201 209 201 4 0 7 -19 8 -41 1
-23 4 -43 7 -46 10 -10 48 10 55 29 7 20 -7 79 -22 94 -15 15 -6 43 16 49 12
4 38 22 57 40 19 18 91 74 160 124 69 50 136 99 150 109 25 19 313 164 380
191 19 8 78 34 130 57 137 60 464 147 601 159 19 2 63 8 99 14 36 6 155 14
266 18 275 8 459 -8 699 -62 33 -8 74 -17 90 -20 179 -40 594 -207 661 -266
11 -11 23 -19 26 -19 3 0 32 -18 65 -39 32 -22 70 -42 83 -44 85 -16 111 -28
135 -68 25 -39 25 -40 15 -166 -8 -104 -14 -133 -33 -160 -35 -52 -91 -73
-199 -73 -51 -1 -136 -2 -188 -3 l-95 -2 -6 -50 c-11 -92 -11 -91 -91 -98 -51
-4 -75 -3 -80 6 -5 7 -7 121 -6 254 l3 241 25 28 25 27 -36 -6 c-21 -3 -41 -1
-48 6 -20 20 -24 -1 -23 -115 3 -375 13 -478 45 -465 7 3 24 -1 38 -9 31 -17
74 -17 122 0 39 13 65 45 84 101 l10 30 104 1 c190 3 316 40 349 103 19 39 52
153 49 174 -3 19 13 77 20 77 32 0 141 -81 249 -184 102 -97 295 -333 330
-402 12 -23 28 -44 36 -47 9 -4 29 -33 45 -66 16 -33 38 -72 49 -88 25 -36
105 -205 144 -303 16 -41 37 -95 48 -120 30 -74 57 -169 79 -280 12 -58 29
-145 40 -195 20 -96 32 -291 33 -520 1 -159 -12 -261 -63 -515 -33 -165 -34
-172 -15 -182 21 -12 21 -71 1 -88 -13 -11 -19 -9 -36 8 -27 30 -43 28 -35 -4
5 -17 0 -36 -14 -60 -18 -28 -28 -34 -56 -34 -19 0 -34 -4 -34 -10 0 -5 25
-10 56 -10 52 0 56 2 65 30 6 17 15 30 19 30 26 0 12 -91 -19 -124 -11 -12
-21 -34 -21 -49 0 -45 -199 -422 -302 -575 -52 -76 -106 -152 -120 -168 -15
-16 -59 -67 -98 -114 -40 -47 -104 -115 -144 -153 -45 -43 -71 -75 -71 -89 0
-12 -7 -23 -15 -26 -13 -5 -13 -3 -1 11 22 27 -3 19 -38 -12 -23 -20 -28 -31
-19 -35 7 -3 4 -4 -7 -1 -12 3 -31 -4 -47 -18 -14 -12 -36 -30 -48 -40 -38
-32 -178 -127 -187 -127 -5 0 -16 -9 -26 -20 -9 -11 -13 -20 -7 -20 5 0 12 5
15 10 7 12 35 13 35 2 0 -5 -16 -16 -35 -25 -29 -14 -35 -22 -35 -47 0 -23 4
-30 19 -30 11 0 23 5 26 10 3 6 42 33 85 60 43 28 81 57 84 65 3 8 22 23 44
34 21 11 62 42 90 70 29 28 56 51 61 51 10 0 131 111 231 212 68 68 189 210
215 253 10 17 31 44 46 60 15 17 46 67 70 113 23 45 46 82 51 82 4 0 8 5 8 11
0 6 18 38 40 70 22 32 40 62 40 65 0 4 30 68 66 143 87 179 77 157 135 316 53
146 67 193 93 310 43 197 73 554 61 723 -4 59 -10 159 -14 222 -14 224 -114
612 -211 817 -22 46 -40 85 -40 88 0 12 -64 141 -114 229 -31 54 -56 104 -56
111 0 17 -26 38 -41 33 -7 -2 -29 29 -50 72 -34 67 -50 89 -98 135 -6 6 -48
55 -93 110 -46 55 -101 116 -123 136 -104 95 -156 139 -163 139 -4 0 -27 18
-51 40 -25 22 -47 40 -51 40 -4 0 -26 18 -51 40 -47 42 -63 46 -65 14 0 -10
-1 -28 -3 -39 l-2 -20 -17 20 c-19 21 -42 37 -79 57 -13 6 -23 16 -23 21 0 6
-18 26 -41 45 -22 19 -52 52 -65 74 -17 26 -34 41 -55 45 -16 3 -40 19 -53 36
-25 32 -48 30 -39 -3 3 -12 0 -20 -6 -20 -13 0 -69 62 -61 67 12 8 -96 60
-110 53 -8 -4 -36 -11 -63 -14 -47 -7 -47 -7 -53 23 -8 40 -29 58 -49 41 -10
-9 -15 -9 -15 -1 0 6 -7 11 -15 11 -9 0 -26 11 -38 26 -21 24 -76 43 -125 44
-14 0 -26 -8 -31 -22 -7 -20 -8 -20 -22 11 -11 24 -19 31 -34 27 -11 -3 -28 3
-41 15 -17 16 -40 22 -95 26 -41 2 -78 8 -84 13 -5 4 -31 11 -58 15 -40 6 -46
5 -41 -8 6 -17 -7 -29 -21 -19 -6 4 -10 13 -10 21 0 17 -112 43 -133 32 -7 -4
-41 -4 -75 0 -76 9 -136 6 -165 -10 -16 -9 -31 -8 -64 4 -53 18 -60 18 -83 1z
m-1322 -390 c3 -12 -30 -32 -39 -24 -11 12 5 40 21 36 9 -2 17 -7 18 -12z
m3237 -241 c0 -7 8 -18 17 -24 10 -5 15 -13 11 -16 -4 -4 -21 4 -37 18 -20 16
-26 27 -18 30 21 9 27 7 27 -8z m85 -85 c3 -5 2 -10 -4 -10 -5 0 -13 5 -16 10
-3 6 -2 10 4 10 5 0 13 -4 16 -10z m73 -45 c20 -14 42 -25 49 -25 7 0 19 -13
28 -29 8 -16 29 -39 46 -52 17 -12 59 -50 94 -85 35 -35 68 -64 74 -64 6 0 11
-4 11 -10 0 -5 16 -30 35 -56 19 -25 35 -50 35 -55 0 -6 13 -21 29 -34 15 -14
45 -55 64 -93 20 -38 43 -75 52 -82 15 -12 45 -66 45 -81 0 -5 -7 -6 -15 -3
-19 7 -175 239 -175 259 0 8 -6 15 -13 15 -14 0 -27 14 -72 75 -24 34 -80 96
-120 134 -47 45 -176 164 -200 185 -38 33 -15 34 33 1z m-4232 -289 c12 -13
12 -15 -5 -21 -11 -3 -24 -19 -30 -35 -7 -20 -17 -30 -30 -30 -28 0 -26 10 9
48 17 18 30 37 30 43 0 13 9 11 26 -5z m-133 -181 c-7 -21 -13 -19 -13 6 0 11
4 18 10 14 5 -3 7 -12 3 -20z m5001 -288 c14 -21 26 -44 26 -51 0 -7 3 -16 7
-20 10 -10 33 -78 33 -99 0 -30 -16 -11 -29 35 -17 54 -32 89 -47 108 -7 8
-15 28 -18 44 -6 33 -5 33 28 -17z m-5254 -97 c0 -5 -2 -10 -4 -10 -3 0 -8 5
-11 10 -3 6 -1 10 4 10 6 0 11 -4 11 -10z m-30 -64 c0 -2 -7 -17 -15 -32 l-15
-29 0 26 c0 14 3 29 7 32 7 8 23 9 23 3z m-160 -826 c0 -30 -13 -40 -25 -20
-8 13 4 50 16 50 5 0 9 -13 9 -30z m-22 -595 c1 -60 -7 -80 -23 -54 -9 14 4
119 14 119 5 0 9 -29 9 -65z m11 -139 c2 -47 -5 -56 -27 -34 -15 15 -15 43 0
67 17 28 24 19 27 -33z m91 -416 c0 -16 -4 -30 -10 -30 -11 0 -14 43 -3 53 11
12 13 8 13 -23z m4514 -1585 c-10 -7 -23 -11 -28 -8 -5 3 2 14 15 24 14 10 26
14 28 8 1 -6 -5 -16 -15 -24z m-76 -58 c-7 -8 -21 -12 -32 -9 -20 5 -20 5 0
13 33 13 47 11 32 -4z"/>
<path d="M2198 6193 c6 -2 18 -2 25 0 6 3 1 5 -13 5 -14 0 -19 -2 -12 -5z"/>
<path d="M4190 6190 c20 -13 33 -13 25 0 -3 6 -14 10 -23 10 -15 0 -15 -2 -2
-10z"/>
<path d="M2050 6150 c0 -5 4 -10 9 -10 6 0 13 5 16 10 3 6 -1 10 -9 10 -9 0
-16 -4 -16 -10z"/>
<path d="M4340 6139 c0 -11 60 -42 67 -35 3 3 1 12 -6 20 -13 16 -61 28 -61
15z"/>
<path d="M1985 6127 c-76 -30 -91 -59 -16 -32 44 15 84 46 59 44 -7 0 -26 -6
-43 -12z"/>
<path d="M4505 6070 c3 -5 12 -10 18 -10 7 0 23 -9 37 -20 14 -11 31 -20 38
-20 22 0 -10 26 -53 44 -44 19 -48 19 -40 6z"/>
<path d="M1728 6009 c-19 -10 -24 -29 -9 -29 5 0 19 9 32 20 26 21 9 28 -23 9z"/>
<path d="M4342 6004 c3 -17 21 -21 26 -6 1 5 -4 12 -13 16 -11 4 -15 1 -13
-10z"/>
<path d="M4630 6010 c0 -12 28 -25 36 -17 3 3 -4 10 -15 17 -15 7 -21 7 -21 0z"/>
<path d="M4842 5900 c6 -19 45 -43 52 -32 2 4 -9 16 -26 26 -21 13 -29 14 -26
6z"/>
<path d="M4860 5730 c0 -5 4 -10 9 -10 5 0 11 -9 14 -19 5 -20 47 -49 47 -33
0 9 -57 72 -65 72 -3 0 -5 -4 -5 -10z"/>
<path d="M5100 5725 c0 -2 9 -9 20 -15 16 -9 18 -8 14 5 -5 13 -34 22 -34 10z"/>
<path d="M1505 5710 c-3 -5 -2 -10 4 -10 5 0 13 5 16 10 3 6 2 10 -4 10 -5 0
-13 -4 -16 -10z"/>
<path d="M1415 5660 c-3 -5 1 -10 9 -10 9 0 16 5 16 10 0 6 -4 10 -9 10 -6 0
-13 -4 -16 -10z"/>
<path d="M3810 5575 c-8 -9 -21 -13 -36 -9 -13 3 -41 3 -62 -1 l-37 -8 33 -9
c75 -20 110 -148 45 -161 -15 -3 -130 -6 -255 -6 -126 -1 -235 -4 -243 -7 -17
-7 -45 -93 -45 -140 0 -26 5 -33 26 -38 36 -9 59 14 62 61 2 21 10 43 18 50
18 13 76 22 199 29 275 16 305 26 305 97 1 23 3 68 6 100 6 60 4 66 -16 42z"/>
<path d="M3015 5548 c-18 -75 -28 -133 -35 -207 -5 -45 -14 -89 -19 -95 -12
-15 -19 -71 -28 -223 l-6 -112 34 -21 c49 -31 184 -23 258 14 60 31 175 44
236 27 91 -24 124 -104 87 -213 -20 -61 -17 -71 13 -38 10 11 24 20 31 20 17
0 25 27 25 93 2 117 -90 198 -226 199 -75 1 -129 -14 -186 -51 -41 -26 -51
-28 -134 -27 l-90 1 -3 31 c-3 28 46 340 67 429 6 22 14 60 20 85 5 25 12 52
16 62 4 11 0 18 -14 23 -12 3 -21 11 -21 16 0 19 -20 8 -25 -13z"/>
<path d="M2100 5524 c-22 -12 -23 -14 -5 -13 11 0 31 6 45 14 22 12 22 14 5
14 -11 -1 -31 -7 -45 -15z"/>
<path d="M2370 5528 c32 -8 53 -18 143 -65 15 -8 52 -40 82 -70 64 -65 71 -61
18 9 -60 78 -170 139 -248 137 l-30 -1 35 -10z"/>
<path d="M5400 5458 c0 -16 177 -184 185 -176 6 5 -78 95 -142 152 -27 24 -43
33 -43 24z"/>
<path d="M1955 5440 c-3 -5 -2 -10 4 -10 5 0 13 5 16 10 3 6 2 10 -4 10 -5 0
-13 -4 -16 -10z"/>
<path d="M4455 5440 l-70 -5 -6 -37 c-3 -20 -3 -42 1 -48 8 -13 132 -5 161 10
12 7 33 9 47 5 15 -4 49 -9 76 -12 27 -2 54 -5 60 -6 21 -4 17 41 -6 66 -20
22 -33 25 -108 29 -47 2 -116 1 -155 -2z"/>
<path d="M1832 5380 c-6 -11 -12 -28 -12 -38 0 -9 -8 -33 -18 -52 -24 -46 -19
-160 8 -185 27 -25 143 -31 211 -11 56 16 57 17 84 81 37 87 80 125 143 125
66 0 109 -28 118 -77 5 -21 8 -40 7 -43 -14 -83 -14 -100 2 -100 9 0 27 11 40
25 21 20 25 34 25 87 0 76 -30 127 -94 158 -51 24 -87 25 -147 5 -68 -23 -104
-62 -123 -131 -9 -32 -19 -65 -21 -72 -8 -22 -56 -33 -134 -30 l-76 3 0 110
c0 61 3 122 7 138 8 32 -2 35 -20 7z"/>
<path d="M2694 5365 c7 -21 14 -31 20 -25 6 6 5 19 -4 35 -19 36 -29 31 -16
-10z"/>
<path d="M2655 5320 c3 -5 8 -10 11 -10 2 0 4 5 4 10 0 6 -5 10 -11 10 -5 0
-7 -4 -4 -10z"/>
<path d="M2721 5258 c-1 -10 -5 -18 -11 -18 -5 0 -10 -25 -10 -56 0 -155 -90
-279 -310 -428 -158 -107 -203 -147 -179 -161 20 -13 78 5 84 26 4 11 20 29
37 39 53 32 201 153 259 211 101 103 164 266 141 364 -6 22 -10 32 -11 23z"/>
<path d="M1190 5130 c0 -28 25 -60 47 -60 31 0 31 33 -2 54 -27 18 -45 21 -45
6z"/>
<path d="M1305 5110 c10 -11 22 -17 28 -13 6 4 3 12 -8 20 -28 20 -41 16 -20
-7z"/>
<path d="M3658 5103 c7 -3 16 -2 19 1 4 3 -2 6 -13 5 -11 0 -14 -3 -6 -6z"/>
<path d="M3876 4909 c-4 -24 -11 -88 -16 -141 -9 -94 -35 -171 -72 -209 -7 -8
-25 -31 -40 -51 -60 -80 -219 -140 -373 -142 -101 -1 -207 18 -245 44 -14 10
-34 20 -46 24 -23 7 -108 94 -136 138 -10 15 -20 44 -24 66 -4 28 -13 43 -29
50 -32 15 -35 8 -19 -45 34 -112 114 -206 227 -267 125 -67 249 -83 387 -50
36 9 72 17 81 19 9 2 44 18 78 35 79 41 164 134 203 219 48 106 69 285 40 337
-8 14 -11 9 -16 -27z"/>
<path d="M1180 4930 c0 -5 15 -10 34 -10 19 0 38 5 41 10 4 6 -10 10 -34 10
-23 0 -41 -4 -41 -10z"/>
<path d="M1041 4896 c-12 -22 -11 -32 8 -84 24 -63 31 -139 18 -185 l-8 -29
30 21 c16 12 39 21 50 21 14 0 21 6 21 19 0 11 5 23 10 26 6 3 10 13 10 21 0
11 -6 13 -20 9 -26 -8 -36 16 -20 46 10 19 10 24 -4 34 -21 16 -21 51 0 59 10
4 14 12 10 22 -4 9 -1 23 5 30 17 21 -5 17 -34 -6 -32 -25 -42 -25 -53 1 -9
21 -10 20 -23 -5z"/>
<path d="M1464 4800 c-9 -32 -25 -67 -35 -76 -18 -16 -19 -16 -19 14 0 21 -9
41 -27 60 -16 15 -25 23 -20 18 4 -6 7 -18 7 -28 0 -14 -8 -18 -35 -18 -24 0
-35 -5 -35 -14 0 -23 41 -31 55 -12 15 20 25 21 25 2 0 -27 57 -79 79 -73 15
4 22 -2 30 -22 5 -14 10 -19 10 -11 1 9 -6 26 -15 38 -14 20 -14 27 2 75 9 28
20 56 25 62 16 17 10 45 -10 45 -16 0 -24 -13 -37 -60z"/>
<path d="M4850 4824 c0 -3 16 -20 35 -38 70 -67 36 -96 -111 -96 l-101 0 -7
-31 c-3 -17 -6 -111 -6 -209 0 -145 -3 -180 -15 -190 -18 -15 -141 -5 -152 13
-4 7 -10 97 -13 200 -5 173 -7 190 -25 203 -11 8 -30 12 -41 10 -15 -4 -24 0
-28 10 -6 15 -8 15 -24 1 -11 -10 -39 -17 -75 -18 -67 -3 -77 5 -77 63 0 45
-8 68 -25 68 -18 0 -27 -57 -15 -101 13 -49 56 -71 140 -72 34 0 63 -4 66 -9
3 -4 14 -8 25 -8 13 0 19 -7 20 -25 2 -33 3 -36 15 -60 6 -11 12 -78 13 -150
2 -145 7 -158 69 -170 62 -11 106 -10 137 6 l30 14 5 200 5 200 51 -3 c31 -2
67 3 89 12 21 9 47 16 60 16 36 0 53 29 57 99 l3 64 -52 3 c-29 1 -53 0 -53
-2z"/>
<path d="M391 4714 c0 -11 3 -14 6 -6 3 7 2 16 -1 19 -3 4 -6 -2 -5 -13z"/>
<path d="M1223 4703 c-21 -7 -15 -33 7 -33 11 0 20 6 20 14 0 18 -11 25 -27
19z"/>
<path d="M1305 4620 c-9 -15 6 -60 20 -60 7 0 15 11 17 24 7 34 -21 61 -37 36z"/>
<path d="M1185 4607 c-11 -7 -22 -15 -25 -18 -3 -3 -12 -8 -20 -12 -8 -4 -23
-11 -32 -17 -10 -5 -26 -14 -35 -19 -40 -19 -16 -101 29 -101 12 0 32 -10 45
-22 13 -12 25 -19 28 -16 7 7 -30 48 -43 48 -19 0 -50 49 -45 70 6 24 21 26
29 5 8 -21 24 -19 24 3 0 31 39 64 67 57 29 -7 44 1 36 20 -6 18 -30 18 -58 2z"/>
<path d="M1390 4585 c0 -9 9 -15 25 -15 16 0 25 -6 25 -15 0 -8 7 -15 15 -15
21 0 19 8 -12 35 -32 28 -53 32 -53 10z"/>
<path d="M1860 4590 c0 -5 5 -10 10 -10 6 0 10 5 10 10 0 6 -4 10 -10 10 -5 0
-10 -4 -10 -10z"/>
<path d="M1829 4528 c-6 -24 -15 -56 -20 -72 -13 -42 -11 -99 4 -118 19 -25
109 -37 242 -31 66 2 237 5 380 7 143 1 268 5 278 10 10 5 22 16 27 26 14 26
25 180 13 180 -22 0 -32 -28 -35 -95 l-3 -70 -180 -1 c-99 -1 -259 -5 -355 -9
-251 -10 -310 -11 -323 -3 -8 5 -8 22 2 65 24 103 25 123 7 123 -10 0 -13 6
-10 15 4 8 1 15 -5 15 -5 0 -15 -19 -22 -42z"/>
<path d="M967 4523 c-5 -9 -1 -169 9 -345 4 -86 3 -137 -5 -159 -14 -42 0 -59
52 -61 42 -1 70 24 62 57 -6 30 -6 305 1 342 5 25 2 34 -11 39 -24 10 -39 -10
-20 -26 22 -18 19 -35 -11 -55 -34 -22 -40 -13 -27 38 10 35 9 45 -4 59 -10
11 -13 26 -8 46 8 39 -23 92 -38 65z m73 -270 c0 -5 3 -68 6 -142 5 -110 4
-133 -7 -129 -11 4 -14 35 -14 141 0 76 3 137 7 137 4 0 8 -3 8 -7z"/>
<path d="M262 4458 c-24 -54 -26 -83 -5 -70 11 7 38 111 30 118 -1 2 -13 -20
-25 -48z"/>
<path d="M1228 4483 c7 -3 16 -2 19 1 4 3 -2 6 -13 5 -11 0 -14 -3 -6 -6z"/>
<path d="M1295 4480 c3 -5 10 -10 16 -10 5 0 9 5 9 10 0 6 -7 10 -16 10 -8 0
-12 -4 -9 -10z"/>
<path d="M1530 4434 c0 -8 72 -75 77 -71 2 2 -4 20 -12 40 -12 29 -21 37 -40
37 -14 0 -25 -3 -25 -6z"/>
<path d="M1331 4416 c-9 -11 -8 -15 5 -20 23 -9 24 -8 24 14 0 23 -13 26 -29
6z"/>
<path d="M1135 4354 c-11 -12 -13 -20 -6 -27 14 -14 14 -47 1 -47 -5 0 -10
-23 -10 -51 0 -47 1 -50 22 -44 16 6 20 4 15 -8 -3 -9 -2 -39 2 -67 5 -31 4
-66 -3 -90 -10 -39 -9 -42 23 -73 22 -21 30 -25 24 -12 -5 11 -11 108 -12 214
-2 218 -11 250 -56 205z"/>
<path d="M1441 4361 c-11 -7 -9 -13 10 -32 22 -22 24 -22 27 -5 5 24 -19 48
-37 37z"/>
<path d="M216 4325 c-3 -9 -10 -13 -16 -10 -17 10 -31 -5 -21 -22 5 -10 3 -33
-5 -61 -17 -54 -17 -62 -4 -62 19 0 44 53 51 108 8 58 6 75 -5 47z m-16 -25
c0 -5 -2 -10 -4 -10 -3 0 -8 5 -11 10 -3 6 -1 10 4 10 6 0 11 -4 11 -10z"/>
<path d="M1364 4290 c5 -37 3 -50 -6 -50 -9 0 -9 -3 0 -12 7 -7 12 -25 12 -41
0 -15 4 -26 10 -22 10 6 13 102 4 148 -10 50 -27 30 -20 -23z"/>
<path d="M1525 4309 c-13 -19 -19 -189 -7 -189 16 0 21 23 23 110 2 80 -3 102
-16 79z"/>
<path d="M1564 4307 c-8 -23 0 -100 11 -104 9 -3 35 61 35 86 0 6 -9 15 -20
21 -16 8 -22 8 -26 -3z"/>
<path d="M1225 4262 c-9 -23 -6 -72 5 -72 6 0 10 6 10 14 0 7 14 19 30 26 17
7 30 18 30 25 0 18 -68 25 -75 7z"/>
<path d="M1419 4260 c-7 -41 7 -121 22 -131 17 -11 34 -6 33 9 -1 7 -2 30 -2
52 -2 33 -5 40 -19 38 -12 -2 -19 6 -23 27 -6 29 -7 29 -11 5z m33 -92 c-9 -9
-12 -7 -12 12 0 19 3 21 12 12 9 -9 9 -15 0 -24z"/>
<path d="M1282 4178 c-7 -7 -12 -19 -12 -27 0 -8 3 -11 7 -8 3 4 15 0 24 -9
17 -16 19 -15 25 1 13 33 -21 66 -44 43z"/>
<path d="M1570 4116 c0 -27 24 -53 35 -37 5 9 -21 61 -31 61 -2 0 -4 -11 -4
-24z"/>
<path d="M1370 4120 c0 -5 5 -10 11 -10 5 0 7 5 4 10 -3 6 -8 10 -11 10 -2 0
-4 -4 -4 -10z"/>
<path d="M1264 4095 c-3 -13 -1 -31 4 -42 5 -10 7 -24 4 -32 -3 -8 0 -11 6 -7
6 4 23 -1 37 -10 14 -9 28 -15 30 -12 11 11 -17 74 -45 99 l-30 28 -6 -24z"/>
<path d="M3001 4105 c-35 -8 -87 -22 -115 -32 -28 -10 -55 -18 -61 -18 -11 -1
-38 -17 -125 -74 -109 -72 -251 -223 -306 -327 -27 -52 -74 -187 -89 -255 -19
-92 -19 -128 1 -204 27 -108 31 -119 64 -187 31 -65 50 -85 50 -53 0 22 13 18
29 -7 13 -21 14 -21 27 -3 8 10 14 28 14 40 0 23 38 65 60 65 7 0 38 12 69 27
56 27 150 51 226 57 264 23 417 23 469 1 20 -9 74 -18 119 -22 66 -5 88 -11
110 -30 16 -12 33 -23 38 -23 5 0 11 0 14 0 3 0 20 -9 38 -19 19 -11 45 -17
59 -14 22 4 27 -1 42 -42 13 -34 21 -44 29 -36 15 15 27 14 27 -3 0 -8 -8 -17
-17 -20 -13 -5 -14 -9 -4 -19 9 -9 14 -9 21 2 7 12 11 12 24 2 8 -7 20 -10 26
-6 15 9 12 -4 -5 -22 -9 -8 -14 -18 -11 -20 9 -9 46 8 46 21 0 8 7 19 15 26
20 17 58 96 86 180 40 119 38 305 -6 461 -50 179 -233 388 -420 482 -117 58
-241 87 -370 86 -60 0 -139 -7 -174 -14z"/>
<path d="M1416 4057 c-12 -105 -4 -121 34 -67 16 23 19 34 11 44 -7 9 -7 16 2
25 9 11 9 14 -1 18 -7 3 -18 11 -26 18 -11 12 -14 5 -20 -38z"/>
<path d="M1117 4074 c-3 -16 -2 -35 3 -43 12 -22 22 21 12 50 -9 23 -9 22 -15
-7z"/>
<path d="M1517 4084 c-13 -13 -7 -91 8 -104 19 -15 35 -5 35 23 -1 28 -34 90
-43 81z"/>
<path d="M4690 4076 c0 -2 8 -10 18 -17 15 -13 16 -12 3 4 -13 16 -21 21 -21
13z"/>
<path d="M1604 4038 c3 -13 6 -36 6 -53 1 -26 2 -28 11 -12 13 22 3 87 -13 87
-6 0 -8 -9 -4 -22z"/>
<path d="M111 3994 c0 -11 3 -14 6 -6 3 7 2 16 -1 19 -3 4 -6 -2 -5 -13z"/>
<path d="M1230 3981 c0 -12 5 -21 10 -21 6 0 10 6 10 14 0 8 -4 18 -10 21 -5
3 -10 -3 -10 -14z"/>
<path d="M4553 3958 c-21 -25 -83 -147 -83 -163 0 -8 5 -15 11 -15 17 0 49 20
49 31 0 14 41 48 57 49 11 0 33 -30 33 -44 0 -3 -11 -6 -25 -6 -14 0 -25 -4
-25 -9 0 -11 111 -24 120 -14 4 4 -13 46 -39 93 -47 86 -74 108 -98 78z"/>
<path d="M93 3945 c-3 -9 -3 -18 -1 -21 3 -3 8 4 11 16 6 23 -1 27 -10 5z"/>
<path d="M1372 3948 c6 -18 28 -21 28 -4 0 9 -7 16 -16 16 -9 0 -14 -5 -12
-12z"/>
<path d="M1550 3945 c0 -8 6 -15 14 -15 8 0 16 7 20 15 4 10 -1 15 -14 15 -11
0 -20 -7 -20 -15z"/>
<path d="M4312 3939 c-13 -21 -16 -59 -4 -59 10 0 31 69 23 75 -4 2 -12 -5
-19 -16z"/>
<path d="M868 3937 c-30 -12 -38 -43 -16 -65 8 -8 9 -15 2 -22 -7 -7 -19 -4
-36 10 -15 11 -31 20 -37 20 -6 0 -11 5 -11 10 0 6 -5 10 -11 10 -20 0 -39
-29 -39 -59 0 -17 -4 -31 -8 -31 -4 0 -9 -22 -10 -50 -2 -46 0 -50 23 -56 41
-10 68 21 62 71 -6 44 4 72 22 61 6 -4 11 -15 11 -25 0 -10 5 -32 11 -49 9
-28 14 -31 37 -26 36 9 52 31 52 74 0 32 4 38 36 54 41 19 36 33 -11 38 -22 2
-31 9 -33 26 -4 24 -5 25 -44 9z"/>
<path d="M1720 3931 c0 -12 6 -21 15 -21 8 0 15 4 15 9 0 5 -7 14 -15 21 -13
10 -15 9 -15 -9z"/>
<path d="M1078 3910 c-7 -11 -20 -20 -28 -20 -28 0 -40 -23 -40 -72 0 -44 2
-48 24 -48 27 0 36 -16 36 -63 0 -24 3 -28 10 -17 5 8 7 41 5 72 -4 47 -2 59
12 66 14 8 15 13 5 25 -9 10 -10 17 -2 22 13 8 13 55 0 55 -5 0 -15 -9 -22
-20z"/>
<path d="M1233 3910 c-13 -5 -23 -17 -23 -25 0 -9 -4 -14 -9 -11 -11 7 -21
-27 -21 -71 0 -28 4 -33 23 -33 35 0 61 33 54 69 -4 19 -1 33 8 41 18 15 20
40 3 39 -7 0 -23 -4 -35 -9z"/>
<path d="M1376 3903 c-5 -17 -9 -84 -7 -111 1 -8 10 -12 24 -10 19 3 22 9 23
53 0 51 -10 85 -26 85 -5 0 -11 -8 -14 -17z"/>
<path d="M1872 3889 c2 -7 10 -15 17 -17 8 -3 12 1 9 9 -2 7 -10 15 -17 17 -8
3 -12 -1 -9 -9z"/>
<path d="M1540 3850 c-13 -33 -2 -60 26 -60 8 0 14 -4 14 -10 0 -5 7 -10 15
-10 12 0 15 13 15 55 0 54 -1 55 -29 55 -22 0 -31 -6 -41 -30z"/>
<path d="M1693 3827 c-10 -22 -8 -26 27 -46 21 -11 41 -21 44 -21 4 0 6 19 4
43 -3 39 -5 42 -34 45 -24 2 -33 -2 -41 -21z"/>
<path d="M73 3800 c0 -25 2 -35 4 -22 2 12 2 32 0 45 -2 12 -4 2 -4 -23z"/>
<path d="M4266 3831 c-4 -7 -5 -15 -2 -18 9 -9 19 4 14 18 -4 11 -6 11 -12 0z"/>
<path d="M660 3820 c0 -5 7 -10 15 -10 8 0 15 5 15 10 0 6 -7 10 -15 10 -8 0
-15 -4 -15 -10z"/>
<path d="M940 3786 c0 -19 5 -38 10 -41 6 -4 10 10 10 34 0 23 -4 41 -10 41
-5 0 -10 -15 -10 -34z"/>
<path d="M1847 3793 c-5 -21 -1 -33 15 -45 28 -25 35 -23 35 10 -1 15 1 34 4
42 3 10 -4 16 -22 18 -22 3 -27 -2 -32 -25z"/>
<path d="M622 3785 c-16 -12 -19 -20 -12 -33 5 -9 11 -30 15 -45 10 -48 29
-25 31 36 1 31 -1 57 -5 57 -4 0 -16 -7 -29 -15z"/>
<path d="M1984 3782 c-6 -4 -9 -23 -6 -44 4 -35 5 -36 34 -27 17 4 33 10 35
13 9 9 -31 66 -47 66 -3 0 -10 -4 -16 -8z"/>
<path d="M2070 3768 c0 -15 60 -68 76 -68 29 0 12 29 -31 53 -25 14 -45 21
-45 15z"/>
<path d="M4216 3741 c-19 -35 -19 -41 -6 -41 6 0 10 8 10 18 0 10 5 23 12 30
6 6 9 14 6 18 -4 3 -14 -8 -22 -25z"/>
<path d="M470 3746 c0 -8 4 -17 10 -21 12 -8 -21 -74 -37 -75 -22 0 -14 -30
15 -55 33 -28 50 -18 44 25 -2 17 0 36 6 43 7 8 5 25 -9 55 -20 44 -29 52 -29
28z"/>
<path d="M55 3738 c-9 -32 -16 -182 -7 -173 5 6 12 49 15 98 4 81 2 105 -8 75z"/>
<path d="M545 3740 c-4 -6 -4 -33 0 -61 6 -39 11 -49 24 -47 30 6 27 118 -4
118 -7 0 -17 -5 -20 -10z"/>
<path d="M6334 3737 c3 -10 6 -41 6 -68 0 -30 4 -49 11 -49 15 0 5 109 -12
124 -9 8 -10 7 -5 -7z"/>
<path d="M5690 3725 c-10 -12 -10 -15 4 -15 9 0 16 7 16 15 0 8 -2 15 -4 15
-2 0 -9 -7 -16 -15z"/>
<path d="M1558 3725 c-3 -3 -98 -6 -212 -6 -146 -1 -206 -5 -206 -13 0 -8 71
-11 250 -12 138 0 250 2 250 6 0 16 -70 37 -82 25z"/>
<path d="M1690 3707 c0 -9 14 -17 35 -21 40 -8 42 -13 18 -32 -10 -7 -13 -14
-7 -14 6 0 17 7 24 15 15 18 49 14 109 -16 22 -10 46 -19 54 -19 7 0 32 -9 55
-20 47 -23 52 -24 52 -10 0 11 -65 41 -130 60 -25 8 -49 17 -54 22 -6 4 -19 8
-30 8 -19 1 -58 13 -108 35 -13 5 -18 3 -18 -8z"/>
<path d="M1910 3710 c0 -5 5 -10 11 -10 5 0 7 5 4 10 -3 6 -8 10 -11 10 -2 0
-4 -4 -4 -10z"/>
<path d="M1005 3703 c-11 -3 -24 -9 -29 -14 -6 -5 -27 -9 -48 -9 -21 0 -38 -5
-38 -11 0 -7 13 -9 38 -5 20 3 56 8 80 12 26 4 42 11 42 20 0 14 -9 16 -45 7z"/>
<path d="M2060 3691 c0 -6 5 -13 11 -17 8 -4 8 -9 0 -17 -13 -13 -14 -27 -3
-27 16 0 31 47 19 59 -13 13 -27 14 -27 2z"/>
<path d="M5755 3690 c3 -5 10 -10 16 -10 5 0 9 5 9 10 0 6 -7 10 -16 10 -8 0
-12 -4 -9 -10z"/>
<path d="M2176 3658 c4 -18 8 -44 9 -58 1 -14 3 -33 3 -42 1 -10 9 -18 18 -18
13 0 15 12 12 75 -3 71 -4 75 -26 75 -21 0 -23 -3 -16 -32z"/>
<path d="M2120 3670 c0 -5 5 -10 10 -10 6 0 10 5 10 10 0 6 -4 10 -10 10 -5 0
-10 -4 -10 -10z"/>
<path d="M725 3638 c-48 -35 -58 -54 -24 -43 13 4 41 9 61 12 21 3 42 11 49
19 6 8 17 14 25 14 7 0 16 5 20 12 5 8 -4 9 -31 5 -21 -4 -44 -3 -49 2 -7 5
-27 -4 -51 -21z"/>
<path d="M4176 3661 c-4 -7 -5 -15 -2 -18 9 -9 19 4 14 18 -4 11 -6 11 -12 0z"/>
<path d="M1082 3640 c0 -14 2 -19 5 -12 2 6 2 18 0 25 -3 6 -5 1 -5 -13z"/>
<path d="M5510 3654 c0 -3 5 -25 11 -50 10 -39 15 -44 40 -44 28 0 59 -30 59
-58 0 -20 79 -152 91 -152 15 0 61 58 81 102 17 39 18 41 18 58 0 11 48 60 59
60 5 0 12 12 15 28 4 15 9 35 12 45 5 15 1 18 -18 15 -15 -2 -24 -11 -26 -26
-2 -12 -14 -30 -28 -38 -13 -9 -24 -24 -24 -34 0 -10 -8 -21 -18 -24 -26 -9
-148 -9 -161 -1 -18 11 -12 37 9 42 15 4 20 14 20 39 0 42 -17 53 -26 17 -11
-43 -49 -59 -61 -25 -11 32 -53 69 -53 46z m220 -207 c0 -19 -10 -27 -26 -20
-21 8 -17 33 6 33 11 0 20 -6 20 -13z"/>
<path d="M5758 3649 c-7 -22 4 -70 16 -66 15 5 14 69 0 74 -7 2 -14 -1 -16 -8z"/>
<path d="M4493 3622 l-102 -3 -53 -48 c-47 -43 -58 -48 -98 -48 -25 -1 -50 3
-56 8 -6 5 -23 8 -38 7 -20 -2 -26 -7 -24 -22 4 -27 86 -49 160 -44 46 3 61 9
77 29 45 55 64 68 81 59 9 -5 21 -5 26 -1 11 10 179 22 188 14 3 -4 29 -7 57
-7 42 -1 55 -6 72 -27 38 -47 79 -60 155 -53 86 9 112 19 112 43 0 15 -6 19
-25 17 -14 -1 -28 -6 -32 -9 -3 -4 -39 -7 -80 -7 l-73 0 -25 40 c-14 23 -31
43 -38 45 -22 6 -180 11 -284 7z"/>
<path d="M1146 3611 c-10 -16 5 -18 64 -11 52 7 53 7 13 9 -23 0 -48 4 -56 7
-8 3 -18 1 -21 -5z"/>
<path d="M1531 3611 c-11 -7 -9 -10 7 -15 12 -4 31 -19 42 -33 11 -14 20 -24
21 -22 9 47 8 55 -8 66 -20 15 -42 16 -62 4z"/>
<path d="M1669 3604 c-16 -19 -22 -114 -8 -114 5 0 9 -5 9 -11 0 -6 -7 -8 -15
-5 -11 4 -19 -3 -26 -21 -5 -14 -7 -28 -4 -31 3 -3 5 -1 5 5 0 6 7 14 16 17
13 5 15 1 12 -19 -7 -35 8 -41 27 -12 12 19 13 31 6 51 -8 20 -7 26 3 26 15 0
29 -27 21 -40 -3 -5 0 -12 7 -16 7 -4 10 -4 6 1 -4 4 -4 13 1 19 4 6 11 26 14
43 5 26 2 35 -13 43 -11 6 -20 20 -20 30 0 24 9 25 36 5 21 -16 94 -20 94 -5
0 6 -11 10 -24 10 -14 0 -28 5 -31 10 -3 6 -17 10 -30 10 -13 0 -27 5 -30 10
-10 15 -41 12 -56 -6z m8 -86 c-3 -8 -6 -5 -6 6 -1 11 2 17 5 13 3 -3 4 -12 1
-19z"/>
<path d="M1368 3603 c6 -2 18 -2 25 0 6 3 1 5 -13 5 -14 0 -19 -2 -12 -5z"/>
<path d="M1005 3580 c4 -6 11 -8 16 -5 14 9 11 15 -7 15 -8 0 -12 -5 -9 -10z"/>
<path d="M1078 3574 c-10 -9 -9 -160 1 -194 5 -18 9 -3 13 52 5 82 -2 155 -14
142z"/>
<path d="M1325 3550 c10 -11 25 -20 33 -20 12 0 12 4 -3 20 -10 11 -25 20 -33
20 -12 0 -12 -4 3 -20z"/>
<path d="M1890 3546 c0 -3 24 -12 53 -21 28 -10 57 -22 63 -29 15 -15 24 -96
14 -121 -5 -11 -9 -16 -9 -11 -1 5 -8 3 -16 -4 -16 -13 -15 -15 -19 52 -2 25
-12 31 -41 24 -24 -6 -25 -10 -25 -71 0 -39 4 -65 10 -65 6 0 10 15 8 35 -2
19 1 33 7 32 6 -1 10 -22 10 -47 0 -43 1 -45 33 -48 31 -3 32 -2 32 32 0 20 5
36 11 36 7 0 9 -24 7 -70 -2 -50 0 -70 9 -70 9 0 13 40 15 143 3 158 6 151
-69 187 -38 18 -93 27 -93 16z"/>
<path d="M676 3514 c-5 -13 -1 -14 27 -9 48 10 57 25 15 25 -23 0 -38 -5 -42
-16z"/>
<path d="M5505 3512 c-6 -4 -11 -67 -12 -144 -2 -110 0 -138 11 -138 33 0 58
281 26 287 -8 2 -19 0 -25 -5z"/>
<path d="M5878 3513 c-22 -5 -21 -4 -4 -38 8 -14 14 -56 15 -92 1 -65 18 -143
31 -143 4 0 6 26 4 58 -8 136 -17 222 -23 221 -3 -1 -14 -3 -23 -6z"/>
<path d="M1233 3481 c-24 -21 -30 -34 -26 -51 l6 -23 18 24 c10 13 21 32 25
42 7 22 16 22 48 -4 17 -14 26 -30 26 -49 0 -16 5 -32 10 -35 6 -3 10 -15 10
-26 0 -10 5 -19 10 -19 6 0 10 24 10 53 0 55 -17 85 -57 106 -33 17 -46 14
-80 -18z"/>
<path d="M1463 3498 c-15 -7 -23 -20 -23 -35 0 -30 21 -26 35 5 14 31 29 27
65 -15 26 -32 31 -44 27 -75 -3 -21 -1 -38 4 -38 13 0 11 84 -2 113 -10 23
-57 58 -76 56 -4 0 -18 -5 -30 -11z"/>
<path d="M944 3478 c-33 -15 -57 -64 -50 -104 7 -34 20 -45 29 -21 3 6 10 0
16 -16 9 -24 14 -26 31 -17 15 8 20 22 21 53 2 42 2 42 8 8 8 -44 31 -54 31
-13 0 72 -44 129 -86 110z m-4 -73 c0 -8 -4 -15 -10 -15 -5 0 -10 7 -10 15 0
8 5 15 10 15 6 0 10 -7 10 -15z"/>
<path d="M672 3450 c0 -14 2 -19 5 -12 2 6 2 18 0 25 -3 6 -5 1 -5 -13z"/>
<path d="M860 3460 c0 -5 5 -10 10 -10 6 0 10 5 10 10 0 6 -4 10 -10 10 -5 0
-10 -4 -10 -10z"/>
<path d="M1770 3455 c-7 -9 -10 -27 -7 -45 4 -20 3 -29 -5 -27 -20 4 -21 -33
-1 -39 10 -3 35 -14 56 -25 49 -26 67 -14 67 46 0 75 -73 135 -110 90z m68
-43 c9 -14 10 -22 3 -22 -6 0 -11 4 -11 9 0 5 -8 17 -17 27 -12 12 -13 16 -4
13 8 -3 21 -15 29 -27z"/>
<path d="M770 3440 c0 -13 -7 -20 -20 -20 -11 0 -20 -4 -20 -9 0 -16 19 -23
37 -13 27 16 60 -6 71 -47 l10 -36 1 42 c1 34 -5 47 -30 72 -36 36 -49 39 -49
11z"/>
<path d="M2207 3453 c-7 -12 11 -53 23 -53 15 0 8 52 -7 57 -6 2 -13 0 -16 -4z"/>
<path d="M28 3415 c-21 -109 7 -491 52 -735 10 -53 43 -171 61 -218 5 -13 9
-34 9 -48 0 -13 4 -32 9 -42 5 -9 14 -35 21 -57 41 -135 113 -305 133 -313 4
-2 7 -11 7 -20 0 -17 66 -151 115 -233 14 -24 28 -52 32 -61 3 -10 9 -18 14
-18 5 0 9 -6 9 -13 0 -8 9 -22 20 -32 10 -9 38 -49 61 -87 38 -63 44 -69 68
-63 14 4 28 8 30 11 6 6 -21 34 -33 34 -17 0 -67 56 -108 120 -19 30 -43 69
-54 85 -10 17 -28 48 -39 70 -50 95 -104 204 -128 255 -66 144 -76 168 -87
210 -6 25 -16 53 -21 62 -5 10 -9 28 -9 40 0 25 -22 93 -33 104 -4 4 -7 18 -7
30 0 13 -4 33 -9 46 -9 24 -19 68 -46 218 -38 211 -48 298 -54 490 -4 135 -9
191 -13 165z"/>
<path d="M1470 3430 c-12 -7 -12 -12 -2 -22 6 -6 12 -19 12 -28 0 -22 36 -54
50 -45 14 9 7 70 -11 91 -13 16 -28 18 -49 4z"/>
<path d="M1254 3415 c-4 -8 -4 -22 0 -30 8 -21 -3 -45 -20 -45 -8 0 -14 9 -14
19 0 11 -4 23 -10 26 -6 4 -10 -9 -10 -30 0 -30 3 -36 16 -31 9 3 30 6 48 6
52 0 68 18 55 63 -8 30 -15 37 -35 37 -13 0 -27 -7 -30 -15z"/>
<path d="M6363 3395 c0 -22 2 -30 4 -17 2 12 2 30 0 40 -3 9 -5 -1 -4 -23z"/>
<path d="M621 3373 c0 -29 2 -33 8 -18 7 18 4 55 -5 55 -2 0 -4 -17 -3 -37z"/>
<path d="M5770 3331 c-22 -43 -47 -86 -54 -96 -13 -18 -14 -17 -26 6 -49 93
-120 182 -120 152 0 -5 -4 -34 -10 -66 -6 -37 -6 -67 1 -83 13 -37 35 -25 31
17 -2 21 0 30 5 24 5 -5 29 -34 52 -62 24 -29 50 -53 58 -53 14 0 52 37 53 52
0 4 12 24 26 45 l26 38 -4 -35 c-3 -19 -2 -42 3 -50 4 -8 10 -27 13 -41 5 -23
12 -27 58 -32 49 -6 78 3 78 23 0 15 -60 22 -75 10 -18 -15 -17 -18 -20 55 -3
82 -25 175 -41 175 -7 0 -31 -35 -54 -79z"/>
<path d="M2150 3390 c0 -5 5 -10 10 -10 6 0 10 5 10 10 0 6 -4 10 -10 10 -5 0
-10 -4 -10 -10z"/>
<path d="M770 3365 c0 -14 -7 -28 -15 -31 -8 -4 -15 -17 -15 -30 0 -21 4 -24
41 -24 l42 0 -7 47 c-6 42 -18 62 -38 63 -5 0 -8 -11 -8 -25z"/>
<path d="M1420 3360 c0 -21 4 -30 13 -27 6 2 12 14 12 27 0 13 -6 25 -12 28
-9 2 -13 -7 -13 -28z"/>
<path d="M536 3361 c-13 -14 -14 -21 -5 -27 7 -4 17 0 24 9 19 27 22 21 17
-38 -5 -67 3 -105 25 -105 14 0 15 10 10 69 -8 100 -34 133 -71 92z"/>
<path d="M1670 3370 c0 -5 5 -10 10 -10 6 0 10 5 10 10 0 6 -4 10 -10 10 -5 0
-10 -4 -10 -10z"/>
<path d="M2080 3356 c0 -22 3 -27 11 -19 8 8 8 16 0 30 -9 16 -10 14 -11 -11z"/>
<path d="M2206 3351 c-4 -6 -7 -24 -6 -39 1 -15 2 -33 1 -39 -1 -18 -38 -16
-45 2 -5 15 -51 21 -59 8 -3 -5 0 -19 5 -33 6 -18 11 -21 17 -12 6 10 12 7 24
-12 10 -14 17 -32 17 -41 0 -8 7 -15 16 -15 11 0 13 6 9 19 -4 14 0 21 13 25
18 6 52 64 52 90 0 23 -36 61 -44 47z"/>
<path d="M675 3338 c-4 -9 -3 -42 2 -74 7 -51 11 -59 31 -62 26 -4 28 3 7 24
-10 10 -14 32 -13 60 1 47 -16 81 -27 52z"/>
<path d="M1133 3324 c-3 -8 -1 -20 6 -27 8 -8 11 -4 11 16 0 30 -7 35 -17 11z"/>
<path d="M835 3290 c-3 -5 -1 -10 4 -10 6 0 11 5 11 10 0 6 -2 10 -4 10 -3 0
-8 -4 -11 -10z"/>
<path d="M1179 3289 c-9 -5 21 -9 80 -9 52 0 92 2 90 4 -10 8 -157 13 -170 5z"/>
<path d="M1420 3290 c0 -5 7 -10 16 -10 8 0 12 5 9 10 -3 6 -10 10 -16 10 -5
0 -9 -4 -9 -10z"/>
<path d="M1548 3283 c7 -3 16 -2 19 1 4 3 -2 6 -13 5 -11 0 -14 -3 -6 -6z"/>
<path d="M476 3247 c-7 -37 7 -87 23 -87 18 0 32 40 29 78 -2 29 -8 38 -24 40
-18 2 -23 -3 -28 -31z"/>
<path d="M1005 3224 c-33 -7 -68 -18 -77 -24 -10 -5 -25 -10 -33 -10 -8 0 -15
-4 -15 -10 0 -11 47 -5 105 15 59 19 73 16 79 -19 3 -17 6 -143 6 -281 1 -258
15 -651 30 -835 5 -67 6 39 3 295 -12 915 -11 887 -31 884 -4 0 -34 -7 -67
-15z"/>
<path d="M1143 3225 c6 -16 65 -23 110 -13 23 5 71 7 107 3 36 -4 108 -8 160
-9 l95 -1 1 -110 c1 -60 4 -139 8 -175 4 -36 9 -263 11 -505 12 -1053 14
-1270 15 -1270 1 0 2 -31 4 -68 2 -65 1 -68 -24 -73 -45 -10 -52 -14 -47 -27
2 -6 17 -13 33 -13 16 -1 55 -14 88 -28 l59 -27 36 26 c21 14 47 25 59 25 13
0 33 6 45 14 12 8 38 17 57 21 19 4 40 12 47 17 7 5 21 7 32 3 28 -9 112 21
139 51 13 13 31 24 40 25 9 0 28 14 42 32 25 31 25 34 23 202 -1 93 -5 283 -9
420 -4 138 -6 284 -6 325 7 312 1 679 -9 686 -5 3 -9 -4 -9 -15 0 -11 -5 -23
-10 -26 -7 -5 -9 -51 -5 -136 4 -86 2 -136 -5 -150 -8 -15 -8 -24 0 -34 8 -10
7 -31 -3 -81 -7 -38 -17 -63 -21 -56 -4 7 -16 12 -27 12 -17 0 -19 -7 -19 -64
0 -48 -5 -69 -20 -89 -11 -14 -20 -39 -20 -56 0 -56 45 -126 62 -98 12 19 9
24 -17 31 -18 5 -25 13 -25 30 0 14 -2 30 -5 38 -3 7 0 20 5 28 8 13 13 12 32
-8 l23 -23 12 43 c11 42 11 42 13 -42 1 -47 2 -91 0 -99 -1 -7 3 -25 9 -40 10
-28 21 -639 12 -706 -5 -36 -11 -43 -56 -67 -27 -15 -59 -28 -70 -28 -11 0
-38 -11 -61 -23 -58 -34 -81 -40 -236 -63 l-48 -7 -1 39 c0 22 -2 53 -4 69 -3
17 -6 129 -9 250 -2 121 -10 256 -17 300 -13 78 -13 79 -20 40 -8 -41 -5 -324
6 -565 6 -132 -1 -179 -23 -155 -5 6 -12 98 -16 205 -3 107 -8 256 -11 330 -3
74 -7 365 -10 645 -6 663 -15 1028 -26 1039 -11 13 -500 14 -496 1z m1082
-1046 c-7 -20 -8 -21 -17 -5 -5 9 -7 24 -4 33 10 26 29 -1 21 -28z"/>
<path d="M1680 3230 c0 -5 7 -10 16 -10 8 0 12 5 9 10 -3 6 -10 10 -16 10 -5
0 -9 -4 -9 -10z"/>
<path d="M4197 3199 c-3 -12 -2 -29 2 -38 5 -8 5 -24 -1 -37 -10 -22 -5 -54
24 -154 15 -51 18 -52 108 -54 52 -1 72 -6 95 -24 28 -22 37 -23 165 -21 154
2 172 5 168 28 -6 28 -51 40 -179 45 -146 7 -257 15 -282 23 -32 9 -57 80 -57
161 0 43 -4 71 -9 67 -6 -3 -14 2 -19 11 -8 14 -10 13 -15 -7z"/>
<path d="M4892 3198 c-6 -13 -12 -32 -14 -43 -3 -17 -12 -20 -67 -23 -52 -2
-67 0 -81 16 -40 42 -256 53 -319 16 -60 -35 -30 -44 194 -58 55 -4 132 -10
172 -14 123 -12 154 6 145 86 -5 47 -13 53 -30 20z"/>
<path d="M1820 3194 c38 -17 136 -36 123 -24 -14 13 -105 40 -132 40 -24 -1
-23 -2 9 -16z"/>
<path d="M6352 3151 c-14 -62 -16 -159 -3 -145 12 12 28 144 21 174 -5 19 -8
14 -18 -29z"/>
<path d="M623 3163 c3 -17 1 -35 -5 -41 -8 -8 -7 -20 5 -44 l17 -33 0 67 c0
40 -5 70 -12 74 -8 5 -9 -2 -5 -23z"/>
<path d="M2218 3179 c-17 -10 -25 -49 -12 -62 13 -12 54 26 54 49 0 26 -14 30
-42 13z"/>
<path d="M5522 3180 c-42 -10 -50 -18 -32 -31 19 -12 81 -4 92 13 18 29 5 33
-60 18z"/>
<path d="M805 3175 c-5 -2 -27 -6 -49 -10 -25 -4 -35 -10 -29 -16 6 -6 29 -5
64 2 68 14 96 29 54 28 -16 0 -34 -2 -40 -4z"/>
<path d="M1691 2963 c1 -120 4 -229 9 -243 l7 -25 7 25 c3 14 4 66 2 115 -2
50 -4 147 -5 218 -1 77 -5 127 -11 127 -6 0 -10 -79 -9 -217z"/>
<path d="M1146 2570 c4 -659 5 -946 1 -1113 -2 -76 1 -111 10 -119 33 -27 32
-49 19 822 -8 482 -19 902 -26 955 -5 33 -7 -208 -4 -545z"/>
<path d="M432 3140 c0 -14 2 -19 5 -12 2 6 2 18 0 25 -3 6 -5 1 -5 -13z"/>
<path d="M873 3129 c-18 -5 -35 -14 -38 -19 -3 -6 -19 -10 -36 -10 -32 0 -35
-6 -14 -34 8 -11 15 -39 15 -62 0 -23 7 -57 15 -75 16 -34 16 -34 9 -4 -19 91
4 155 61 169 14 4 29 15 35 26 12 23 5 24 -47 9z"/>
<path d="M2034 3104 c-9 -34 -9 -198 0 -838 3 -258 6 -549 6 -648 0 -100 4
-177 9 -174 10 7 9 1671 -1 1681 -4 4 -10 -6 -14 -21z"/>
<path d="M1457 3073 c7 -71 16 -84 23 -33 6 44 -3 80 -19 80 -5 0 -6 -21 -4
-47z"/>
<path d="M570 3090 c0 -5 7 -10 15 -10 8 0 15 5 15 10 0 6 -7 10 -15 10 -8 0
-15 -4 -15 -10z"/>
<path d="M1362 3080 c-15 -25 -16 -23 7 -49 11 -13 17 -29 14 -38 -7 -17 14
-34 34 -26 18 7 17 83 -3 111 -19 27 -35 28 -52 2z"/>
<path d="M216 3082 c-2 -4 -1 -14 5 -22 7 -12 9 -10 9 8 0 23 -5 28 -14 14z"/>
<path d="M531 3064 c28 -34 79 -133 79 -153 0 -14 2 -14 10 -1 5 8 11 12 15 9
8 -8 9 -795 1 -808 -4 -6 -4 -17 1 -23 4 -7 8 -24 8 -37 0 -13 5 -26 12 -28 8
-3 11 14 8 59 -1 35 -4 244 -4 465 -1 239 -6 405 -12 408 -5 4 -9 1 -9 -4 0
-6 -4 -11 -9 -11 -10 0 -22 31 -30 80 -5 26 -10 34 -23 32 -11 -2 -18 3 -18
13 0 9 -9 15 -21 15 -19 0 -20 -2 -8 -16z"/>
<path d="M690 3018 c0 -29 5 -80 11 -113 6 -33 11 -67 11 -75 -1 -8 -3 -195
-6 -415 -2 -237 -8 -401 -14 -403 -14 -4 3 -80 23 -102 20 -22 44 -28 26 -7
-16 19 -27 496 -13 524 21 38 13 563 -9 620 -15 40 -29 25 -29 -29z"/>
<path d="M475 3050 c-3 -5 -15 -10 -26 -10 -10 0 -19 -6 -19 -14 0 -12 7 -12
40 2 40 17 52 32 26 32 -8 0 -18 -4 -21 -10z"/>
<path d="M1847 3048 c-2 -7 -2 -29 1 -48 5 -35 19 -53 34 -44 9 6 11 65 2 88
-7 19 -30 21 -37 4z"/>
<path d="M872 3038 c-13 -13 -16 -56 -6 -82 3 -9 15 -16 26 -16 19 0 20 4 14
47 -7 54 -17 68 -34 51z"/>
<path d="M1801 3006 c-1 -26 2 -37 9 -30 6 6 6 21 1 39 -9 30 -9 30 -10 -9z"/>
<path d="M2187 3003 c-7 -37 7 -50 21 -19 8 19 8 27 -2 35 -11 9 -15 5 -19
-16z"/>
<path d="M626 3001 c-4 -7 -5 -15 -2 -18 9 -9 19 4 14 18 -4 11 -6 11 -12 0z"/>
<path d="M4927 2994 c-4 -4 -7 -35 -7 -68 0 -46 -7 -72 -25 -106 -14 -25 -28
-52 -31 -61 -10 -29 -66 -39 -244 -40 -177 -1 -314 15 -346 42 -8 6 -17 29
-20 50 -4 26 -15 44 -32 55 l-25 16 6 -50 c5 -47 45 -127 71 -144 39 -26 129
-40 275 -41 276 -2 334 14 379 105 18 37 23 62 23 125 0 79 -11 130 -24 117z"/>
<path d="M1467 2971 c-3 -12 -1 -21 3 -21 14 0 19 15 11 29 -6 9 -10 7 -14 -8z"/>
<path d="M220 2961 c0 -12 5 -21 10 -21 6 0 10 6 10 14 0 8 -4 18 -10 21 -5 3
-10 -3 -10 -14z"/>
<path d="M2230 2972 c0 -5 9 -17 20 -27 18 -17 19 -20 5 -28 -9 -5 -30 -4 -51
3 -46 15 -62 2 -48 -37 8 -24 15 -28 49 -28 36 0 40 -3 45 -30 3 -18 11 -30
20 -30 12 0 15 16 15 84 1 78 0 84 -23 92 -29 11 -32 11 -32 1z"/>
<path d="M517 2964 c-13 -13 -7 -78 9 -109 9 -16 16 -45 16 -62 0 -21 5 -33
13 -33 21 0 27 17 11 33 -10 10 -16 41 -18 93 -3 71 -13 96 -31 78z"/>
<path d="M1930 2933 c0 -28 3 -34 10 -23 13 20 13 47 0 55 -6 4 -10 -9 -10
-32z"/>
<path d="M1355 2900 c-8 -14 40 -34 61 -26 10 4 14 10 8 15 -15 14 -62 22 -69
11z"/>
<path d="M2120 2836 c0 -14 24 -66 30 -66 21 0 18 21 -5 44 -14 14 -25 24 -25
22z"/>
<path d="M2205 2818 c-8 -32 -4 -58 10 -61 14 -3 18 49 6 70 -8 16 -10 15 -16
-9z"/>
<path d="M1218 2813 c7 -3 16 -2 19 1 4 3 -2 6 -13 5 -11 0 -14 -3 -6 -6z"/>
<path d="M340 2758 c0 -7 4 -19 9 -27 11 -17 25 3 17 24 -7 18 -26 20 -26 3z"/>
<path d="M841 2754 c0 -11 3 -14 6 -6 3 7 2 16 -1 19 -3 4 -6 -2 -5 -13z"/>
<path d="M6296 2745 c-9 -25 -7 -63 3 -70 14 -8 26 64 14 76 -7 7 -12 5 -17
-6z"/>
<path d="M566 2683 c-13 -27 -13 -33 0 -59 8 -16 20 -32 26 -35 7 -4 8 -14 2
-25 -5 -11 -9 -41 -9 -69 0 -27 -4 -59 -8 -70 -7 -21 7 -54 19 -43 6 6 12 75
14 158 2 46 -12 155 -20 164 -5 4 -15 -5 -24 -21z"/>
<path d="M822 2670 c-6 -22 -12 -47 -12 -55 0 -24 20 -17 30 10 5 14 17 28 25
31 20 8 19 40 -1 48 -26 10 -29 8 -42 -34z"/>
<path d="M1701 2618 c-1 -27 4 -48 9 -48 12 0 12 47 0 75 -6 15 -9 8 -9 -27z"/>
<path d="M1366 2618 c-8 -12 -12 -26 -8 -32 7 -12 9 -18 11 -41 1 -11 13 -15
41 -15 38 0 40 2 40 29 0 16 -4 41 -10 55 -12 33 -53 35 -74 4z"/>
<path d="M1497 2583 c-3 -26 -2 -66 2 -88 7 -34 9 -37 17 -20 12 26 10 133 -3
146 -7 7 -12 -6 -16 -38z"/>
<path d="M6282 2600 c0 -14 2 -19 5 -12 2 6 2 18 0 25 -3 6 -5 1 -5 -13z"/>
<path d="M1815 2600 c-13 -20 -18 -110 -6 -110 6 0 11 7 11 15 0 22 9 19 32
-10 27 -34 48 -32 48 4 0 16 2 36 5 44 12 30 -73 85 -90 57z"/>
<path d="M844 2575 c-4 -8 -3 -31 0 -50 6 -31 11 -35 36 -35 27 0 30 3 30 31
0 17 -5 39 -10 50 -13 23 -48 25 -56 4z"/>
<path d="M2172 2537 c-18 -63 6 -111 37 -74 13 17 1 99 -16 104 -6 2 -16 -11
-21 -30z"/>
<path d="M1702 2530 c0 -19 2 -27 5 -17 2 9 2 25 0 35 -3 9 -5 1 -5 -18z"/>
<path d="M6237 2480 c-16 -47 -32 -89 -37 -95 -4 -5 -24 -59 -44 -120 -21 -60
-41 -118 -47 -127 -5 -10 -9 -24 -9 -32 0 -7 -16 -40 -35 -72 -19 -32 -35 -63
-35 -70 0 -14 -87 -186 -116 -230 -10 -16 -23 -36 -29 -45 -29 -47 -70 -105
-80 -115 -6 -6 -30 -41 -53 -76 -23 -36 -53 -70 -66 -76 -14 -6 -27 -23 -30
-39 -4 -15 -29 -53 -57 -83 -27 -30 -54 -64 -60 -75 -13 -23 118 112 141 146
8 12 22 29 30 38 59 63 163 212 200 288 17 34 35 65 40 68 5 3 27 43 49 88 22
45 49 98 59 117 11 19 24 46 30 60 6 14 29 66 52 115 45 98 110 283 110 312 0
11 5 24 11 30 6 6 9 26 7 44 -3 30 -6 24 -31 -51z"/>
<path d="M790 2506 c0 -14 5 -28 10 -31 6 -4 10 7 10 24 0 17 -4 31 -10 31 -5
0 -10 -11 -10 -24z"/>
<path d="M0 1240 l0 -1240 3200 0 3200 0 0 1240 0 1240 -40 0 -40 0 0 -160 0
-160 -40 0 -40 0 0 -120 0 -120 -40 0 -40 0 0 -80 0 -80 -40 0 -40 0 0 -80 0
-80 -40 0 -40 0 0 -40 0 -40 -40 0 -40 0 0 -80 0 -80 -40 0 -40 0 0 -41 0 -41
-40 4 -40 4 0 -83 0 -83 -36 0 c-41 0 -62 20 -65 60 -1 14 -3 18 -5 10 -3 -8
-18 -23 -35 -32 -24 -14 -28 -22 -23 -42 6 -24 5 -25 -26 -13 -31 12 -33 11
-81 -42 -27 -30 -57 -59 -68 -65 -10 -6 -47 -35 -82 -65 -96 -80 -99 -83 -164
-132 -33 -25 -94 -68 -135 -95 -41 -27 -77 -52 -80 -55 -9 -10 -324 -176 -350
-184 -14 -4 -38 -17 -55 -29 -16 -12 -42 -27 -56 -33 -24 -10 -26 -10 -22 7 3
10 0 21 -7 25 -21 13 11 35 51 35 21 0 41 5 44 10 3 5 12 10 19 10 18 0 178
87 210 115 16 13 47 34 70 45 48 24 103 67 95 75 -9 9 -76 -23 -111 -53 -18
-16 -49 -35 -68 -42 -19 -8 -71 -35 -115 -60 -44 -25 -100 -52 -125 -59 -25
-7 -52 -19 -60 -26 -8 -6 -30 -18 -47 -26 -34 -14 -44 -29 -20 -29 7 0 18 5
24 11 17 17 23 -4 10 -31 -12 -25 -27 -34 -107 -68 -76 -32 -216 -73 -350
-102 -30 -6 -76 -18 -103 -27 -49 -15 -95 -21 -357 -48 -166 -17 -542 -15
-690 4 -193 24 -361 53 -425 71 -38 12 -88 26 -110 31 -62 17 -167 51 -200 64
-16 7 -41 16 -55 20 -92 27 -521 246 -670 341 -93 59 -226 162 -301 234 -21
19 -63 58 -95 85 -90 77 -194 192 -194 214 0 7 -5 11 -12 9 -14 -5 -48 22 -48
38 0 7 -7 15 -16 18 -22 8 -26 8 -19 -4 3 -5 1 -10 -4 -10 -6 0 -11 13 -11 28
0 30 -26 62 -51 62 -8 0 -25 -8 -39 -17 -17 -12 -25 -13 -28 -5 -2 7 -21 12
-43 12 l-39 0 0 80 0 80 -40 0 -40 0 0 40 0 40 -40 0 -40 0 0 80 0 80 -40 0
-40 0 0 80 0 80 -40 0 -40 0 0 120 0 120 -40 0 -40 0 0 160 0 160 -40 0 -40 0
0 -1240z m643 69 c-15 -5 -15 -7 -2 -15 9 -5 26 -25 40 -44 13 -19 29 -38 34
-42 6 -4 11 -25 12 -48 l1 -40 -44 0 -45 0 2 73 c2 72 -13 123 -32 112 -5 -4
-9 -4 -9 -1 0 2 -3 11 -6 19 -4 12 0 13 30 3 27 -8 31 -12 19 -17z m1195
-1042 c2 -12 -3 -17 -17 -17 -15 0 -21 6 -21 21 0 25 33 22 38 -4z m89 -59
c-3 -7 -5 -2 -5 12 0 14 2 19 5 13 2 -7 2 -19 0 -25z m128 12 c3 -5 2 -10 -4
-10 -5 0 -13 5 -16 10 -3 6 -2 10 4 10 5 0 13 -4 16 -10z"/>
<path d="M1709 2425 c-2 -88 2 -189 8 -199 13 -21 21 23 12 69 -5 28 -7 73 -3
102 3 30 2 59 -5 70 -8 14 -11 6 -12 -42z"/>
<path d="M1370 2450 c20 -13 60 -13 60 0 0 6 -17 10 -37 10 -28 0 -34 -3 -23
-10z"/>
<path d="M862 2435 c-12 -9 -22 -22 -22 -30 0 -19 38 -29 55 -15 18 15 19 21
2 43 -11 16 -14 16 -35 2z"/>
<path d="M435 2418 c3 -13 9 -34 12 -48 4 -14 15 -38 25 -55 l18 -30 0 26 c0
14 -5 30 -11 36 -17 17 -1 35 20 23 17 -9 31 -5 31 10 0 4 -11 12 -25 18 -14
6 -25 18 -25 27 0 10 -9 15 -26 15 -23 0 -25 -3 -19 -22z"/>
<path d="M520 2332 c0 -6 5 -14 10 -17 6 -4 8 -16 5 -26 -4 -11 0 -30 8 -43 8
-12 17 -33 19 -46 1 -13 9 -25 16 -28 14 -4 12 11 -11 96 -11 40 -47 89 -47
64z"/>
<path d="M582 2320 c-11 -18 -10 -20 8 -20 13 0 20 7 20 20 0 11 -3 20 -8 20
-4 0 -13 -9 -20 -20z"/>
<path d="M1370 2327 c-14 -7 -34 -29 -45 -50 -20 -38 -20 -38 -1 -53 34 -25
49 -18 42 20 -8 43 11 60 56 51 45 -10 58 -22 58 -56 0 -31 16 -47 32 -31 6 6
5 24 -5 53 -11 33 -23 49 -48 61 -40 21 -56 22 -89 5z"/>
<path d="M2092 2324 c1 -9 9 -19 16 -22 9 -3 13 2 10 14 -1 9 -9 19 -16 22 -9
3 -13 -2 -10 -14z"/>
<path d="M1272 2293 c-1 -12 -7 -25 -13 -29 -8 -5 -10 -44 -6 -132 6 -118 10
-142 22 -130 3 3 4 74 2 159 -1 85 -4 144 -5 132z"/>
<path d="M5814 2262 c-23 -26 -47 -58 -54 -72 -30 -55 -240 -329 -257 -334
-21 -6 -1206 -16 -2183 -19 -689 -2 -860 4 -860 29 0 8 -4 14 -10 14 -5 0 -10
-4 -10 -10 0 -5 -11 -12 -24 -16 -40 -10 -45 -54 -8 -69 25 -10 158 -14 442
-13 805 3 982 2 986 -4 2 -3 23 -4 46 -1 29 4 39 3 34 -5 -4 -7 -1 -12 8 -12
9 0 16 5 16 11 0 6 10 9 23 7 12 -2 21 -9 19 -16 -1 -6 2 -12 8 -12 5 0 10 6
10 14 0 20 23 26 96 26 54 0 74 -5 113 -27 2 -2 -2 -9 -9 -18 -15 -18 -13 -18
85 -1 40 7 64 15 57 20 -6 4 -12 11 -12 17 0 12 37 12 45 -1 3 -5 1 -10 -4
-10 -6 0 -11 -4 -11 -10 0 -5 9 -10 20 -10 11 0 20 7 20 15 0 9 9 15 21 15 18
0 19 -3 9 -15 -10 -12 -7 -19 17 -41 44 -40 63 -48 63 -26 0 10 -10 24 -22 30
-22 11 -21 12 9 10 22 -2 37 4 50 19 16 20 30 23 145 27 108 4 127 2 132 -11
6 -13 9 -14 29 0 19 13 26 13 42 1 16 -12 23 -11 52 7 24 15 37 18 46 11 8 -7
18 -7 27 -2 23 15 103 11 124 -5 17 -13 22 -13 37 1 13 12 27 14 46 9 15 -4
42 -7 58 -8 17 -1 35 -5 42 -10 7 -4 26 1 45 13 29 18 35 18 55 4 21 -13 26
-13 53 1 40 20 67 21 50 0 -7 -8 -18 -15 -24 -15 -8 0 -11 -11 -8 -30 3 -23
-3 -37 -32 -67 -36 -38 -44 -53 -28 -53 18 0 122 125 180 217 27 42 31 55 23
72 -7 13 -8 22 -1 26 5 3 10 0 10 -7 0 -7 12 0 26 16 16 18 24 36 20 48 -7 29
3 48 28 48 16 0 18 2 7 9 -16 11 -12 19 40 76 16 17 35 47 44 68 8 20 20 37
26 37 5 0 9 6 7 13 -1 6 3 22 10 34 23 41 -4 32 -44 -15z"/>
<path d="M1544 2183 c5 -114 17 -158 31 -113 13 40 -9 230 -26 230 -5 0 -7
-48 -5 -117z"/>
<path d="M490 2268 c0 -7 5 -20 10 -28 8 -12 10 -9 10 13 0 15 -4 27 -10 27
-5 0 -10 -6 -10 -12z"/>
<path d="M916 2264 c-7 -19 2 -37 15 -29 12 8 12 45 0 45 -5 0 -12 -7 -15 -16z"/>
<path d="M2655 2244 c-36 -43 -49 -64 -38 -64 10 1 77 89 71 95 -2 2 -17 -12
-33 -31z"/>
<path d="M1406 2241 c-3 -5 1 -14 10 -21 11 -10 18 -10 27 -1 9 9 9 14 -3 21
-19 12 -27 12 -34 1z"/>
<path d="M3238 2229 c-23 -17 -28 -29 -28 -61 0 -44 12 -59 68 -84 53 -24 38
-54 -28 -54 -19 0 -33 -7 -40 -21 -17 -31 2 -46 70 -54 51 -6 62 -4 88 15 74
55 58 117 -38 154 -8 3 -25 13 -37 22 -22 16 -23 15 -23 -5 0 -11 -4 -21 -10
-21 -12 0 -13 20 -2 36 4 7 30 12 58 11 59 0 74 7 74 33 0 51 -98 70 -152 29z
m103 -232 c-13 -13 -26 -3 -16 12 3 6 11 8 17 5 6 -4 6 -10 -1 -17z"/>
<path d="M3523 2235 c-19 -13 -20 -24 -20 -122 0 -109 8 -153 27 -153 6 0 9
36 8 100 -1 58 2 104 8 110 6 6 38 11 73 12 72 2 89 19 52 50 -29 22 -117 25
-148 3z"/>
<path d="M3775 2230 c-9 -14 2 -28 36 -45 22 -12 29 -23 29 -45 0 -16 6 -33
13 -37 20 -12 40 -69 32 -92 -7 -24 10 -61 28 -61 17 0 77 62 77 80 0 8 7 24
15 34 8 11 15 27 15 35 0 8 9 33 20 56 26 53 18 75 -25 75 -37 0 -58 -22 -90
-98 l-19 -42 -23 62 c-12 35 -30 68 -39 75 -21 15 -60 17 -69 3z m245 -69 c0
-11 -11 -33 -25 -49 -14 -17 -25 -35 -25 -41 0 -6 -4 -11 -10 -11 -10 0 -1 29
19 67 5 10 12 26 15 36 7 23 26 22 26 -2z"/>
<path d="M4908 2217 c-11 -12 -26 -38 -33 -57 -7 -19 -23 -61 -35 -92 -26 -71
-24 -110 7 -114 14 -3 26 3 33 15 5 11 19 23 30 26 18 6 18 8 5 21 -20 21 -20
48 1 40 9 -3 18 -6 20 -6 2 0 4 -6 4 -14 0 -16 32 -26 60 -19 14 4 20 14 20
35 0 28 -2 29 -34 23 l-34 -7 0 47 c1 30 6 49 15 52 17 7 24 1 27 -24 2 -10
14 -23 27 -30 25 -13 36 -38 38 -86 1 -16 -3 -26 -9 -22 -14 9 -12 -19 2 -33
16 -16 57 -15 64 1 7 20 -73 240 -93 255 -29 21 -92 15 -115 -11z m3 -130 c-8
-8 -11 -7 -11 4 0 20 13 34 18 19 3 -7 -1 -17 -7 -23z"/>
<path d="M1821 2209 c-13 -14 -19 -29 -15 -39 4 -8 9 -41 12 -73 3 -46 9 -61
30 -77 29 -24 52 -26 52 -5 0 8 -9 15 -20 15 -10 0 -24 8 -29 18 -12 23 -12
121 0 145 17 31 -5 43 -30 16z"/>
<path d="M4356 2217 c-16 -12 -18 -29 -18 -127 1 -62 5 -117 9 -121 5 -5 40
-11 78 -15 56 -5 73 -3 83 9 19 22 5 44 -39 61 l-39 16 0 79 c0 101 -25 134
-74 98z m29 -66 c3 -5 1 -12 -5 -16 -5 -3 -10 1 -10 9 0 18 6 21 15 7z"/>
<path d="M4589 2209 c-7 -14 -10 -60 -7 -126 3 -89 6 -107 23 -119 19 -14 119
-19 149 -8 39 15 -1 74 -50 74 -26 0 -30 13 -33 105 -1 38 -7 75 -13 82 -17
20 -56 15 -69 -8z"/>
<path d="M4146 2208 c-13 -42 -15 -73 -6 -148 5 -46 14 -88 20 -94 8 -8 11 -4
9 14 -1 14 -1 38 -1 53 3 42 26 28 32 -18 3 -21 11 -40 18 -43 9 -3 12 19 11
90 -2 135 -7 152 -47 156 -20 2 -34 -2 -36 -10z m44 -74 c0 -14 -4 -23 -9 -20
-5 3 -7 15 -4 26 7 28 13 25 13 -6z"/>
<path d="M827 2193 c-4 -3 -7 -18 -7 -32 0 -20 2 -23 10 -11 15 24 25 4 29
-58 1 -8 11 -12 29 -10 23 3 27 8 28 38 2 39 -12 63 -32 56 -7 -3 -18 2 -24
10 -14 15 -23 18 -33 7z"/>
<path d="M1492 2178 c-16 -16 -15 -35 3 -42 11 -4 15 2 15 24 0 34 -1 35 -18
18z"/>
<path d="M1312 2153 c2 -22 8 -28 28 -28 20 0 26 6 28 28 3 24 0 27 -28 27
-28 0 -31 -3 -28 -27z"/>
<path d="M1403 2173 c-21 -8 -15 -31 12 -49 14 -9 25 -20 25 -25 0 -5 -11 -14
-25 -19 -14 -5 -25 -14 -25 -19 0 -9 58 -36 65 -30 2 2 1 32 -2 67 -6 63 -21
85 -50 75z"/>
<path d="M1715 2169 c-10 -28 0 -288 12 -300 9 -9 10 26 7 147 -5 155 -8 181
-19 153z"/>
<path d="M1877 2166 c-7 -17 17 -81 32 -90 16 -10 21 9 13 55 -8 45 -34 65
-45 35z"/>
<path d="M3564 2118 c8 -39 7 -38 51 -48 48 -11 65 -4 65 26 0 20 -6 25 -40
30 -22 4 -43 11 -46 15 -3 5 -12 9 -21 9 -12 0 -14 -7 -9 -32z"/>
<path d="M2562 2124 c-12 -8 -22 -19 -22 -25 0 -5 -18 -28 -40 -50 -22 -23
-40 -46 -40 -53 0 -6 -7 -23 -14 -38 -8 -16 -12 -28 -8 -28 10 0 42 38 42 50
0 6 4 10 8 10 4 0 15 13 25 29 10 16 33 46 52 65 48 50 46 75 -3 40z"/>
<path d="M800 2106 c0 -14 5 -28 10 -31 6 -3 10 5 10 19 0 14 -4 28 -10 31 -6
3 -10 -5 -10 -19z"/>
<path d="M1310 2076 c0 -23 16 -36 46 -36 22 0 17 27 -8 44 -31 22 -38 20 -38
-8z"/>
<path d="M1480 2066 c0 -9 7 -16 16 -16 17 0 14 22 -4 28 -7 2 -12 -3 -12 -12z"/>
<path d="M3830 2075 c0 -5 5 -17 10 -25 5 -8 10 -10 10 -5 0 6 -5 17 -10 25
-5 8 -10 11 -10 5z"/>
<path d="M3573 2028 c-7 -12 -5 -59 3 -67 2 -2 33 -5 69 -7 l66 -3 -3 32 c-3
29 -6 31 -46 34 -24 1 -51 7 -62 13 -13 7 -21 7 -27 -2z"/>
<path d="M860 2004 c0 -12 6 -15 23 -10 12 3 29 6 37 6 13 0 13 1 0 10 -24 16
-60 12 -60 -6z"/>
<path d="M1302 1978 c6 -16 172 -37 186 -23 2 2 2 11 -1 20 -8 20 -191 23
-185 3z"/>
<path d="M640 1966 c0 -8 5 -18 10 -21 6 -3 10 1 10 9 0 8 -4 18 -10 21 -5 3
-10 -1 -10 -9z"/>
<path d="M1102 1920 c0 -19 2 -27 5 -17 2 9 2 25 0 35 -3 9 -5 1 -5 -18z"/>
<path d="M1350 1751 c0 -68 1 -71 38 -105 35 -34 37 -34 40 -14 3 14 -6 29
-27 45 -28 22 -31 29 -31 84 0 33 -4 59 -10 59 -6 0 -10 -30 -10 -69z"/>
<path d="M1400 1780 c0 -28 5 -43 16 -47 25 -9 37 12 30 51 -5 27 -12 36 -26
36 -17 0 -20 -7 -20 -40z"/>
<path d="M801 1795 c0 -24 26 -61 36 -51 4 4 2 10 -4 14 -7 4 -16 19 -22 32
-8 21 -10 22 -10 5z"/>
<path d="M1480 1756 c0 -14 5 -28 10 -31 6 -3 10 5 10 19 0 14 -4 28 -10 31
-6 3 -10 -5 -10 -19z"/>
<path d="M3543 1745 c-3 -9 -3 -18 -1 -21 9 -9 38 8 38 22 0 19 -29 18 -37 -1z"/>
<path d="M3738 1753 c-22 -6 -23 -19 -3 -27 21 -8 45 3 45 20 0 14 -10 16 -42
7z"/>
<path d="M650 1740 c0 -5 5 -10 11 -10 5 0 7 5 4 10 -3 6 -8 10 -11 10 -2 0
-4 -4 -4 -10z"/>
<path d="M845 1740 c-7 -12 2 -30 16 -30 5 0 9 9 9 20 0 21 -15 27 -25 10z"/>
<path d="M1103 1685 c0 -27 2 -38 4 -22 2 15 2 37 0 50 -2 12 -4 0 -4 -28z"/>
<path d="M4016 1649 c12 -20 27 -53 34 -75 7 -21 17 -45 23 -51 6 -9 6 -13 -2
-13 -8 0 -10 -16 -7 -52 9 -93 -21 -171 -117 -303 -124 -171 -124 -171 -207
-198 -93 -31 -140 -40 -140 -26 0 5 11 27 25 47 14 20 25 41 25 47 0 6 -3 6
-8 -1 -12 -17 -82 -67 -82 -58 0 4 -5 3 -11 -3 -15 -15 -3 -59 18 -68 45 -19
138 -33 160 -24 14 5 36 9 51 9 26 0 97 48 115 78 17 26 65 71 71 65 3 -4 6 5
6 18 0 14 9 35 20 47 11 12 20 27 20 33 0 7 11 27 25 45 14 18 25 36 25 39 0
4 11 20 24 35 13 16 27 49 31 76 10 67 81 132 131 120 24 -6 26 -10 19 -44 -4
-20 -14 -44 -23 -53 -10 -8 -26 -33 -37 -54 -27 -52 -30 -56 -104 -136 -66
-70 -105 -133 -97 -156 3 -7 1 -13 -4 -13 -6 0 -10 -13 -10 -30 0 -23 7 -33
32 -46 36 -19 268 -46 282 -33 5 4 29 5 54 2 35 -5 43 -3 37 6 -5 9 1 12 21
10 51 -4 81 11 123 61 23 27 41 53 41 59 0 5 6 14 14 18 18 11 38 51 31 63
-13 21 -39 8 -87 -44 -71 -77 -98 -86 -278 -86 -82 0 -161 -5 -176 -10 -35
-14 -41 -7 -20 24 23 37 20 49 -9 30 -14 -9 -28 -15 -30 -12 -4 3 13 26 90
120 7 9 19 26 25 38 6 12 18 29 26 38 39 46 63 75 104 131 25 33 51 60 58 61
7 0 20 16 28 37 19 43 8 70 -36 96 -39 23 -67 21 -119 -8 -23 -14 -45 -25 -48
-25 -3 0 -2 36 2 79 6 73 5 80 -13 90 -22 11 -34 2 -38 -27 -4 -25 -10 -23
-60 20 l-48 43 20 -36z m84 -70 c0 -14 -17 -10 -23 5 -4 10 -1 13 9 9 7 -3 14
-9 14 -14z"/>
<path d="M3530 1658 c-6 -7 -25 -34 -43 -60 -18 -26 -49 -65 -70 -87 -20 -22
-37 -47 -37 -56 0 -8 -4 -15 -9 -15 -5 0 -8 48 -8 108 2 104 1 107 -20 110
-19 3 -23 -2 -24 -25 -4 -72 -6 -83 -22 -101 -21 -23 -22 -39 -2 -22 13 11 15
6 15 -34 0 -53 23 -106 46 -106 9 0 29 9 44 20 16 11 35 18 43 15 8 -4 26 -42
41 -86 29 -86 90 -185 119 -195 22 -7 16 -30 -7 -26 -11 2 -16 -4 -16 -23 0
-14 -7 -36 -16 -49 -10 -16 -12 -26 -5 -31 6 -3 11 -3 11 2 0 14 75 93 88 93
7 0 11 -4 7 -9 -3 -5 -1 -12 5 -16 10 -6 14 7 11 33 -1 8 4 20 11 29 10 13 8
18 -12 34 -90 67 -110 88 -135 143 -24 52 -27 68 -22 126 3 36 11 78 18 93 17
38 3 46 -27 14 -14 -15 -27 -27 -30 -27 -7 0 23 55 38 72 26 26 49 69 43 78
-8 14 -22 12 -35 -2z"/>
<path d="M4539 1619 c15 -24 18 -44 15 -88 -6 -67 -24 -141 -34 -141 -4 0 -7
-11 -7 -23 0 -21 -64 -121 -106 -169 -8 -9 -18 -25 -21 -35 -6 -18 -1 -19 86
-17 51 1 99 3 107 3 22 1 7 11 -25 17 -36 7 -38 9 -22 25 7 8 14 31 14 52 1
22 11 51 23 68 12 16 20 33 17 38 -3 4 2 18 11 31 22 32 28 89 10 104 -19 15
-29 73 -17 96 8 15 4 23 -21 44 -41 35 -53 33 -30 -5z"/>
<path d="M5390 1581 c0 -12 5 -21 10 -21 6 0 10 6 10 14 0 8 -4 18 -10 21 -5
3 -10 -3 -10 -14z"/>
<path d="M951 1583 c0 -5 13 -18 30 -31 25 -20 28 -21 22 -5 -3 10 -10 24 -16
31 -10 13 -37 17 -36 5z"/>
<path d="M508 1521 c3 -30 9 -41 25 -45 26 -7 28 -5 20 22 -3 12 -12 22 -19
22 -8 0 -14 9 -14 20 0 11 -3 20 -8 20 -4 0 -6 -18 -4 -39z"/>
<path d="M1347 1533 c-17 -88 -17 -141 -2 -181 18 -44 27 -51 65 -47 14 1 38
3 53 4 48 2 21 17 -35 20 -29 1 -55 5 -58 7 -3 3 -5 52 -5 109 0 103 -8 142
-18 88z"/>
<path d="M3753 1520 c-61 -27 -89 -91 -63 -141 24 -43 108 -63 146 -34 10 8
26 15 35 15 31 0 39 62 15 108 -32 62 -74 79 -133 52z m57 -138 c-1 -13 -27
-42 -39 -42 -14 0 -32 45 -25 64 5 12 10 12 35 -1 16 -8 29 -18 29 -21z"/>
<path d="M5344 1525 c-4 -11 -12 -23 -18 -27 -8 -5 -8 -10 0 -18 15 -15 46 31
34 51 -7 11 -10 9 -16 -6z"/>
<path d="M2155 1519 c-10 -16 4 -59 19 -59 15 0 30 45 21 60 -8 13 -32 13 -40
-1z"/>
<path d="M1806 1511 c-12 -19 9 -151 23 -151 12 0 6 139 -6 151 -8 8 -13 7
-17 0z"/>
<path d="M1876 1505 c-20 -20 -20 -28 0 -66 20 -40 38 -32 42 18 4 49 -17 73
-42 48z"/>
<path d="M1395 1489 c-4 -12 -4 -41 0 -66 5 -34 10 -43 22 -39 8 3 26 6 39 6
22 0 24 4 24 44 0 50 -19 76 -55 76 -15 0 -26 -7 -30 -21z"/>
<path d="M5683 1475 c0 -22 2 -30 4 -17 2 12 2 30 0 40 -3 9 -5 -1 -4 -23z"/>
<path d="M1098 1468 c-3 -7 -1 -24 3 -38 6 -22 7 -20 8 13 1 38 -3 47 -11 25z"/>
<path d="M1520 1431 c0 -28 5 -53 10 -56 6 -4 10 15 10 49 0 31 -4 56 -10 56
-5 0 -10 -22 -10 -49z"/>
<path d="M5237 1410 c-66 -69 -75 -80 -59 -80 13 0 142 127 142 139 0 21 -16
10 -83 -59z"/>
<path d="M630 1450 c0 -6 20 -32 44 -58 25 -27 50 -60 55 -75 6 -15 31 -41 56
-59 25 -18 45 -35 45 -39 0 -12 92 -104 125 -124 l30 -19 -20 24 c-11 14 -52
59 -92 100 -89 93 -112 119 -171 197 -43 58 -72 78 -72 53z"/>
<path d="M580 1420 c0 -5 5 -10 10 -10 6 0 10 5 10 10 0 6 -4 10 -10 10 -5 0
-10 -4 -10 -10z"/>
<path d="M2047 1413 c-10 -10 -8 -101 2 -107 12 -8 21 18 21 57 0 35 -12 61
-23 50z"/>
<path d="M2100 1395 c0 -8 5 -15 10 -15 6 0 10 7 10 15 0 8 -4 15 -10 15 -5 0
-10 -7 -10 -15z"/>
<path d="M2105 1310 c-3 -5 -1 -10 4 -10 6 0 11 5 11 10 0 6 -2 10 -4 10 -3 0
-8 -4 -11 -10z"/>
<path d="M2062 1255 c0 -16 2 -22 5 -12 2 9 2 23 0 30 -3 6 -5 -1 -5 -18z"/>
<path d="M5067 1254 c-4 -4 -7 -17 -7 -28 0 -19 1 -19 17 -3 12 11 14 20 7 27
-6 6 -13 7 -17 4z"/>
<path d="M1117 1172 c-3 -4 3 -13 14 -20 10 -7 19 -8 19 -3 0 13 -28 33 -33
23z"/>
<path d="M5383 1074 c-32 -31 -69 -66 -83 -78 -41 -34 -47 -52 -9 -26 36 25
159 144 159 154 0 12 -9 5 -67 -50z"/>
<path d="M4858 1063 c7 -3 16 -2 19 1 4 3 -2 6 -13 5 -11 0 -14 -3 -6 -6z"/>
<path d="M4770 1015 c-7 -8 -18 -15 -25 -15 -7 0 -16 -7 -19 -16 -4 -11 -13
-14 -31 -10 -17 4 -25 2 -25 -6 0 -7 -12 -23 -27 -36 l-28 -24 25 4 c13 1 30
13 36 25 6 13 13 20 17 17 6 -6 53 22 80 49 10 10 17 21 14 23 -2 2 -10 -2
-17 -11z"/>
<path d="M1386 988 c26 -45 37 -57 47 -51 6 4 5 10 -5 17 -8 6 -17 19 -21 29
-3 9 -11 17 -17 17 -6 0 -8 -6 -4 -12z"/>
<path d="M1158 920 c12 -11 25 -20 31 -20 5 0 11 -4 13 -8 3 -10 104 -82 113
-82 9 0 152 -98 187 -128 42 -36 128 -86 128 -74 0 22 -276 222 -306 222 -8 0
-14 4 -14 8 0 5 -24 21 -52 37 -29 15 -65 36 -80 47 -35 24 -47 23 -20 -2z"/>
<path d="M1585 901 c-3 -6 0 -21 6 -33 7 -13 12 -24 11 -25 -9 -13 2 -33 18
-33 23 0 26 10 8 28 -9 9 -9 12 0 12 7 0 12 -4 12 -9 0 -5 9 -11 21 -14 11 -3
23 -15 26 -26 3 -12 13 -21 23 -21 10 0 23 -7 30 -15 7 -8 17 -15 22 -15 6 0
27 -13 48 -30 21 -16 43 -30 48 -30 6 0 15 -6 19 -14 4 -8 17 -15 27 -17 12
-3 23 -16 28 -37 10 -36 22 -39 80 -18 36 13 38 12 69 -20 29 -30 58 -47 45
-26 -2 4 1 15 8 25 11 14 18 15 45 6 24 -8 38 -24 54 -58 17 -36 28 -47 50
-49 15 -2 27 -8 27 -13 0 -5 7 -9 16 -9 14 0 14 3 4 15 -10 13 -9 15 11 16 13
1 32 1 42 0 9 -1 17 4 17 11 0 7 9 2 20 -12 11 -14 18 -31 15 -37 -2 -7 4 -17
15 -23 23 -12 43 -13 36 -1 -3 5 3 11 14 14 15 4 20 0 20 -14 0 -21 18 -26 25
-6 7 16 199 15 239 -2 27 -11 28 -13 13 -28 -15 -16 -14 -18 21 -30 42 -14
202 -18 202 -4 0 5 -5 11 -12 13 -24 8 5 28 42 28 48 0 61 -15 20 -24 -18 -3
-30 -12 -30 -21 0 -12 13 -15 60 -15 58 0 80 12 40 23 -11 3 -20 11 -20 17 0
18 80 4 95 -16 11 -16 53 -20 158 -16 55 2 58 3 52 24 -6 16 -4 20 8 15 8 -3
23 3 33 14 19 21 54 26 54 6 0 -19 -38 -49 -43 -34 -2 7 -8 9 -12 4 -35 -32
165 -24 258 11 36 14 44 21 35 30 -7 7 -23 13 -37 13 -21 1 -19 3 9 8 37 7 60
-2 60 -26 0 -11 10 -13 48 -7 57 8 58 9 38 29 -21 21 -12 35 23 35 18 0 34 -8
42 -21 14 -20 14 -20 74 11 62 33 80 52 71 75 -2 7 2 16 10 19 25 10 34 7 34
-9 0 -8 -6 -15 -12 -15 -7 0 -18 -11 -25 -25 -10 -23 -9 -25 12 -25 13 0 27 5
30 10 3 6 14 10 25 10 10 0 20 7 24 15 3 8 13 15 23 15 28 0 93 25 115 44 11
10 27 14 39 11 12 -4 21 -1 25 9 3 9 15 16 25 16 27 0 124 45 147 68 11 11 34
23 51 27 17 3 34 11 37 16 7 11 55 33 67 31 12 -3 8 8 -13 30 -19 21 -19 21 5
40 43 34 27 40 -27 11 -29 -15 -55 -30 -58 -34 -3 -3 -14 -9 -25 -13 -14 -6
-16 -10 -7 -13 8 -3 19 0 25 6 13 13 37 15 37 3 0 -9 -21 -20 -77 -44 -18 -7
-33 -16 -33 -20 0 -5 -7 -8 -15 -8 -17 0 -20 -16 -5 -25 6 -4 8 -11 5 -16 -4
-5 -15 -3 -28 6 -19 13 -23 13 -38 -1 -10 -9 -23 -13 -30 -9 -13 9 24 34 51
35 8 0 26 12 39 25 13 14 29 25 37 25 8 0 14 5 14 10 0 12 -13 13 -26 2 -5 -5
-29 -17 -53 -26 -25 -10 -56 -25 -70 -35 -14 -9 -44 -23 -66 -30 -22 -8 -58
-22 -79 -32 -22 -11 -48 -19 -58 -19 -10 0 -18 -4 -18 -9 0 -5 -15 -11 -32
-14 -18 -2 -59 -14 -90 -26 -75 -28 -239 -71 -308 -82 -30 -4 -71 -11 -90 -14
-297 -53 -646 -55 -965 -5 -33 5 -87 13 -120 19 -33 5 -80 16 -105 25 -25 9
-53 16 -63 16 -9 0 -25 4 -35 9 -9 5 -42 17 -72 26 -30 9 -64 19 -75 24 -72
30 -96 33 -115 16 -19 -17 -34 -7 -25 18 4 10 -22 27 -99 61 -93 41 -255 125
-281 146 -5 4 -27 17 -48 29 -21 12 -49 28 -62 37 -15 10 -25 11 -30 5z m2758
-268 c-12 -2 -27 -11 -33 -19 -14 -16 -30 -19 -30 -4 0 6 7 10 15 10 8 0 15 5
15 10 0 6 12 9 28 9 22 -1 23 -2 5 -6z m-103 -41 c0 -11 -46 -32 -68 -31 -13
0 -12 3 6 11 12 6 22 15 22 20 0 4 9 8 20 8 11 0 20 -4 20 -8z m-1640 -132 c0
-5 -11 -10 -25 -10 -14 0 -25 5 -25 10 0 6 11 10 25 10 14 0 25 -4 25 -10z
m1245 -10 c3 -5 1 -10 -4 -10 -6 0 -11 5 -11 10 0 6 2 10 4 10 3 0 8 -4 11
-10z m-920 -41 c17 0 37 -4 45 -9 13 -8 12 -11 -5 -24 -25 -19 -31 -19 -47 -2
-8 9 -26 12 -50 8 -29 -3 -38 -1 -38 10 0 23 13 30 40 23 14 -4 39 -6 55 -6z
m673 -14 c-13 -29 -23 -32 -32 -9 -10 27 -7 34 19 34 23 0 24 -2 13 -25z
m-196 -10 c2 -6 -28 -11 -69 -13 -55 -2 -73 0 -73 10 0 16 138 19 142 3z"/>
<path d="M4560 895 c-9 -11 -17 -12 -23 -6 -6 6 -21 -2 -43 -24 -18 -19 -46
-37 -61 -41 -15 -4 -35 -12 -43 -19 -8 -6 -24 -16 -35 -20 -18 -7 -18 -9 -3
-12 10 -3 32 3 50 11 17 9 37 16 44 16 7 0 14 3 16 8 2 4 34 24 73 44 38 20
71 42 73 47 6 17 -34 13 -48 -4z"/>
<path d="M5041 790 c-55 -37 -72 -52 -68 -57 6 -5 48 18 87 49 48 38 34 43
-19 8z"/>
<path d="M1610 794 c0 -16 107 -80 117 -70 8 8 -7 26 -23 26 -8 0 -14 4 -14 8
0 9 -54 42 -69 42 -6 0 -11 -3 -11 -6z"/>
<path d="M4200 720 c0 -5 -8 -10 -17 -10 -22 0 -50 -17 -42 -25 7 -6 99 31 99
40 0 3 -9 5 -20 5 -11 0 -20 -4 -20 -10z"/>
<path d="M1780 696 c0 -9 7 -16 16 -16 9 0 14 5 12 12 -6 18 -28 21 -28 4z"/>
<path d="M2000 570 c0 -5 11 -10 25 -10 14 0 25 5 25 10 0 6 -11 10 -25 10
-14 0 -25 -4 -25 -10z"/>
<path d="M2160 532 c0 -10 45 -32 63 -32 17 1 -32 40 -49 40 -8 0 -14 -4 -14
-8z"/>
<path d="M2005 420 c3 -5 13 -10 21 -10 8 0 12 5 9 10 -3 6 -13 10 -21 10 -8
0 -12 -4 -9 -10z"/>
<path d="M2615 410 c-19 -7 -18 -8 7 -18 37 -15 157 -26 139 -14 -8 6 -20 8
-27 5 -7 -2 -17 5 -24 16 -11 22 -56 27 -95 11z"/>
<path d="M4270 380 c-9 -6 -10 -10 -3 -10 6 0 15 5 18 10 8 12 4 12 -15 0z"/>
<path d="M4220 360 c-23 -7 -23 -8 -3 -9 12 -1 25 4 28 9 3 6 5 10 3 9 -2 -1
-14 -5 -28 -9z"/>
<path d="M4145 343 c-11 -3 -24 -9 -29 -14 -6 -5 -22 -9 -37 -9 -15 0 -31 -5
-35 -11 -5 -8 2 -10 22 -6 45 9 104 31 104 39 0 5 -1 7 -2 7 -2 -1 -12 -3 -23
-6z"/>
<path d="M2402 295 c10 -11 68 -23 68 -15 0 4 -7 11 -16 14 -19 7 -59 8 -52 1z"/>
<path d="M3682 246 l-44 -23 33 -7 c33 -6 129 20 129 35 0 8 -37 19 -60 18 -8
0 -35 -11 -58 -23z"/>
</g>
</svg>
