<svg xmlns="http://www.w3.org/2000/svg" width="280" height="280" version="1.0" viewBox="0 0 640 640"><path d="M0 124v124h8v-32h4c4.6 0 4.2 1.3 4-14.3l-.1-9.7H24v-16h8v-16h8v-8h8v-16h8v-8h8v-16h8v-8h8v-8h8v-8h8v-8h8v-8h8v-8h16v-8h8v-8h16v-8h8v-8h16v-8h16v-8h24V8h32V0H0v124zM392 4v4h32v8h24v8h16v8h16v8h8v8h16v8h8v8h16v8h8v8h8v8h8v8h8v8h8v8h8v16h8v8h8v16h8v8h8v16h8v16h8v24h8v32h8V0H392v4zM306 5c-2.2.7-2.1.8 1.3.9 2 .1 3.7-.4 3.7-.9 0-1.1-1.4-1.1-5 0zM312 5c0 .5.7 1 1.5 1s1.5-.5 1.5-1c0-.6-.7-1-1.5-1s-1.5.4-1.5 1zM326.5 5c-1.4.5-.4.9 3.5 1.3 8.7.9 20 .8 20-.3 0-.6-2.8-1-6.2-1.1-3.5 0-8.3-.2-10.8-.3-2.5-.2-5.4 0-6.5.4zM278 6.4l-3.5 1.3 2.8.7c2.3.5 14.3-1.7 15.6-3 1-1-11.7-.1-14.9 1zM269 8c1.9 1.3 3 1.3 3 0 0-.6-1-1-2.2-1-1.9 0-2 .2-.8 1zM355.5 7.4c5.3 2.1 13 3.7 15.3 3.1 4.3-1.1.6-2.4-8.5-3-4.3-.3-7.3-.3-6.8-.1zM298.5 10c-.3.5-.1 1 .4 1 .6 0 1.1-.5 1.1-1 0-.6-.2-1-.4-1-.3 0-.8.4-1.1 1zM314 10c0 .5.7 1 1.6 1 .8 0 1.2-.5.9-1-.3-.6-1-1-1.6-1-.5 0-.9.4-.9 1zM377.5 10.8c.6.6 3.7 1.5 7 2.1 3.3.7 7.3 1.5 8.9 1.8 2 .4 2.7.2 2.2-.6-.4-.6-1.6-1.1-2.7-1.1s-2.8-.4-3.7-.9c-2.5-1.3-12.9-2.4-11.7-1.3zM248.5 12c-.8 1.3 2.5 1.3 4.5 0 1.2-.8.9-1-1.2-1-1.5 0-3 .4-3.3 1z"/><path d="M239.5 14c-.3.6.5 1 1.9 1s2.8-.5 3.1-1c.3-.6-.5-1-1.9-1s-2.8.4-3.1 1zM229.5 17c-.3.5.3 1 1.4 1 1.2 0 2.1-.5 2.1-1 0-.6-.6-1-1.4-1-.8 0-1.8.4-2.1 1zM310.5 18.4c-1.4 1-2.5 1.1-4.2.3-1.9-.8-2.7-.6-4.6 1-2.4 2.2-4.7 2-4.7-.3 0-1.2-.6-1.2-3.8.1-2 .9-6 1.4-8.7 1.3-4.7-.3-5-.2-4.7 1.9.4 2.7-.8 2.8-7.2 1.1-3.6-1-5-.9-7 .2-2.1 1-2.8 1.1-4.1 0-1.2-1-1.5-1-1.5.4 0 2-3.8 5.9-5 5.1-.6-.4-1-1.5-1-2.6 0-2.7-3.4-2.4-5.4.5-1 1.7-2.2 2.3-3.5 1.9-1.1-.3-3.4.2-5.1 1-1.9 1-4.4 1.4-6.8 1-3.4-.5-3.5-.4-1.8.9 1.4 1.1 1.6 1.7.7 2.2-.6.4-1.8.2-2.6-.4-1.8-1.5-5.1-.5-9.7 3.1-2.6 2-5.3 3.1-9.2 3.5-5 .6-5.6.9-5.6 3 0 1.9-.5 2.4-2.4 2.4-1.3 0-2.6-.5-2.8-1.1-.5-1.5-8 .1-8.5 1.8-.2.6.2 1.1.9 1 .7 0 2.6.1 4.3.1l2.9.2-2.2 1.6c-1.8 1.2-2.6 1.3-3.7.4-1.2-1-1.5-1-1.5.2 0 1.7-5.1 4.8-7.8 4.8-1.2 0-2.4.5-2.7 1-.9 1.5-2.5.2-1.8-1.6.4-1.1 1.4-1.3 3.4-.9 3 .7 3.6-.4 2.3-3.9-.5-1.4-.9-1.3-3.3.5-1.4 1.1-4.1 2.7-5.8 3.4-1.8.8-3.3 1.9-3.3 2.6 0 .6-.6.9-1.4.6-.8-.3-2.2 0-3.2.8-1.6 1.1-1.6 1.5-.4 3 .8.9 2.2 1.4 3.3 1.1 1.8-.4 1.8-.3.6.9-.8.8-2.5 1.6-3.9 1.7-1.9.2-2.6-.2-2.8-2-.4-2.4-2.7-2.5-2.7-.1 0 .8-.8 1.3-1.8 1.3-.9-.1-1.5.2-1.2.6.3.4-.5 1-1.6 1.3-1.7.5-2 1.2-1.7 3.1.6 2.8-2.3 6.3-4.2 5.1-.6-.4-1.8-.1-2.7.6-1.7 1.4-1.9 1.5-6.9 1.7-4.3.3-8.9 3.9-7.3 5.8.9 1.1.7 1.4-1.5 1.4-1.4 0-2.6.5-2.6 1.1 0 .5-.4.7-1 .4-.5-.3-2.3.4-3.9 1.6-2 1.5-2.7 2.7-2.4 4.2.4 1.8.3 1.9-.6.7-1.2-1.7-2.5-.7-3.6 2.8-.6 2.1-.5 2.3 1.3 1.3 1.5-.8 2.3-.7 3.1.3 1.4 1.6.4 2.6-2.5 2.6-1.2 0-3.5.7-5 1.5-2 1-2.3 1.5-1.1 1.5.9 0 1.7.6 1.7 1.3 0 1.6-6.3 8.5-6.6 7.2-.1-.6-.5-2.7-.9-4.9l-.6-3.9-5.2 5.5c-2.9 3-6.3 7-7.7 8.8-1.4 1.8-3.7 4.6-5.3 6.2-1.5 1.6-2.7 3.1-2.7 3.4 0 .3-.6 1.1-1.2 1.8-3 3-11.4 13-12.2 14.5-.5.9-2.8 3.9-5.2 6.7-2.3 2.8-5.3 7.2-6.5 9.7-1.3 2.6-2.6 4.7-3 4.7-.9 0-9.9 16.8-9.9 18.5 0 .7-1.1 2.9-2.5 4.9-1.4 2-2.5 4.5-2.5 5.6 0 1-.4 2.1-.9 2.4-1.2.8-5.1 9.2-5.1 11.1 0 1.3.4 1.4 2.3.4 1.2-.6 3.2-2.3 4.4-3.8l2.2-2.6-.9 3.4c-.5 1.8-1.6 4.4-2.5 5.7-.8 1.3-1.5 3.3-1.5 4.5 0 4.3-5 17.2-7.2 18.5-1.6 1-.2-5.2 2.2-9.9 1.1-2.1 2-4.6 2-5.6 0-2.6-1-5.1-2.1-5.1-.8 0-3.3 7.2-3.4 10 0 .8-.6 2.5-1.3 3.7-.6 1.2-1.2 3.9-1.2 6.1 0 2.2-.6 4.5-1.3 5.1-1.6 1.2-4.1 9-3.3 9.9.3.3.6-.2.6-1.1 0-.9.9-2.1 1.9-2.7 1.1-.5 2.3-1.9 2.6-3 .3-1.1 1.3-2 2.2-2 1.2 0 1.4.8.9 3.7-3 17.6-4.3 27.2-5.8 45.3-2 23.6-1.6 33.7 2.8 72 .1 1.4.3 3.1.3 3.9.1 1.1.6 1 2.1-.4 1.1-1 2.3-1.6 2.6-1.2.3.3 1.6 4.5 2.9 9.4l2.4 8.8-2 2.1c-1.9 2.1-2 2.3-.4 7.2 1.1 3.3 2.3 5.2 3.7 5.5 3.2.9 4.8-.3 4.8-3.3 0-1.6.4-3.2 1-3.5.6-.4 1 1.4 1 4.7 0 5 1.2 7.8 3.2 7.8 1.1 0 1-4.8-.1-8.8-.6-1.8-2.1-4.6-3.5-6.3-2.9-3.4-3.7-9.9-1.2-9.9 2.2 0 2.7-6 1.1-11.4-.8-2.7-1.5-8.7-1.5-13.3 0-8.1-.6-9.7-2.8-7-1.7 2-2.5 11.6-1.4 16.2.9 4.3.6 6.9-.9 5.9-.5-.3-.9-2.7-.9-5.3 0-2.7-.7-8.5-1.5-13-1.2-6-1.3-9.9-.7-15.3.5-4 .5-10.9.2-15.3-.4-4.4-.6-8.3-.4-8.6.6-1.1 18.5-10.9 19.9-10.9.9 0 1.5-1 1.5-2.5 0-2.5-1.4-3.3-2.5-1.5-1.7 2.8-13.2 10.4-16.6 11-6 1.1-4.7-3 2.1-6.5 1.9-1 5.8-3.4 8.5-5.4 2.8-2 6-4.1 7-4.7 2.1-1.2 3.3-5.4 1.6-5.4-.6 0-1.9.7-2.9 1.5-.9.9-4.7 3.8-8.5 6.6-5.6 4.2-7 4.8-8.7 3.9-1.7-.9-1.9-1.7-1.4-5.3.3-2.3.7-4.7.9-5.4.2-.6-.3-1.9-1-3-.8-1-1.5-3.1-1.5-4.7 0-2.5.2-2.7 1.7-1.5 1.5 1.3 1.5 1.2 0-1.7-.9-1.7-1.4-3.4-1.2-3.6.3-.3.6-3.5.7-7.2.1-3.9.7-7.1 1.4-7.7.8-.6 1-2.3.7-4.3-.3-2-.1-3.6.6-4 .6-.4 1.1-1.6 1.1-2.7 0-1 .4-1.9.8-1.9.5 0 1.5-2.6 2.2-5.8.7-3.1 1.6-6.2 1.9-6.7.3-.6.6-1.6.7-2.3.7-4 5.5-16.5 11-28 3.5-7.3 6.4-13.9 6.4-14.6 0-.7.9-2.1 2-3.1s2.2-2.7 2.6-3.8c.4-1.2 3-5.5 5.9-9.7 2.9-4.1 5.8-8.7 6.6-10.2 1.3-2.5 4.5-6.6 17.9-22.7 5.4-6.6 19.5-20.1 20.9-20.1.4 0 .7 1.9.8 4.1.1 2.3.4 4.3.7 4.6 1 1 4.8-1 5.5-2.9.7-2-.7-7.9-2.2-9.4-1.5-1.5-.6-4.3 1.6-4.9 1.2-.4 3.8-2.2 5.7-4 1.9-1.8 9.1-7.4 16-12.4s13.6-9.9 15-10.9c2.5-1.9 31.3-16.4 38-19.1 1.9-.8 7.8-3.4 13-5.7 13.7-6 46.4-14.7 60.1-15.9 1.9-.2 6.3-.8 9.9-1.4 3.6-.6 15.5-1.4 26.6-1.8 27.5-.8 45.9.8 69.9 6.2 3.3.8 7.4 1.7 9 2 17.9 4 59.4 20.7 66.1 26.6 1.1 1.1 2.3 1.9 2.6 1.9.3 0 3.2 1.8 6.5 3.9 3.2 2.2 7 4.2 8.3 4.4 8.5 1.6 11.1 2.8 13.5 6.8 2.5 3.9 2.5 4 1.5 16.6-.8 10.4-1.4 13.3-3.3 16-3.5 5.2-9.1 7.3-19.9 7.3-5.1.1-13.6.2-18.8.3l-9.5.2-.6 5c-1.1 9.2-1.1 9.1-9.1 9.8-5.1.4-7.5.3-8-.6-.5-.7-.7-12.1-.6-25.4l.3-24.1 2.5-2.8 2.5-2.7-3.6.6c-2.1.3-4.1.1-4.8-.6-2-2-2.4.1-2.3 11.5.3 37.5 1.3 47.8 4.5 46.5.7-.3 2.4.1 3.8.9 3.1 1.7 7.4 1.7 12.2 0 3.9-1.3 6.5-4.5 8.4-10.1l1-3 10.4-.1c19-.3 31.6-4 34.9-10.3 1.9-3.9 5.2-15.3 4.9-17.4-.3-1.9 1.3-7.7 2-7.7 3.2 0 14.1 8.1 24.9 18.4 10.2 9.7 29.5 33.3 33 40.2 1.2 2.3 2.8 4.4 3.6 4.7.9.4 2.9 3.3 4.5 6.6s3.8 7.2 4.9 8.8c2.5 3.6 10.5 20.5 14.4 30.3 1.6 4.1 3.7 9.5 4.8 12 3 7.4 5.7 16.9 7.9 28 1.2 5.8 2.9 14.5 4 19.5 2 9.6 3.2 29.1 3.3 52 .1 15.9-1.2 26.1-6.3 51.5-3.3 16.5-3.4 17.2-1.5 18.2 2.1 1.2 2.1 7.1.1 8.8-1.3 1.1-1.9.9-3.6-.8-2.7-3-4.3-2.8-3.5.4.5 1.7 0 3.6-1.4 6-1.8 2.8-2.8 3.4-5.6 3.4-1.9 0-3.4.4-3.4 1 0 .5 2.5 1 5.6 1 5.2 0 5.6-.2 6.5-3 .6-1.7 1.5-3 1.9-3 2.6 0 1.2 9.1-1.9 12.4-1.1 1.2-2.1 3.4-2.1 4.9 0 4.5-19.9 42.2-30.2 57.5-5.2 7.6-10.6 15.2-12 16.8-1.5 1.6-5.9 6.7-9.8 11.4-4 4.7-10.4 11.5-14.4 15.3-4.5 4.3-7.1 7.5-7.1 8.9 0 1.2-.7 2.3-1.5 2.6-1.3.5-1.3.3-.1-1.1 2.2-2.7-.3-1.9-3.8 1.2-2.3 2-2.8 3.1-1.9 3.5.7.3.4.4-.7.1-1.2-.3-3.1.4-4.7 1.8-1.4 1.2-3.6 3-4.8 4-3.8 3.2-17.8 12.7-18.7 12.7-.5 0-1.6.9-2.6 2-.9 1.1-1.3 2-.7 2 .5 0 1.2-.5 1.5-1 .7-1.2 3.5-1.3 3.5-.2 0 .5-1.6 1.6-3.5 2.5-2.9 1.4-3.5 2.2-3.5 4.7 0 2.3.4 3 1.9 3 1.1 0 2.3-.5 2.6-1 .3-.6 4.2-3.3 8.5-6 4.3-2.8 8.1-5.7 8.4-6.5.3-.8 2.2-2.3 4.4-3.4 2.1-1.1 6.2-4.2 9-7 2.9-2.8 5.6-5.1 6.1-5.1 1 0 13.1-11.1 23.1-21.2 6.8-6.8 18.9-21 21.5-25.3 1-1.7 3.1-4.4 4.6-6 1.5-1.7 4.6-6.7 7-11.3 2.3-4.5 4.6-8.2 5.1-8.2.4 0 .8-.5.8-1.1 0-.6 1.8-3.8 4-7s4-6.2 4-6.5c0-.4 3-6.8 6.6-14.3 8.7-17.9 7.7-15.7 13.5-31.6 5.3-14.6 6.7-19.3 9.3-31 4.3-19.7 7.3-55.4 6.1-72.3-.4-5.9-1-15.9-1.4-22.2-1.4-22.4-11.4-61.2-21.1-81.7-2.2-4.6-4-8.5-4-8.8 0-1.2-6.4-14.1-11.4-22.9-3.1-5.4-5.6-10.4-5.6-11.1 0-1.7-2.6-3.8-4.1-3.3-.7.2-2.9-2.9-5-7.2-3.4-6.7-5-8.9-9.8-13.5-.6-.6-4.8-5.5-9.3-11-4.6-5.5-10.1-11.6-12.3-13.6-10.4-9.5-15.6-13.9-16.3-13.9-.4 0-2.7-1.8-5.1-4-2.5-2.2-4.7-4-5.1-4-.4 0-2.6-1.8-5.1-4-4.7-4.2-6.3-4.6-6.5-1.4 0 1-.1 2.8-.3 3.9l-.2 2-1.7-2c-1.9-2.1-4.2-3.7-7.9-5.7-1.3-.6-2.3-1.6-2.3-2.1 0-.6-1.8-2.6-4.1-4.5-2.2-1.9-5.2-5.2-6.5-7.4-1.7-2.6-3.4-4.1-5.5-4.5-1.6-.3-4-1.9-5.3-3.6-2.5-3.2-4.8-3-3.9.3.3 1.2 0 2-.6 2-1.3 0-6.9-6.2-6.1-6.7 1.2-.8-9.6-6-11-5.3-.8.4-3.6 1.1-6.3 1.4-4.7.7-4.7.7-5.3-2.3-.8-4-2.9-5.8-4.9-4.1-1 .9-1.5.9-1.5.1 0-.6-.7-1.1-1.5-1.1-.9 0-2.6-1.1-3.8-2.6-2.1-2.4-7.6-4.3-12.5-4.4-1.4 0-2.6.8-3.1 2.2-.7 2-.8 2-2.2-1.1-1.1-2.4-1.9-3.1-3.4-2.7-1.1.3-2.8-.3-4.1-1.5-1.7-1.6-4-2.2-9.5-2.6-4.1-.2-7.8-.8-8.4-1.3-.5-.4-3.1-1.1-5.8-1.5-4-.6-4.6-.5-4.1.8.6 1.7-.7 2.9-2.1 1.9-.6-.4-1-1.3-1-2.1 0-1.7-11.2-4.3-13.3-3.2-.7.4-4.1.4-7.5 0-7.6-.9-13.6-.6-16.5 1-1.6.9-3.1.8-6.4-.4-5.3-1.8-6-1.8-8.3-.1zm-132.2 39c.3 1.2-3 3.2-3.9 2.4-1.1-1.2.5-4 2.1-3.6.9.2 1.7.7 1.8 1.2zM502 81.5c0 .7.8 1.8 1.7 2.4 1 .5 1.5 1.3 1.1 1.6-.4.4-2.1-.4-3.7-1.8-2-1.6-2.6-2.7-1.8-3 2.1-.9 2.7-.7 2.7.8zm8.5 8.5c.3.5.2 1-.4 1-.5 0-1.3-.5-1.6-1-.3-.6-.2-1 .4-1 .5 0 1.3.4 1.6 1zm7.3 4.5c2 1.4 4.2 2.5 4.9 2.5.7 0 1.9 1.3 2.8 2.9.8 1.6 2.9 3.9 4.6 5.2 1.7 1.2 5.9 5 9.4 8.5s6.8 6.4 7.4 6.4c.6 0 1.1.4 1.1 1 0 .5 1.6 3 3.5 5.6 1.9 2.5 3.5 5 3.5 5.5 0 .6 1.3 2.1 2.9 3.4 1.5 1.4 4.5 5.5 6.4 9.3 2 3.8 4.3 7.5 5.2 8.2 1.5 1.2 4.5 6.6 4.5 8.1 0 .5-.7.6-1.5.3-1.9-.7-17.5-23.9-17.5-25.9 0-.8-.6-1.5-1.3-1.5-1.4 0-2.7-1.4-7.2-7.5-2.4-3.4-8-9.6-12-13.4-4.7-4.5-17.6-16.4-20-18.5-3.8-3.3-1.5-3.4 3.3-.1zM94.6 123.4c1.2 1.3 1.2 1.5-.5 2.1-1.1.3-2.4 1.9-3 3.5-.7 2-1.7 3-3 3-2.8 0-2.6-1 .9-4.8 1.7-1.8 3-3.7 3-4.3 0-1.3.9-1.1 2.6.5zm-13.3 18.1c-.7 2.1-1.3 1.9-1.3-.6 0-1.1.4-1.8 1-1.4.5.3.7 1.2.3 2zm500.1 28.8c1.4 2.1 2.6 4.4 2.6 5.1 0 .7.3 1.6.7 2 1 1 3.3 7.8 3.3 9.9 0 3-1.6 1.1-2.9-3.5-1.7-5.4-3.2-8.9-4.7-10.8-.7-.8-1.5-2.8-1.8-4.4-.6-3.3-.5-3.3 2.8 1.7zM56 180c0 .5-.2 1-.4 1-.3 0-.8-.5-1.1-1-.3-.6-.1-1 .4-1 .6 0 1.1.4 1.1 1zm-3 6.4c0 .2-.7 1.7-1.5 3.2l-1.5 2.9v-2.6c0-1.4.3-2.9.7-3.2.7-.8 2.3-.9 2.3-.3zM37 269c0 3-1.3 4-2.5 2-.8-1.3.4-5 1.6-5 .5 0 .9 1.3.9 3zm-2.2 59.5c.1 6-.7 8-2.3 5.4-.9-1.4.4-11.9 1.4-11.9.5 0 .9 2.9.9 6.5zm1.1 13.9c.2 4.7-.5 5.6-2.7 3.4-1.5-1.5-1.5-4.3 0-6.7 1.7-2.8 2.4-1.9 2.7 3.3zM45 384c0 1.6-.4 3-1 3-1.1 0-1.4-4.3-.3-5.3 1.1-1.2 1.3-.8 1.3 2.3zm451.4 158.5c-1 .7-2.3 1.1-2.8.8-.5-.3.2-1.4 1.5-2.4 1.4-1 2.6-1.4 2.8-.8.1.6-.5 1.6-1.5 2.4zm-7.6 5.8c-.7.8-2.1 1.2-3.2.9-2-.5-2-.5 0-1.3 3.3-1.3 4.7-1.1 3.2.4zM219.8 20.7c.6.2 1.8.2 2.5 0 .6-.3.1-.5-1.3-.5-1.4 0-1.9.2-1.2.5zM419 21c2 1.3 3.3 1.3 2.5 0-.3-.6-1.4-1-2.3-1-1.5 0-1.5.2-.2 1zM205 25c0 .5.4 1 .9 1 .6 0 1.3-.5 1.6-1 .3-.6-.1-1-.9-1-.9 0-1.6.4-1.6 1zM434 26.1c0 1.1 6 4.2 6.7 3.5.3-.3.1-1.2-.6-2-1.3-1.6-6.1-2.8-6.1-1.5zM198.5 27.3c-7.6 3-9.1 5.9-1.6 3.2 4.4-1.5 8.4-4.6 5.9-4.4-.7 0-2.6.6-4.3 1.2zM450.5 33c.3.5 1.2 1 1.8 1 .7 0 2.3.9 3.7 2 1.4 1.1 3.1 2 3.8 2 2.2 0-1-2.6-5.3-4.4-4.4-1.9-4.8-1.9-4-.6zM172.8 39.1c-1.9 1-2.4 2.9-.9 2.9.5 0 1.9-.9 3.2-2 2.6-2.1.9-2.8-2.3-.9z"/><path d="M434.2 39.6c.3 1.7 2.1 2.1 2.6.6.1-.5-.4-1.2-1.3-1.6-1.1-.4-1.5-.1-1.3 1zM463 39c0 1.2 2.8 2.5 3.6 1.7.3-.3-.4-1-1.5-1.7-1.5-.7-2.1-.7-2.1 0zM484.2 50c.6 1.9 4.5 4.3 5.2 3.2.2-.4-.9-1.6-2.6-2.6-2.1-1.3-2.9-1.4-2.6-.6zM486 67c0 .5.4 1 .9 1s1.1.9 1.4 1.9c.5 2 4.7 4.9 4.7 3.3 0-.9-5.7-7.2-6.5-7.2-.3 0-.5.4-.5 1zM510 67.5c0 .2.9.9 2 1.5 1.6.9 1.8.8 1.4-.5-.5-1.3-3.4-2.2-3.4-1zM150.5 69c-.3.5-.2 1 .4 1 .5 0 1.3-.5 1.6-1 .3-.6.2-1-.4-1-.5 0-1.3.4-1.6 1zM141.5 74c-.3.5.1 1 .9 1 .9 0 1.6-.5 1.6-1 0-.6-.4-1-.9-1-.6 0-1.3.4-1.6 1zM381 82.5c-.8.9-2.1 1.3-3.6.9-1.3-.3-4.1-.3-6.2.1l-3.7.8 3.3.9c7.5 2 11 14.8 4.5 16.1-1.5.3-13 .6-25.5.6-12.6.1-23.5.4-24.3.7-1.7.7-4.5 9.3-4.5 14 0 2.6.5 3.3 2.6 3.8 3.6.9 5.9-1.4 6.2-6.1.2-2.1 1-4.3 1.8-5 1.8-1.3 7.6-2.2 19.9-2.9 27.5-1.6 30.5-2.6 30.5-9.7.1-2.3.3-6.8.6-10 .6-6 .4-6.6-1.6-4.2z"/><path d="M301.5 85.2c-1.8 7.5-2.8 13.3-3.5 20.7-.5 4.5-1.4 8.9-1.9 9.5-1.2 1.5-1.9 7.1-2.8 22.3l-.6 11.2 3.4 2.1c4.9 3.1 18.4 2.3 25.8-1.4 6-3.1 17.5-4.4 23.6-2.7 9.1 2.4 12.4 10.4 8.7 21.3-2 6.1-1.7 7.1 1.3 3.8 1-1.1 2.4-2 3.1-2 1.7 0 2.5-2.7 2.5-9.3.2-11.7-9-19.8-22.6-19.9-7.5-.1-12.9 1.4-18.6 5.1-4.1 2.6-5.1 2.8-13.4 2.7l-9-.1-.3-3.1c-.3-2.8 4.6-34 6.7-42.9.6-2.2 1.4-6 2-8.5.5-2.5 1.2-5.2 1.6-6.2.4-1.1 0-1.8-1.4-2.3-1.2-.3-2.1-1.1-2.1-1.6 0-1.9-2-.8-2.5 1.3zM210 87.6c-2.2 1.2-2.3 1.4-.5 1.3 1.1 0 3.1-.6 4.5-1.4 2.2-1.2 2.2-1.4.5-1.4-1.1.1-3.1.7-4.5 1.5zM237 87.2c3.2.8 5.3 1.8 14.3 6.5 1.5.8 5.2 4 8.2 7 6.4 6.5 7.1 6.1 1.8-.9-6-7.8-17-13.9-24.8-13.7l-3 .1 3.5 1zM540 94.2c0 1.6 17.7 18.4 18.5 17.6.6-.5-7.8-9.5-14.2-15.2-2.7-2.4-4.3-3.3-4.3-2.4zM195.5 96c-.3.5-.2 1 .4 1 .5 0 1.3-.5 1.6-1 .3-.6.2-1-.4-1-.5 0-1.3.4-1.6 1zM445.5 96l-7 .5-.6 3.7c-.3 2-.3 4.2.1 4.8.8 1.3 13.2.5 16.1-1 1.2-.7 3.3-.9 4.7-.5 1.5.4 4.9.9 7.6 1.2 2.7.2 5.4.5 6 .6 2.1.4 1.7-4.1-.6-6.6-2-2.2-3.3-2.5-10.8-2.9-4.7-.2-11.6-.1-15.5.2zM183.2 102c-.6 1.1-1.2 2.8-1.2 3.8 0 .9-.8 3.3-1.8 5.2-2.4 4.6-1.9 16 .8 18.5s14.3 3.1 21.1 1.1c5.6-1.6 5.7-1.7 8.4-8.1 3.7-8.7 8-12.5 14.3-12.5 6.6 0 10.9 2.8 11.8 7.7.5 2.1.8 4 .7 4.3-1.4 8.3-1.4 10 .2 10 .9 0 2.7-1.1 4-2.5 2.1-2 2.5-3.4 2.5-8.7 0-7.6-3-12.7-9.4-15.8-5.1-2.4-8.7-2.5-14.7-.5-6.8 2.3-10.4 6.2-12.3 13.1-.9 3.2-1.9 6.5-2.1 7.2-.8 2.2-5.6 3.3-13.4 3l-7.6-.3v-11c0-6.1.3-12.2.7-13.8.8-3.2-.2-3.5-2-.7zM269.4 103.5c.7 2.1 1.4 3.1 2 2.5.6-.6.5-1.9-.4-3.5-1.9-3.6-2.9-3.1-1.6 1zM265.5 108c.3.5.8 1 1.1 1 .2 0 .4-.5.4-1 0-.6-.5-1-1.1-1-.5 0-.7.4-.4 1zM272.1 114.2c-.1 1-.5 1.8-1.1 1.8-.5 0-1 2.5-1 5.6 0 15.5-9 27.9-31 42.8-15.8 10.7-20.3 14.7-17.9 16.1 2 1.3 7.8-.5 8.4-2.6.4-1.1 2-2.9 3.7-3.9 5.3-3.2 20.1-15.3 25.9-21.1 10.1-10.3 16.4-26.6 14.1-36.4-.6-2.2-1-3.2-1.1-2.3zM119 127c0 2.8 2.5 6 4.7 6 3.1 0 3.1-3.3-.2-5.4-2.7-1.8-4.5-2.1-4.5-.6zM130.5 129c1 1.1 2.2 1.7 2.8 1.3.6-.4.3-1.2-.8-2-2.8-2-4.1-1.6-2 .7zM365.8 129.7c.7.3 1.6.2 1.9-.1.4-.3-.2-.6-1.3-.5-1.1 0-1.4.3-.6.6z"/><path d="M387.6 149.1c-.4 2.4-1.1 8.8-1.6 14.1-.9 9.4-3.5 17.1-7.2 20.9-.7.8-2.5 3.1-4 5.1-6 8-21.9 14-37.3 14.2-10.1.1-20.7-1.8-24.5-4.4-1.4-1-3.4-2-4.6-2.4-2.3-.7-10.8-9.4-13.6-13.8-1-1.5-2-4.4-2.4-6.6-.4-2.8-1.3-4.3-2.9-5-3.2-1.5-3.5-.8-1.9 4.5 3.4 11.2 11.4 20.6 22.7 26.7 12.5 6.7 24.9 8.3 38.7 5 3.6-.9 7.2-1.7 8.1-1.9.9-.2 4.4-1.8 7.8-3.5 7.9-4.1 16.4-13.4 20.3-21.9 4.8-10.6 6.9-28.5 4-33.7-.8-1.4-1.1-.9-1.6 2.7zM118 147c0 .5 1.5 1 3.4 1s3.8-.5 4.1-1c.4-.6-1-1-3.4-1-2.3 0-4.1.4-4.1 1zM104.1 150.4c-1.2 2.2-1.1 3.2.8 8.4 2.4 6.3 3.1 13.9 1.8 18.5l-.8 2.9 3-2.1c1.6-1.2 3.9-2.1 5-2.1 1.4 0 2.1-.6 2.1-1.9 0-1.1.5-2.3 1-2.6.6-.3 1-1.3 1-2.1 0-1.1-.6-1.3-2-.9-2.6.8-3.6-1.6-2-4.6 1-1.9 1-2.4-.4-3.4-2.1-1.6-2.1-5.1 0-5.9 1-.4 1.4-1.2 1-2.2-.4-.9-.1-2.3.5-3 1.7-2.1-.5-1.7-3.4.6-3.2 2.5-4.2 2.5-5.3-.1-.9-2.1-1-2-2.3.5zM146.4 160c-.9 3.2-2.5 6.7-3.5 7.6-1.8 1.6-1.9 1.6-1.9-1.4 0-2.1-.9-4.1-2.7-6-1.6-1.5-2.5-2.3-2-1.8.4.6.7 1.8.7 2.8 0 1.4-.8 1.8-3.5 1.8-2.4 0-3.5.5-3.5 1.4 0 2.3 4.1 3.1 5.5 1.2 1.5-2 2.5-2.1 2.5-.2 0 2.7 5.7 7.9 7.9 7.3 1.5-.4 2.2.2 3 2.2.5 1.4 1 1.9 1 1.1.1-.9-.6-2.6-1.5-3.8-1.4-2-1.4-2.7.2-7.5.9-2.8 2-5.6 2.5-6.2 1.6-1.7 1-4.5-1-4.5-1.6 0-2.4 1.3-3.7 6zM485 157.6c0 .3 1.6 2 3.5 3.8 7 6.7 3.6 9.6-11.1 9.6h-10.1l-.7 3.1c-.3 1.7-.6 11.1-.6 20.9 0 14.5-.3 18-1.5 19-1.8 1.5-14.1.5-15.2-1.3-.4-.7-1-9.7-1.3-20-.5-17.3-.7-19-2.5-20.3-1.1-.8-3-1.2-4.1-1-1.5.4-2.4 0-2.8-1-.6-1.5-.8-1.5-2.4-.1-1.1 1-3.9 1.7-7.5 1.8-6.7.3-7.7-.5-7.7-6.3 0-4.5-.8-6.8-2.5-6.8-1.8 0-2.7 5.7-1.5 10.1 1.3 4.9 5.6 7.1 14 7.2 3.4 0 6.3.4 6.6.9.3.4 1.4.8 2.5.8 1.3 0 1.9.7 2 2.5.2 3.3.3 3.6 1.5 6 .6 1.1 1.2 7.8 1.3 15 .2 14.5.7 15.8 6.9 17 6.2 1.1 10.6 1 13.7-.6l3-1.4.5-20 .5-20 5.1.3c3.1.2 6.7-.3 8.9-1.2 2.1-.9 4.7-1.6 6-1.6 3.6 0 5.3-2.9 5.7-9.9l.3-6.4-5.2-.3c-2.9-.1-5.3 0-5.3.2zM39.1 168.6c0 1.1.3 1.4.6.6.3-.7.2-1.6-.1-1.9-.3-.4-.6.2-.5 1.3zM122.3 169.7c-2.1.7-1.5 3.3.7 3.3 1.1 0 2-.6 2-1.4 0-1.8-1.1-2.5-2.7-1.9zM130.5 178c-.9 1.5.6 6 2 6 .7 0 1.5-1.1 1.7-2.4.7-3.4-2.1-6.1-3.7-3.6zM118.5 179.3c-1.1.7-2.2 1.5-2.5 1.8-.3.3-1.2.8-2 1.2-.8.4-2.3 1.1-3.2 1.7-1 .5-2.6 1.4-3.5 1.9-4 1.9-1.6 10.1 2.9 10.1 1.2 0 3.2 1 4.5 2.2 1.3 1.2 2.5 1.9 2.8 1.6.7-.7-3-4.8-4.3-4.8-1.9 0-5-4.9-4.5-7 .6-2.4 2.1-2.6 2.9-.5.8 2.1 2.4 1.9 2.4-.3 0-3.1 3.9-6.4 6.7-5.7 2.9.7 4.4-.1 3.6-2-.6-1.8-3-1.8-5.8-.2zM139 181.5c0 .9.9 1.5 2.5 1.5s2.5.6 2.5 1.5c0 .8.7 1.5 1.5 1.5 2.1 0 1.9-.8-1.2-3.5-3.2-2.8-5.3-3.2-5.3-1zM186 181c0 .5.5 1 1 1 .6 0 1-.5 1-1 0-.6-.4-1-1-1-.5 0-1 .4-1 1zM182.9 187.2c-.6 2.4-1.5 5.6-2 7.2-1.3 4.2-1.1 9.9.4 11.8 1.9 2.5 10.9 3.7 24.2 3.1 6.6-.2 23.7-.5 38-.7 14.3-.1 26.8-.5 27.8-1s2.2-1.6 2.7-2.6c1.4-2.6 2.5-18 1.3-18-2.2 0-3.2 2.8-3.5 9.5l-.3 7-18 .1c-9.9.1-25.9.5-35.5.9-25.1 1-31 1.1-32.3.3-.8-.5-.8-2.2.2-6.5 2.4-10.3 2.5-12.3.7-12.3-1 0-1.3-.6-1-1.5.4-.8.1-1.5-.5-1.5-.5 0-1.5 1.9-2.2 4.2zM96.7 187.7c-.5.9-.1 16.9.9 34.5.4 8.6.3 13.7-.5 15.9-1.4 4.2 0 5.9 5.2 6.1 4.2.1 7-2.4 6.2-5.7-.6-3-.6-30.5.1-34.2.5-2.5.2-3.4-1.1-3.9-2.4-1-3.9 1-2 2.6 2.2 1.8 1.9 3.5-1.1 5.5-3.4 2.2-4 1.3-2.7-3.8 1-3.5.9-4.5-.4-5.9-1-1.1-1.3-2.6-.8-4.6.8-3.9-2.3-9.2-3.8-6.5zm7.3 27c0 .5.3 6.8.6 14.2.5 11 .4 13.3-.7 12.9-1.1-.4-1.4-3.5-1.4-14.1 0-7.6.3-13.7.7-13.7.4 0 .8.3.8.7zM26.2 194.2c-2.4 5.4-2.6 8.3-.5 7 1.1-.7 3.8-11.1 3-11.8-.1-.2-1.3 2-2.5 4.8zM122.8 191.7c.7.3 1.6.2 1.9-.1.4-.3-.2-.6-1.3-.5-1.1 0-1.4.3-.6.6zM129.5 192c.3.5 1 1 1.6 1 .5 0 .9-.5.9-1 0-.6-.7-1-1.6-1-.8 0-1.2.4-.9 1zM153 196.6c0 .8 7.2 7.5 7.7 7.1.2-.2-.4-2-1.2-4-1.2-2.9-2.1-3.7-4-3.7-1.4 0-2.5.3-2.5.6zM133.1 198.4c-.9 1.1-.8 1.5.5 2 2.3.9 2.4.8 2.4-1.4 0-2.3-1.3-2.6-2.9-.6zM113.5 204.6c-1.1 1.2-1.3 2-.6 2.7 1.4 1.4 1.4 4.7.1 4.7-.5 0-1 2.3-1 5.1 0 4.7.1 5 2.2 4.4 1.6-.6 2-.4 1.5.8-.3.9-.2 3.9.2 6.7.5 3.1.4 6.6-.3 9-1 3.9-.9 4.2 2.3 7.3 2.2 2.1 3 2.5 2.4 1.2-.5-1.1-1.1-10.8-1.2-21.4-.2-21.8-1.1-25-5.6-20.5zM144.1 203.9c-1.1.7-.9 1.3 1 3.2 2.2 2.2 2.4 2.2 2.7.5.5-2.4-1.9-4.8-3.7-3.7zM21.6 207.5c-.3.9-1 1.3-1.6 1-1.7-1-3.1.5-2.1 2.2.5 1 .3 3.3-.5 6.1-1.7 5.4-1.7 6.2-.4 6.2 1.9 0 4.4-5.3 5.1-10.8.8-5.8.6-7.5-.5-4.7zM20 210c0 .5-.2 1-.4 1-.3 0-.8-.5-1.1-1-.3-.6-.1-1 .4-1 .6 0 1.1.4 1.1 1zM136.4 211c.5 3.7.3 5-.6 5-.9 0-.9.3 0 1.2.7.7 1.2 2.5 1.2 4.1 0 1.5.4 2.6 1 2.2 1-.6 1.3-10.2.4-14.8-1-5-2.7-3-2 2.3zM152.5 209.1c-1.3 1.9-1.9 18.9-.7 18.9 1.6 0 2.1-2.3 2.3-11 .2-8-.3-10.2-1.6-7.9zM156.4 209.3c-.8 2.3 0 10 1.1 10.4.9.3 3.5-6.1 3.5-8.6 0-.6-.9-1.5-2-2.1-1.6-.8-2.2-.8-2.6.3zM122.5 213.8c-.9 2.3-.6 7.2.5 7.2.6 0 1-.6 1-1.4 0-.7 1.4-1.9 3-2.6 1.7-.7 3-1.8 3-2.5 0-1.8-6.8-2.5-7.5-.7zM141.9 214c-.7 4.1.7 12.1 2.2 13.1 1.7 1.1 3.4.6 3.3-.9-.1-.7-.2-3-.2-5.2-.2-3.3-.5-4-1.9-3.8-1.2.2-1.9-.6-2.3-2.7-.6-2.9-.7-2.9-1.1-.5zm3.3 9.2c-.9.9-1.2.7-1.2-1.2s.3-2.1 1.2-1.2c.9.9.9 1.5 0 2.4zM128.2 222.2c-.7.7-1.2 1.9-1.2 2.7 0 .8.3 1.1.7.8.3-.4 1.5 0 2.4.9 1.7 1.6 1.9 1.5 2.5-.1 1.3-3.3-2.1-6.6-4.4-4.3zM157 228.4c0 2.7 2.4 5.3 3.5 3.7.5-.9-2.1-6.1-3.1-6.1-.2 0-.4 1.1-.4 2.4zM137 228c0 .5.5 1 1.1 1 .5 0 .7-.5.4-1-.3-.6-.8-1-1.1-1-.2 0-.4.4-.4 1zM126.4 230.5c-.3 1.3-.1 3.1.4 4.2.5 1 .7 2.4.4 3.2-.3.8 0 1.1.6.7.6-.4 2.3.1 3.7 1 1.4.9 2.8 1.5 3 1.2 1.1-1.1-1.7-7.4-4.5-9.9l-3-2.8-.6 2.4zM300.1 229.5c-3.5.8-8.7 2.2-11.5 3.2-2.8 1-5.5 1.8-6.1 1.8-1.1.1-3.8 1.7-12.5 7.4-10.9 7.2-25.1 22.3-30.6 32.7-2.7 5.2-7.4 18.7-8.9 25.5-1.9 9.2-1.9 12.8.1 20.4 2.7 10.8 3.1 11.9 6.4 18.7 3.1 6.5 5 8.5 5 5.3 0-2.2 1.3-1.8 2.9.7 1.3 2.1 1.4 2.1 2.7.3.8-1 1.4-2.8 1.4-4 0-2.3 3.8-6.5 6-6.5.7 0 3.8-1.2 6.9-2.7 5.6-2.7 15-5.1 22.6-5.7 26.4-2.3 41.7-2.3 46.9-.1 2 .9 7.4 1.8 11.9 2.2 6.6.5 8.8 1.1 11 3 1.6 1.2 3.3 2.3 3.8 2.3h1.4c.3 0 2 .9 3.8 1.9 1.9 1.1 4.5 1.7 5.9 1.4 2.2-.4 2.7.1 4.2 4.2 1.3 3.4 2.1 4.4 2.9 3.6 1.5-1.5 2.7-1.4 2.7.3 0 .8-.8 1.7-1.7 2-1.3.5-1.4.9-.4 1.9.9.9 1.4.9 2.1-.2.7-1.2 1.1-1.2 2.4-.2.8.7 2 1 2.6.6 1.5-.9 1.2.4-.5 2.2-.9.8-1.4 1.8-1.1 2 .9.9 4.6-.8 4.6-2.1 0-.8.7-1.9 1.5-2.6 2-1.7 5.8-9.6 8.6-18 4-11.9 3.8-30.5-.6-46.1-5-17.9-23.3-38.8-42-48.2-11.7-5.8-24.1-8.7-37-8.6-6 0-13.9.7-17.4 1.4zM141.6 234.3c-1.2 10.5-.4 12.1 3.4 6.7 1.6-2.3 1.9-3.4 1.1-4.4-.7-.9-.7-1.6.2-2.5.9-1.1.9-1.4-.1-1.8-.7-.3-1.8-1.1-2.6-1.8-1.1-1.2-1.4-.5-2 3.8z"/><path d="M111.7 232.6c-.3 1.6-.2 3.5.3 4.3 1.2 2.2 2.2-2.1 1.2-5-.9-2.3-.9-2.2-1.5.7zM151.7 231.6c-1.3 1.3-.7 9.1.8 10.4 1.9 1.5 3.5.5 3.5-2.3-.1-2.8-3.4-9-4.3-8.1zM469 232.4c0 .2.8 1 1.8 1.7 1.5 1.3 1.6 1.2.3-.4s-2.1-2.1-2.1-1.3zM160.4 236.2c.3 1.3.6 3.6.6 5.3.1 2.6.2 2.8 1.1 1.2 1.3-2.2.3-8.7-1.3-8.7-.6 0-.8.9-.4 2.2zM11.1 240.6c0 1.1.3 1.4.6.6.3-.7.2-1.6-.1-1.9-.3-.4-.6.2-.5 1.3zM123 241.9c0 1.2.5 2.1 1 2.1.6 0 1-.6 1-1.4 0-.8-.4-1.8-1-2.1-.5-.3-1 .3-1 1.4zM455.3 244.2c-2.1 2.5-8.3 14.7-8.3 16.3 0 .8.5 1.5 1.1 1.5 1.7 0 4.9-2 4.9-3.1 0-1.4 4.1-4.8 5.7-4.9 1.1 0 3.3 3 3.3 4.4 0 .3-1.1.6-2.5.6s-2.5.4-2.5.9c0 1.1 11.1 2.4 12 1.4.4-.4-1.3-4.6-3.9-9.3-4.7-8.6-7.4-10.8-9.8-7.8zM9.3 245.5c-.3.9-.3 1.8-.1 2.1.3.3.8-.4 1.1-1.6.6-2.3-.1-2.7-1-.5zM137.2 245.2c.6 1.8 2.8 2.1 2.8.4 0-.9-.7-1.6-1.6-1.6-.9 0-1.4.5-1.2 1.2zM155 245.5c0 .8.6 1.5 1.4 1.5.8 0 1.6-.7 2-1.5.4-1-.1-1.5-1.4-1.5-1.1 0-2 .7-2 1.5zM431.2 246.1c-1.3 2.1-1.6 5.9-.4 5.9 1 0 3.1-6.9 2.3-7.5-.4-.2-1.2.5-1.9 1.6zM86.8 246.3c-3 1.2-3.8 4.3-1.6 6.5.8.8.9 1.5.2 2.2-.7.7-1.9.4-3.6-1-1.5-1.1-3.1-2-3.7-2-.6 0-1.1-.5-1.1-1 0-.6-.5-1-1.1-1-2 0-3.9 2.9-3.9 5.9 0 1.7-.4 3.1-.8 3.1s-.9 2.2-1 5c-.2 4.6 0 5 2.3 5.6 4.1 1 6.8-2.1 6.2-7.1-.6-4.4.4-7.2 2.2-6.1.6.4 1.1 1.5 1.1 2.5s.5 3.2 1.1 4.9c.9 2.8 1.4 3.1 3.7 2.6 3.6-.9 5.2-3.1 5.2-7.4 0-3.2.4-3.8 3.6-5.4 4.1-1.9 3.6-3.3-1.1-3.8-2.2-.2-3.1-.9-3.3-2.6-.4-2.4-.5-2.5-4.4-.9zM172 246.9c0 1.2.6 2.1 1.5 2.1.8 0 1.5-.4 1.5-.9s-.7-1.4-1.5-2.1c-1.3-1-1.5-.9-1.5.9zM107.8 249c-.7 1.1-2 2-2.8 2-2.8 0-4 2.3-4 7.2 0 4.4.2 4.8 2.4 4.8 2.7 0 3.6 1.6 3.6 6.3 0 2.4.3 2.8 1 1.7.5-.8.7-4.1.5-7.2-.4-4.7-.2-5.9 1.2-6.6 1.4-.8 1.5-1.3.5-2.5-.9-1-1-1.7-.2-2.2 1.3-.8 1.3-5.5 0-5.5-.5 0-1.5.9-2.2 2zM123.3 249c-1.3.5-2.3 1.7-2.3 2.5 0 .9-.4 1.4-.9 1.1-1.1-.7-2.1 2.7-2.1 7.1 0 2.8.4 3.3 2.3 3.3 3.5 0 6.1-3.3 5.4-6.9-.4-1.9-.1-3.3.8-4.1 1.8-1.5 2-4 .3-3.9-.7 0-2.3.4-3.5.9zM137.6 249.7c-.5 1.7-.9 8.4-.7 11.1.1.8 1 1.2 2.4 1 1.9-.3 2.2-.9 2.3-5.3 0-5.1-1-8.5-2.6-8.5-.5 0-1.1.8-1.4 1.7zM187.2 251.1c.2.7 1 1.5 1.7 1.7.8.3 1.2-.1.9-.9-.2-.7-1-1.5-1.7-1.7-.8-.3-1.2.1-.9.9zM154 255c-1.3 3.3-.2 6 2.6 6 .8 0 1.4.4 1.4 1 0 .5.7 1 1.5 1 1.2 0 1.5-1.3 1.5-5.5 0-5.4-.1-5.5-2.9-5.5-2.2 0-3.1.6-4.1 3zM169.3 257.3c-1 2.2-.8 2.6 2.7 4.6 2.1 1.1 4.1 2.1 4.4 2.1.4 0 .6-1.9.4-4.3-.3-3.9-.5-4.2-3.4-4.5-2.4-.2-3.3.2-4.1 2.1zM7.3 260c0 2.5.2 3.5.4 2.2.2-1.2.2-3.2 0-4.5-.2-1.2-.4-.2-.4 2.3zM426.6 256.9c-.4.7-.5 1.5-.2 1.8.9.9 1.9-.4 1.4-1.8-.4-1.1-.6-1.1-1.2 0zM66 258c0 .5.7 1 1.5 1s1.5-.5 1.5-1c0-.6-.7-1-1.5-1s-1.5.4-1.5 1z"/><path d="M94 261.4c0 1.9.5 3.8 1 4.1.6.4 1-1 1-3.4 0-2.3-.4-4.1-1-4.1-.5 0-1 1.5-1 3.4zM184.7 260.7c-.5 2.1-.1 3.3 1.5 4.5 2.8 2.5 3.5 2.3 3.5-1-.1-1.5.1-3.4.4-4.2.3-1-.4-1.6-2.2-1.8-2.2-.3-2.7.2-3.2 2.5zM62.2 261.5c-1.6 1.2-1.9 2-1.2 3.3.5.9 1.1 3 1.5 4.5 1 4.8 2.9 2.5 3.1-3.6.1-3.1-.1-5.7-.5-5.7s-1.6.7-2.9 1.5zM198.4 261.8c-.6.4-.9 2.3-.6 4.4.4 3.5.5 3.6 3.4 2.7 1.7-.4 3.3-1 3.5-1.3.9-.9-3.1-6.6-4.7-6.6-.3 0-1 .4-1.6.8zM207 263.2c0 1.5 6 6.8 7.6 6.8 2.9 0 1.2-2.9-3.1-5.3-2.5-1.4-4.5-2.1-4.5-1.5zM421.6 265.9c-1.9 3.5-1.9 4.1-.6 4.1.6 0 1-.8 1-1.8s.5-2.3 1.2-3c.6-.6.9-1.4.6-1.8-.4-.3-1.4.8-2.2 2.5zM47 265.4c0 .8.4 1.7 1 2.1 1.2.8-2.1 7.4-3.7 7.5-2.2 0-1.4 3 1.5 5.5 3.3 2.8 5 1.8 4.4-2.5-.2-1.7 0-3.6.6-4.3.7-.8.5-2.5-.9-5.5-2-4.4-2.9-5.2-2.9-2.8zM5.5 266.2c-.9 3.2-1.6 18.2-.7 17.3.5-.6 1.2-4.9 1.5-9.8.4-8.1.2-10.5-.8-7.5zM54.5 266c-.4.6-.4 3.3 0 6.1.6 3.9 1.1 4.9 2.4 4.7 3-.6 2.7-11.8-.4-11.8-.7 0-1.7.5-2 1zM633.4 266.3c.3 1 .6 4.1.6 6.8 0 3 .4 4.9 1.1 4.9 1.5 0 .5-10.9-1.2-12.4-.9-.8-1-.7-.5.7zM569 267.5c-1 1.2-1 1.5.4 1.5.9 0 1.6-.7 1.6-1.5s-.2-1.5-.4-1.5-.9.7-1.6 1.5zM155.8 267.5c-.3.3-9.8.6-21.2.6-14.6.1-20.6.5-20.6 1.3s7.1 1.1 25 1.2c13.8 0 25-.2 25-.6 0-1.6-7-3.7-8.2-2.5zM169 269.3c0 .9 1.4 1.7 3.5 2.1 4 .8 4.2 1.3 1.8 3.2-1 .7-1.3 1.4-.7 1.4.6 0 1.7-.7 2.4-1.5 1.5-1.8 4.9-1.4 10.9 1.6 2.2 1 4.6 1.9 5.4 1.9.7 0 3.2.9 5.5 2 4.7 2.3 5.2 2.4 5.2 1 0-1.1-6.5-4.1-13-6-2.5-.8-4.9-1.7-5.4-2.2-.6-.4-1.9-.8-3-.8-1.9-.1-5.8-1.3-10.8-3.5-1.3-.5-1.8-.3-1.8.8zM191 269c0 .5.5 1 1.1 1 .5 0 .7-.5.4-1-.3-.6-.8-1-1.1-1-.2 0-.4.4-.4 1zM100.5 269.7c-1.1.3-2.4.9-2.9 1.4-.6.5-2.7.9-4.8.9-2.1 0-3.8.5-3.8 1.1 0 .7 1.3.9 3.8.5 2-.3 5.6-.8 8-1.2 2.6-.4 4.2-1.1 4.2-2 0-1.4-.9-1.6-4.5-.7zM206 270.9c0 .6.5 1.3 1.1 1.7.8.4.8.9 0 1.7-1.3 1.3-1.4 2.7-.3 2.7 1.6 0 3.1-4.7 1.9-5.9-1.3-1.3-2.7-1.4-2.7-.2zM575.5 271c.3.5 1 1 1.6 1 .5 0 .9-.5.9-1 0-.6-.7-1-1.6-1-.8 0-1.2.4-.9 1zM217.6 274.2c.4 1.8.8 4.4.9 5.8.1 1.4.3 3.3.3 4.2.1 1 .9 1.8 1.8 1.8 1.3 0 1.5-1.2 1.2-7.5-.3-7.1-.4-7.5-2.6-7.5-2.1 0-2.3.3-1.6 3.2zM212 273c0 .5.5 1 1 1 .6 0 1-.5 1-1 0-.6-.4-1-1-1-.5 0-1 .4-1 1zM72.5 276.2c-4.8 3.5-5.8 5.4-2.4 4.3 1.3-.4 4.1-.9 6.1-1.2 2.1-.3 4.2-1.1 4.9-1.9.6-.8 1.7-1.4 2.5-1.4.7 0 1.6-.5 2-1.2.5-.8-.4-.9-3.1-.5-2.1.4-4.4.3-4.9-.2-.7-.5-2.7.4-5.1 2.1zM417.6 273.9c-.4.7-.5 1.5-.2 1.8.9.9 1.9-.4 1.4-1.8-.4-1.1-.6-1.1-1.2 0zM108.2 276c0 1.4.2 1.9.5 1.2.2-.6.2-1.8 0-2.5-.3-.6-.5-.1-.5 1.3zM551 274.6c0 .3.5 2.5 1.1 5 1 3.9 1.5 4.4 4 4.4 2.8 0 5.9 3 5.9 5.8 0 2 7.9 15.2 9.1 15.2 1.5 0 6.1-5.8 8.1-10.2 1.7-3.9 1.8-4.1 1.8-5.8 0-1.1 4.8-6 5.9-6 .5 0 1.2-1.2 1.5-2.8.4-1.5.9-3.5 1.2-4.5.5-1.5.1-1.8-1.8-1.5-1.5.2-2.4 1.1-2.6 2.6-.2 1.2-1.4 3-2.8 3.8-1.3.9-2.4 2.4-2.4 3.4s-.8 2.1-1.8 2.4c-2.6.9-14.8.9-16.1.1-1.8-1.1-1.2-3.7.9-4.2 1.5-.4 2-1.4 2-3.9 0-4.2-1.7-5.3-2.6-1.7-1.1 4.3-4.9 5.9-6.1 2.5-1.1-3.2-5.3-6.9-5.3-4.6zm22 20.7c0 1.9-1 2.7-2.6 2-2.1-.8-1.7-3.3.6-3.3 1.1 0 2 .6 2 1.3z"/><path d="M575.8 275.1c-.7 2.2.4 7 1.6 6.6 1.5-.5 1.4-6.9 0-7.4-.7-.2-1.4.1-1.6.8zM449.3 277.8l-10.2.3-5.3 4.8c-4.7 4.3-5.8 4.8-9.8 4.8-2.5.1-5-.3-5.6-.8-.6-.5-2.3-.8-3.8-.7-2 .2-2.6.7-2.4 2.2.4 2.7 8.6 4.9 16 4.4 4.6-.3 6.1-.9 7.7-2.9 4.5-5.5 6.4-6.8 8.1-5.9.9.5 2.1.5 2.6.1 1.1-1 17.9-2.2 18.8-1.4.3.4 2.9.7 5.7.7 4.2.1 5.5.6 7.2 2.7 3.8 4.7 7.9 6 15.5 5.3 8.6-.9 11.2-1.9 11.2-4.3 0-1.5-.6-1.9-2.5-1.7-1.4.1-2.8.6-3.2.9-.3.4-3.9.7-8 .7H484l-2.5-4c-1.4-2.3-3.1-4.3-3.8-4.5-2.2-.6-18-1.1-28.4-.7zM114.6 278.9c-1 1.6.5 1.8 6.4 1.1 5.2-.7 5.3-.7 1.3-.9-2.3 0-4.8-.4-5.6-.7-.8-.3-1.8-.1-2.1.5zM153.1 278.9c-1.1.7-.9 1 .7 1.5 1.2.4 3.1 1.9 4.2 3.3s2 2.4 2.1 2.2c.9-4.7.8-5.5-.8-6.6-2-1.5-4.2-1.6-6.2-.4zM166.9 279.6c-1.6 1.9-2.2 11.4-.8 11.4.5 0 .9.5.9 1.1 0 .6-.7.8-1.5.5-1.1-.4-1.9.3-2.6 2.1-.5 1.4-.7 2.8-.4 3.1.3.3.5.1.5-.5s.7-1.4 1.6-1.7c1.3-.5 1.5-.1 1.2 1.9-.7 3.5.8 4.1 2.7 1.2 1.2-1.9 1.3-3.1.6-5.1-.8-2-.7-2.6.3-2.6 1.5 0 2.9 2.7 2.1 4-.3.5 0 1.2.7 1.6.7.4 1 .4.6-.1-.4-.4-.4-1.3.1-1.9.4-.6 1.1-2.6 1.4-4.3.5-2.6.2-3.5-1.3-4.3-1.1-.6-2-2-2-3 0-2.4.9-2.5 3.6-.5 2.1 1.6 9.4 2 9.4.5 0-.6-1.1-1-2.4-1-1.4 0-2.8-.5-3.1-1-.3-.6-1.7-1-3-1s-2.7-.5-3-1c-1-1.5-4.1-1.2-5.6.6zm.8 8.6c-.3.8-.6.5-.6-.6-.1-1.1.2-1.7.5-1.3.3.3.4 1.2.1 1.9zM136.8 279.7c.6.2 1.8.2 2.5 0 .6-.3.1-.5-1.3-.5-1.4 0-1.9.2-1.2.5zM100.5 282c.4.6 1.1.8 1.6.5 1.4-.9 1.1-1.5-.7-1.5-.8 0-1.2.5-.9 1zM107.8 282.6c-1 .9-.9 16 .1 19.4.5 1.8.9.3 1.3-5.2.5-8.2-.2-15.5-1.4-14.2zM132.5 285c1 1.1 2.5 2 3.3 2 1.2 0 1.2-.4-.3-2-1-1.1-2.5-2-3.3-2-1.2 0-1.2.4.3 2zM189 285.4c0 .3 2.4 1.2 5.3 2.1 2.8 1 5.7 2.2 6.3 2.9 1.5 1.5 2.4 9.6 1.4 12.1-.5 1.1-.9 1.6-.9 1.1-.1-.5-.8-.3-1.6.4-1.6 1.3-1.5 1.5-1.9-5.2-.2-2.5-1.2-3.1-4.1-2.4-2.4.6-2.5 1-2.5 7.1 0 3.9.4 6.5 1 6.5s1-1.5.8-3.5c-.2-1.9.1-3.3.7-3.2.6.1 1 2.2 1 4.7 0 4.3.1 4.5 3.3 4.8 3.1.3 3.2.2 3.2-3.2 0-2 .5-3.6 1.1-3.6.7 0 .9 2.4.7 7-.2 5 0 7 .9 7s1.3-4 1.5-14.3c.3-15.8.6-15.1-6.9-18.7-3.8-1.8-9.3-2.7-9.3-1.6zM67.6 288.6c-.5 1.3-.1 1.4 2.7.9 4.8-1 5.7-2.5 1.5-2.5-2.3 0-3.8.5-4.2 1.6zM550.5 288.8c-.6.4-1.1 6.7-1.2 14.4-.2 11 0 13.8 1.1 13.8 3.3 0 5.8-28.1 2.6-28.7-.8-.2-1.9 0-2.5.5zM587.8 288.7c-2.2.5-2.1.4-.4 3.8.8 1.4 1.4 5.6 1.5 9.2.1 6.5 1.8 14.3 3.1 14.3.4 0 .6-2.6.4-5.8-.8-13.6-1.7-22.2-2.3-22.1-.3.1-1.4.3-2.3.6zM123.3 291.9c-2.4 2.1-3 3.4-2.6 5.1l.6 2.3 1.8-2.4c1-1.3 2.1-3.2 2.5-4.2.7-2.2 1.6-2.2 4.8.4 1.7 1.4 2.6 3 2.6 4.9 0 1.6.5 3.2 1 3.5.6.3 1 1.5 1 2.6 0 1 .5 1.9 1 1.9.6 0 1-2.4 1-5.3 0-5.5-1.7-8.5-5.7-10.6-3.3-1.7-4.6-1.4-8 1.8zM146.3 290.2c-1.5.7-2.3 2-2.3 3.5 0 3 2.1 2.6 3.5-.5s2.9-2.7 6.5 1.5c2.6 3.2 3.1 4.4 2.7 7.5-.3 2.1-.1 3.8.4 3.8 1.3 0 1.1-8.4-.2-11.3-1-2.3-5.7-5.8-7.6-5.6-.4 0-1.8.5-3 1.1zM94.4 292.2c-3.3 1.5-5.7 6.4-5 10.4.7 3.4 2 4.5 2.9 2.1.3-.6 1 0 1.6 1.6.9 2.4 1.4 2.6 3.1 1.7 1.5-.8 2-2.2 2.1-5.3.2-4.2.2-4.2.8-.8.8 4.4 3.1 5.4 3.1 1.3 0-7.2-4.4-12.9-8.6-11zm-.4 7.3c0 .8-.4 1.5-1 1.5-.5 0-1-.7-1-1.5s.5-1.5 1-1.5c.6 0 1 .7 1 1.5zM67.2 295c0 1.4.2 1.9.5 1.2.2-.6.2-1.8 0-2.5-.3-.6-.5-.1-.5 1.3zM86 294c0 .5.5 1 1 1 .6 0 1-.5 1-1 0-.6-.4-1-1-1-.5 0-1 .4-1 1zM177 294.5c-.7.9-1 2.7-.7 4.5.4 2 .3 2.9-.5 2.7-2-.4-2.1 3.3-.1 3.9 1 .3 3.5 1.4 5.6 2.5 4.9 2.6 6.7 1.4 6.7-4.6 0-7.5-7.3-13.5-11-9zm6.8 4.3c.9 1.4 1 2.2.3 2.2-.6 0-1.1-.4-1.1-.9s-.8-1.7-1.7-2.7c-1.2-1.2-1.3-1.6-.4-1.3.8.3 2.1 1.5 2.9 2.7zM77 296c0 1.3-.7 2-2 2-1.1 0-2 .4-2 .9 0 1.6 1.9 2.3 3.7 1.3 2.7-1.6 6 .6 7.1 4.7l1 3.6.1-4.2c.1-3.4-.5-4.7-3-7.2-3.6-3.6-4.9-3.9-4.9-1.1zM220.7 294.7c-.7 1.2 1.1 5.3 2.3 5.3 1.5 0 .8-5.2-.7-5.7-.6-.2-1.3 0-1.6.4zM2.8 298.5C.7 309.4 3.5 347.6 8 372c1 5.3 4.3 17.1 6.1 21.8.5 1.3.9 3.4.9 4.8 0 1.3.4 3.2.9 4.2.5.9 1.4 3.5 2.1 5.7 4.1 13.5 11.3 30.5 13.3 31.3.4.2.7 1.1.7 2 0 1.7 6.6 15.1 11.5 23.3 1.4 2.4 2.8 5.2 3.2 6.1.3 1 .9 1.8 1.4 1.8.5 0 .9.6.9 1.3 0 .8.9 2.2 2 3.2 1 .9 3.8 4.9 6.1 8.7 3.8 6.3 4.4 6.9 6.8 6.3 1.4-.4 2.8-.8 3-1.1.6-.6-2.1-3.4-3.3-3.4-1.7 0-6.7-5.6-10.8-12-1.9-3-4.3-6.9-5.4-8.5-1-1.7-2.8-4.8-3.9-7-5-9.5-10.4-20.4-12.8-25.5-6.6-14.4-7.6-16.8-8.7-21-.6-2.5-1.6-5.3-2.1-6.2-.5-1-.9-2.8-.9-4 0-2.5-2.2-9.3-3.3-10.4-.4-.4-.7-1.8-.7-3 0-1.3-.4-3.3-.9-4.6-.9-2.4-1.9-6.8-4.6-21.8-3.8-21.1-4.8-29.8-5.4-49-.4-13.5-.9-19.1-1.3-16.5z"/><path d="M147 297c-1.2.7-1.2 1.2-.2 2.2.6.6 1.2 1.9 1.2 2.8 0 2.2 3.6 5.4 5 4.5 1.4-.9.7-7-1.1-9.1-1.3-1.6-2.8-1.8-4.9-.4zM125.4 298.5c-.4.8-.4 2.2 0 3 .8 2.1-.3 4.5-2 4.5-.8 0-1.4-.9-1.4-1.9 0-1.1-.4-2.3-1-2.6-.6-.4-1 .9-1 3 0 3 .3 3.6 1.6 3.1.9-.3 3-.6 4.8-.6 5.2 0 6.8-1.8 5.5-6.3-.8-3-1.5-3.7-3.5-3.7-1.3 0-2.7.7-3 1.5zM636.3 300.5c0 2.2.2 3 .4 1.7.2-1.2.2-3 0-4-.3-.9-.5.1-.4 2.3zM62.1 302.7c0 2.9.2 3.3.8 1.8.7-1.8.4-5.5-.5-5.5-.2 0-.4 1.7-.3 3.7zM577 306.9c-2.2 4.3-4.7 8.6-5.4 9.6-1.3 1.8-1.4 1.7-2.6-.6-4.9-9.3-12-18.2-12-15.2 0 .5-.4 3.4-1 6.6-.6 3.7-.6 6.7.1 8.3 1.3 3.7 3.5 2.5 3.1-1.7-.2-2.1 0-3 .5-2.4.5.5 2.9 3.4 5.2 6.2 2.4 2.9 5 5.3 5.8 5.3 1.4 0 5.2-3.7 5.3-5.2 0-.4 1.2-2.4 2.6-4.5l2.6-3.8-.4 3.5c-.3 1.9-.2 4.2.3 5 .4.8 1 2.7 1.3 4.1.5 2.3 1.2 2.7 5.8 3.2 4.9.6 7.8-.3 7.8-2.3 0-1.5-6-2.2-7.5-1-1.8 1.5-1.7 1.8-2-5.5-.3-8.2-2.5-17.5-4.1-17.5-.7 0-3.1 3.5-5.4 7.9zM215 301c0 .5.5 1 1 1 .6 0 1-.5 1-1 0-.6-.4-1-1-1-.5 0-1 .4-1 1zM77 303.5c0 1.4-.7 2.8-1.5 3.1-.8.4-1.5 1.7-1.5 3 0 2.1.4 2.4 4.1 2.4h4.2l-.7-4.7c-.6-4.2-1.8-6.2-3.8-6.3-.5 0-.8 1.1-.8 2.5zM142 304c0 2.1.4 3 1.3 2.7.6-.2 1.2-1.4 1.2-2.7 0-1.3-.6-2.5-1.2-2.8-.9-.2-1.3.7-1.3 2.8zM53.6 303.9c-1.3 1.4-1.4 2.1-.5 2.7.7.4 1.7 0 2.4-.9 1.9-2.7 2.2-2.1 1.7 3.8-.5 6.7.3 10.5 2.5 10.5 1.4 0 1.5-1 1-6.9-.8-10-3.4-13.3-7.1-9.2zM167 303c0 .5.5 1 1 1 .6 0 1-.5 1-1 0-.6-.4-1-1-1-.5 0-1 .4-1 1zM208 304.4c0 2.2.3 2.7 1.1 1.9.8-.8.8-1.6 0-3-.9-1.6-1-1.4-1.1 1.1zM220.6 304.9c-.4.6-.7 2.4-.6 3.9.1 1.5.2 3.3.1 3.9-.1 1.8-3.8 1.6-4.5-.2-.5-1.5-5.1-2.1-5.9-.8-.3.5 0 1.9.5 3.3.6 1.8 1.1 2.1 1.7 1.2.6-1 1.2-.7 2.4 1.2 1 1.4 1.7 3.2 1.7 4.1 0 .8.7 1.5 1.6 1.5 1.1 0 1.3-.6.9-1.9-.4-1.4 0-2.1 1.3-2.5 1.8-.6 5.2-6.4 5.2-9 0-2.3-3.6-6.1-4.4-4.7zM67.5 306.2c-.4.9-.3 4.2.2 7.4.7 5.1 1.1 5.9 3.1 6.2 2.6.4 2.8-.3.7-2.4-1-1-1.4-3.2-1.3-6 .1-4.7-1.6-8.1-2.7-5.2zM113.3 307.6c-.3.8-.1 2 .6 2.7.8.8 1.1.4 1.1-1.6 0-3-.7-3.5-1.7-1.1zM83.5 311c-.3.5-.1 1 .4 1 .6 0 1.1-.5 1.1-1 0-.6-.2-1-.4-1-.3 0-.8.4-1.1 1zM117.9 311.1c-.9.5 2.1.9 8 .9 5.2 0 9.2-.2 9-.4-1-.8-15.7-1.3-17-.5zM142 311c0 .5.7 1 1.6 1 .8 0 1.2-.5.9-1-.3-.6-1-1-1.6-1-.5 0-.9.4-.9 1zM154.8 311.7c.7.3 1.6.2 1.9-.1.4-.3-.2-.6-1.3-.5-1.1 0-1.4.3-.6.6zM47.6 315.3c-.7 3.7.7 8.7 2.3 8.7 1.8 0 3.2-4 2.9-7.8-.2-2.9-.8-3.8-2.4-4-1.8-.2-2.3.3-2.8 3.1zM100.5 317.6c-3.3.7-6.8 1.8-7.7 2.4-1 .5-2.5 1-3.3 1-.8 0-1.5.4-1.5 1 0 1.1 4.7.5 10.5-1.5 5.9-1.9 7.3-1.6 7.9 1.9.3 1.7.6 14.3.6 28.1.1 25.8 1.5 65.1 3 83.5.5 6.7.6-3.9.3-29.5-1.2-91.5-1.1-88.7-3.1-88.4-.4 0-3.4.7-6.7 1.5zM114.3 317.5c.6 1.6 6.5 2.3 11 1.3 2.3-.5 7.1-.7 10.7-.3 3.6.4 10.8.8 16 .9l9.5.1.1 11c.1 6 .4 13.9.8 17.5.4 3.6.9 26.3 1.1 50.5 1.2 105.3 1.4 127 1.5 127 .1 0 .2 3.1.4 6.8.2 6.5.1 6.8-2.4 7.3-4.5 1-5.2 1.4-4.7 2.7.2.6 1.7 1.3 3.3 1.3 1.6.1 5.5 1.4 8.8 2.8l5.9 2.7 3.6-2.6c2.1-1.4 4.7-2.5 5.9-2.5 1.3 0 3.3-.6 4.5-1.4 1.2-.8 3.8-1.7 5.7-2.1 1.9-.4 4-1.2 4.7-1.7.7-.5 2.1-.7 3.2-.3 2.8.9 11.2-2.1 13.9-5.1 1.3-1.3 3.1-2.4 4-2.5.9 0 2.8-1.4 4.2-3.2 2.5-3.1 2.5-3.4 2.3-20.2-.1-9.3-.5-28.3-.9-42-.4-13.8-.6-28.4-.6-32.5.7-31.2.1-67.9-.9-68.6-.5-.3-.9.4-.9 1.5s-.5 2.3-1 2.6c-.7.5-.9 5.1-.5 13.6.4 8.6.2 13.6-.5 15-.8 1.5-.8 2.4 0 3.4s.7 3.1-.3 8.1c-.7 3.8-1.7 6.3-2.1 5.6-.4-.7-1.6-1.2-2.7-1.2-1.7 0-1.9.7-1.9 6.4 0 4.8-.5 6.9-2 8.9-1.1 1.4-2 3.9-2 5.6 0 5.6 4.5 12.6 6.2 9.8 1.2-1.9.9-2.4-1.7-3.1-1.8-.5-2.5-1.3-2.5-3 0-1.4-.2-3-.5-3.8-.3-.7 0-2 .5-2.8.8-1.3 1.3-1.2 3.2.8l2.3 2.3 1.2-4.3c1.1-4.2 1.1-4.2 1.3 4.2.1 4.7.2 9.1 0 9.9-.1.7.3 2.5.9 4 1 2.8 2.1 63.9 1.2 70.6-.5 3.6-1.1 4.3-5.6 6.7-2.7 1.5-5.9 2.8-7 2.8-1.1 0-3.8 1.1-6.1 2.3-5.8 3.4-8.1 4-23.6 6.3l-4.8.7-.1-3.9c0-2.2-.2-5.3-.4-6.9-.3-1.7-.6-12.9-.9-25-.2-12.1-1-25.6-1.7-30-1.3-7.8-1.3-7.9-2-4-.8 4.1-.5 32.4.6 56.5.6 13.2-.1 17.9-2.3 15.5-.5-.6-1.2-9.8-1.6-20.5-.3-10.7-.8-25.6-1.1-33-.3-7.4-.7-36.5-1-64.5-.6-66.3-1.5-102.8-2.6-103.9-1.1-1.3-50-1.4-49.6-.1zm108.2 104.6c-.7 2-.8 2.1-1.7.5-.5-.9-.7-2.4-.4-3.3 1-2.6 2.9.1 2.1 2.8zM168 317c0 .5.7 1 1.6 1 .8 0 1.2-.5.9-1-.3-.6-1-1-1.6-1-.5 0-.9.4-.9 1zM419.7 320.1c-.3 1.2-.2 2.9.2 3.8.5.8.5 2.4-.1 3.7-1 2.2-.5 5.4 2.4 15.4 1.5 5.1 1.8 5.2 10.8 5.4 5.2.1 7.2.6 9.5 2.4 2.8 2.2 3.7 2.3 16.5 2.1 15.4-.2 17.2-.5 16.8-2.8-.6-2.8-5.1-4-17.9-4.5-14.6-.7-25.7-1.5-28.2-2.3-3.2-.9-5.7-8-5.7-16.1 0-4.3-.4-7.1-.9-6.7-.6.3-1.4-.2-1.9-1.1-.8-1.4-1-1.3-1.5.7z"/><path d="M489.2 320.2c-.6 1.3-1.2 3.2-1.4 4.3-.3 1.7-1.2 2-6.7 2.3-5.2.2-6.7 0-8.1-1.6-4-4.2-25.6-5.3-31.9-1.6-6 3.5-3 4.4 19.4 5.8 5.5.4 13.2 1 17.2 1.4 12.3 1.2 15.4-.6 14.5-8.6-.5-4.7-1.3-5.3-3-2zM182 320.6c3.8 1.7 13.6 3.6 12.3 2.4-1.4-1.3-10.5-4-13.2-4-2.4.1-2.3.2.9 1.6zM635.2 324.9c-1.4 6.2-1.6 15.9-.3 14.5 1.2-1.2 2.8-14.4 2.1-17.4-.5-1.9-.8-1.4-1.8 2.9zM62.3 323.7c.3 1.7.1 3.5-.5 4.1-.8.8-.7 2 .5 4.4l1.7 3.3v-6.7c0-4-.5-7-1.2-7.4-.8-.5-.9.2-.5 2.3zM221.8 322.1c-1.7 1-2.5 4.9-1.2 6.2 1.3 1.2 5.4-2.6 5.4-4.9 0-2.6-1.4-3-4.2-1.3zM552.2 322c-4.2 1-5 1.8-3.2 3.1 1.9 1.2 8.1.4 9.2-1.3 1.8-2.9.5-3.3-6-1.8zM80.5 322.5c-.5.2-2.7.6-4.9 1-2.5.4-3.5 1-2.9 1.6.6.6 2.9.5 6.4-.2 6.8-1.4 9.6-2.9 5.4-2.8-1.6 0-3.4.2-4 .4zM169.1 343.7c.1 12 .4 22.9.9 24.3l.7 2.5.7-2.5c.3-1.4.4-6.6.2-11.5-.2-5-.4-14.7-.5-21.8-.1-7.7-.5-12.7-1.1-12.7-.6 0-1 7.9-.9 21.7zM114.6 383c.4 65.9.5 94.6.1 111.3-.2 7.6.1 11.1 1 11.9 3.3 2.7 3.2 4.9 1.9-82.2-.8-48.2-1.9-90.2-2.6-95.5-.5-3.3-.7 20.8-.4 54.5zM43.2 326c0 1.4.2 1.9.5 1.2.2-.6.2-1.8 0-2.5-.3-.6-.5-.1-.5 1.3zM87.3 327.1c-1.8.5-3.5 1.4-3.8 1.9-.3.6-1.9 1-3.6 1-3.2 0-3.5.6-1.4 3.4.8 1.1 1.5 3.9 1.5 6.2 0 2.3.7 5.7 1.5 7.5 1.6 3.4 1.6 3.4.9.4-1.9-9.1.4-15.5 6.1-16.9 1.4-.4 2.9-1.5 3.5-2.6 1.2-2.3.5-2.4-4.7-.9zM203.4 329.6c-.9 3.4-.9 19.8 0 83.8.3 25.8.6 54.9.6 64.8 0 10 .4 17.7.9 17.4 1-.7.9-167.1-.1-168.1-.4-.4-1 .6-1.4 2.1zM145.7 332.7c.7 7.1 1.6 8.4 2.3 3.3.6-4.4-.3-8-1.9-8-.5 0-.6 2.1-.4 4.7zM57 331c0 .5.7 1 1.5 1s1.5-.5 1.5-1c0-.6-.7-1-1.5-1s-1.5.4-1.5 1zM136.2 332c-1.5 2.5-1.6 2.3.7 4.9 1.1 1.3 1.7 2.9 1.4 3.8-.7 1.7 1.4 3.4 3.4 2.6 1.8-.7 1.7-8.3-.3-11.1-1.9-2.7-3.5-2.8-5.2-.2zM21.6 331.8c-.2.4-.1 1.4.5 2.2.7 1.2.9 1 .9-.8 0-2.3-.5-2.8-1.4-1.4zM53.1 333.6c2.8 3.4 7.9 13.3 7.9 15.3 0 1.4.2 1.4 1 .1.5-.8 1.1-1.2 1.5-.9.8.8.9 79.5.1 80.8-.4.6-.4 1.7.1 2.3.4.7.8 2.4.8 3.7 0 1.3.5 2.6 1.2 2.8.8.3 1.1-1.4.8-5.9-.1-3.5-.4-24.4-.4-46.5-.1-23.9-.6-40.5-1.2-40.8-.5-.4-.9-.1-.9.4 0 .6-.4 1.1-.9 1.1-1 0-2.2-3.1-3-8-.5-2.6-1-3.4-2.3-3.2-1.1.2-1.8-.3-1.8-1.3 0-.9-.9-1.5-2.1-1.5-1.9 0-2 .2-.8 1.6zM69 338.2c0 2.9.5 8 1.1 11.3.6 3.3 1.1 6.7 1.1 7.5-.1.8-.3 19.5-.6 41.5-.2 23.7-.8 40.1-1.4 40.3-1.4.4.3 8 2.3 10.2 2 2.2 4.4 2.8 2.6.7-1.6-1.9-2.7-49.6-1.3-52.4 2.1-3.8 1.3-56.3-.9-62-1.5-4-2.9-2.5-2.9 2.9zM47.5 335c-.3.5-1.5 1-2.6 1-1 0-1.9.6-1.9 1.4 0 1.2.7 1.2 4-.2 4-1.7 5.2-3.2 2.6-3.2-.8 0-1.8.4-2.1 1zM184.7 335.2c-.2.7-.2 2.9.1 4.8.5 3.5 1.9 5.3 3.4 4.4.9-.6 1.1-6.5.2-8.8-.7-1.9-3-2.1-3.7-.4z"/><path d="M87.2 336.2c-1.3 1.3-1.6 5.6-.6 8.2.3.9 1.5 1.6 2.6 1.6 1.9 0 2-.4 1.4-4.7-.7-5.4-1.7-6.8-3.4-5.1zM180.1 339.4c-.1 2.6.2 3.7.9 3 .6-.6.6-2.1.1-3.9-.9-3-.9-3-1 .9zM218.7 339.7c-.7 3.7.7 5 2.1 1.9.8-1.9.8-2.7-.2-3.5-1.1-.9-1.5-.5-1.9 1.6zM62.6 339.9c-.4.7-.5 1.5-.2 1.8.9.9 1.9-.4 1.4-1.8-.4-1.1-.6-1.1-1.2 0zM492.7 340.6c-.4.4-.7 3.5-.7 6.8 0 4.6-.7 7.2-2.5 10.6-1.4 2.5-2.8 5.2-3.1 6.1-1 2.9-6.6 3.9-24.4 4-17.7.1-31.4-1.5-34.6-4.2-.8-.6-1.7-2.9-2-5-.4-2.6-1.5-4.4-3.2-5.5l-2.5-1.6.6 5c.5 4.7 4.5 12.7 7.1 14.4 3.9 2.6 12.9 4 27.5 4.1 27.6.2 33.4-1.4 37.9-10.5 1.8-3.7 2.3-6.2 2.3-12.5 0-7.9-1.1-13-2.4-11.7zM146.7 342.9c-.3 1.2-.1 2.1.3 2.1 1.4 0 1.9-1.5 1.1-2.9-.6-.9-1-.7-1.4.8zM22 343.9c0 1.2.5 2.1 1 2.1.6 0 1-.6 1-1.4 0-.8-.4-1.8-1-2.1-.5-.3-1 .3-1 1.4zM223 342.8c0 .5.9 1.7 2 2.7 1.8 1.7 1.9 2 .5 2.8-.9.5-3 .4-5.1-.3-4.6-1.5-6.2-.2-4.8 3.7.8 2.4 1.5 2.8 4.9 2.8 3.6 0 4 .3 4.5 3 .3 1.8 1.1 3 2 3 1.2 0 1.5-1.6 1.5-8.4.1-7.8 0-8.4-2.3-9.2-2.9-1.1-3.2-1.1-3.2-.1zM51.7 343.6c-1.3 1.3-.7 7.8.9 10.9.9 1.6 1.6 4.5 1.6 6.2 0 2.1.5 3.3 1.3 3.3 2.1 0 2.7-1.7 1.1-3.3-1-1-1.6-4.1-1.8-9.3-.3-7.1-1.3-9.6-3.1-7.8zM193 346.7c0 2.8.3 3.4 1 2.3 1.3-2 1.3-4.7 0-5.5-.6-.4-1 .9-1 3.2zM135.5 350c-.8 1.4 4 3.4 6.1 2.6 1-.4 1.4-1 .8-1.5-1.5-1.4-6.2-2.2-6.9-1.1zM212 356.4c0 1.4 2.4 6.6 3 6.6 2.1 0 1.8-2.1-.5-4.4-1.4-1.4-2.5-2.4-2.5-2.2z"/><path d="M220.5 358.2c-.8 3.2-.4 5.8 1 6.1 1.4.3 1.8-4.9.6-7-.8-1.6-1-1.5-1.6.9zM121.8 358.7c.7.3 1.6.2 1.9-.1.4-.3-.2-.6-1.3-.5-1.1 0-1.4.3-.6.6zM34 364.2c0 .7.4 1.9.9 2.7 1.1 1.7 2.5-.3 1.7-2.4-.7-1.8-2.6-2-2.6-.3zM84.1 364.6c0 1.1.3 1.4.6.6.3-.7.2-1.6-.1-1.9-.3-.4-.6.2-.5 1.3zM629.6 365.5c-.9 2.5-.7 6.3.3 7 1.4.8 2.6-6.4 1.4-7.6-.7-.7-1.2-.5-1.7.6zM56.6 371.7c-1.3 2.7-1.3 3.3 0 5.9.8 1.6 2 3.2 2.6 3.5.7.4.8 1.4.2 2.5-.5 1.1-.9 4.1-.9 6.9 0 2.7-.4 5.9-.8 7-.7 2.1.7 5.4 1.9 4.3.6-.6 1.2-7.5 1.4-15.8.2-4.6-1.2-15.5-2-16.4-.5-.4-1.5.5-2.4 2.1zM82.2 373c-.6 2.2-1.2 4.7-1.2 5.5 0 2.4 2 1.7 3-1 .5-1.4 1.7-2.8 2.5-3.1 2-.8 1.9-4-.1-4.8-2.6-1-2.9-.8-4.2 3.4zM170.1 378.2c-.1 2.7.4 4.8.9 4.8 1.2 0 1.2-4.7 0-7.5-.6-1.5-.9-.8-.9 2.7zM136.6 378.2c-.8 1.2-1.2 2.6-.8 3.2.7 1.2.9 1.8 1.1 4.1.1 1.1 1.3 1.5 4.1 1.5 3.8 0 4-.2 4-2.9 0-1.6-.4-4.1-1-5.5-1.2-3.3-5.3-3.5-7.4-.4zM149.7 381.7c-.3 2.6-.2 6.6.2 8.8.7 3.4.9 3.7 1.7 2 1.2-2.6 1-13.3-.3-14.6-.7-.7-1.2.6-1.6 3.8zM628.2 380c0 1.4.2 1.9.5 1.2.2-.6.2-1.8 0-2.5-.3-.6-.5-.1-.5 1.3zM181.5 380c-1.3 2-1.8 11-.6 11 .6 0 1.1-.7 1.1-1.5 0-2.2.9-1.9 3.2 1 2.7 3.4 4.8 3.2 4.8-.4 0-1.6.2-3.6.5-4.4 1.2-3-7.3-8.5-9-5.7zM84.4 382.5c-.4.8-.3 3.1 0 5 .6 3.1 1.1 3.5 3.6 3.5 2.7 0 3-.3 3-3.1 0-1.7-.5-3.9-1-5-1.3-2.3-4.8-2.5-5.6-.4zM217.2 386.3c-1.8 6.3.6 11.1 3.7 7.4 1.3-1.7.1-9.9-1.6-10.4-.6-.2-1.6 1.1-2.1 3zM170.2 387c0 1.9.2 2.7.5 1.7.2-.9.2-2.5 0-3.5-.3-.9-.5-.1-.5 1.8zM623.7 392c-1.6 4.7-3.2 8.9-3.7 9.5-.4.5-2.4 5.9-4.4 12-2.1 6-4.1 11.8-4.7 12.7-.5 1-.9 2.4-.9 3.2 0 .7-1.6 4-3.5 7.2s-3.5 6.3-3.5 7c0 1.4-8.7 18.6-11.6 23-1 1.6-2.3 3.6-2.9 4.5-2.9 4.7-7 10.5-8 11.5-.6.6-3 4.1-5.3 7.6-2.3 3.6-5.3 7-6.6 7.6-1.4.6-2.7 2.3-3 3.9-.4 1.5-2.9 5.3-5.7 8.3-2.7 3-5.4 6.4-6 7.5-1.3 2.3 11.8-11.2 14.1-14.6.8-1.2 2.2-2.9 3-3.8 5.9-6.3 16.3-21.2 20-28.8 1.7-3.4 3.5-6.5 4-6.8.5-.3 2.7-4.3 4.9-8.8 2.2-4.5 4.9-9.8 5.9-11.7 1.1-1.9 2.4-4.6 3-6 .6-1.4 2.9-6.6 5.2-11.5 4.5-9.8 11-28.3 11-31.2 0-1.1.5-2.4 1.1-3 .6-.6.9-2.6.7-4.4-.3-3-.6-2.4-3.1 5.1zM79 389.4c0 1.4.5 2.8 1 3.1.6.4 1-.7 1-2.4s-.4-3.1-1-3.1c-.5 0-1 1.1-1 2.4z"/><path d="M0 516v124h640V392h-8v32h-8v24h-8v16h-8v16h-8v8h-8v16h-8v8.2l-4-.4-4-.4V528h-3.6c-4.1 0-6.2-2-6.5-6-.1-1.4-.3-1.8-.5-1-.3.8-1.8 2.3-3.5 3.2-2.4 1.4-2.8 2.2-2.3 4.2.6 2.4.5 2.5-2.6 1.3s-3.3-1.1-8.1 4.2c-2.7 3-5.7 5.9-6.8 6.5-1 .6-4.7 3.5-8.2 6.5-9.6 8-9.9 8.3-16.4 13.2-3.3 2.5-9.4 6.8-13.5 9.5s-7.7 5.2-8 5.5c-.9 1-32.4 17.6-35 18.4-1.4.4-3.8 1.7-5.5 2.9-1.6 1.2-4.2 2.7-5.6 3.3-2.4 1-2.6 1-2.2-.7.3-1 0-2.1-.7-2.5-2.1-1.3 1.1-3.5 5.1-3.5 2.1 0 4.1-.5 4.4-1 .3-.5 1.2-1 1.9-1 1.8 0 17.8-8.7 21-11.5 1.6-1.3 4.7-3.4 7-4.5 4.8-2.4 10.3-6.7 9.5-7.5-.9-.9-7.6 2.3-11.1 5.3-1.8 1.6-4.9 3.5-6.8 4.2-1.9.8-7.1 3.5-11.5 6s-10 5.2-12.5 5.9c-2.5.7-5.2 1.9-6 2.6-.8.6-3 1.8-4.7 2.6-3.4 1.4-4.4 2.9-2 2.9.7 0 1.8-.5 2.4-1.1 1.7-1.7 2.3.4 1 3.1-1.2 2.5-2.7 3.4-10.7 6.8-7.6 3.2-21.6 7.3-35 10.2-3 .6-7.6 1.8-10.3 2.7-4.9 1.5-9.5 2.1-35.7 4.8-16.6 1.7-54.2 1.5-69-.4-19.3-2.4-36.1-5.3-42.5-7.1-3.8-1.2-8.8-2.6-11-3.1-6.2-1.7-16.7-5.1-20-6.4-1.6-.7-4.1-1.6-5.5-2-9.2-2.7-52.1-24.6-67-34.1-9.3-5.9-22.6-16.2-30.1-23.4-2.1-1.9-6.3-5.8-9.5-8.5-9-7.7-19.4-19.2-19.4-21.4 0-.7-.5-1.1-1.2-.9-1.4.5-4.8-2.2-4.8-3.8 0-.7-.7-1.5-1.6-1.8-2.2-.8-2.6-.8-1.9.4.3.5.1 1-.4 1-.6 0-1.1-1.3-1.1-2.8 0-3-2.6-6.2-5.1-6.2-.8 0-2.5.8-3.9 1.7-1.7 1.2-2.5 1.3-2.8.5-.2-.7-2.1-1.2-4.3-1.2H48v-16h-8v-8h-8v-16h-8v-16h-8v-24H8v-32H0v124zm64.3-6.9c-1.5.5-1.5.7-.2 1.5.9.5 2.6 2.5 4 4.4 1.3 1.9 2.9 3.8 3.4 4.2.6.4 1.1 2.5 1.2 4.8l.1 4h-8.9l.2-7.3c.2-7.2-1.3-12.3-3.2-11.2-.5.4-.9.4-.9.1 0-.2-.3-1.1-.6-1.9-.4-1.2 0-1.3 3-.3 2.7.8 3.1 1.2 1.9 1.7zm119.5 104.2c.2 1.2-.3 1.7-1.7 1.7-1.5 0-2.1-.6-2.1-2.1 0-2.5 3.3-2.2 3.8.4zm8.9 5.9c-.3.7-.5.2-.5-1.2s.2-1.9.5-1.3c.2.7.2 1.9 0 2.5zm12.8-1.2c.3.5.2 1-.4 1-.5 0-1.3-.5-1.6-1-.3-.6-.2-1 .4-1 .5 0 1.3.4 1.6 1z"/><path d="M170.9 397.5c-.2 8.8.2 18.9.8 19.9 1.3 2.1 2.1-2.3 1.2-6.9-.5-2.8-.7-7.3-.3-10.2.3-3 .2-5.9-.5-7-.8-1.4-1.1-.6-1.2 4.2zM137 395c2 1.3 6 1.3 6 0 0-.6-1.7-1-3.7-1-2.8 0-3.4.3-2.3 1zM86.2 396.5c-1.2.9-2.2 2.2-2.2 3 0 1.9 3.8 2.9 5.5 1.5 1.8-1.5 1.9-2.1.2-4.3-1.1-1.6-1.4-1.6-3.5-.2zM43.5 398.2c.3 1.3.9 3.4 1.2 4.8.4 1.4 1.5 3.8 2.5 5.5l1.8 3v-2.6c0-1.4-.5-3-1.1-3.6-1.7-1.7-.1-3.5 2-2.3 1.7.9 3.1.5 3.1-1 0-.4-1.1-1.2-2.5-1.8-1.4-.6-2.5-1.8-2.5-2.7 0-1-.9-1.5-2.6-1.5-2.3 0-2.5.3-1.9 2.2zM52 406.8c0 .6.5 1.4 1 1.7.6.4.8 1.6.5 2.6-.4 1.1 0 3 .8 4.3.8 1.2 1.7 3.3 1.9 4.6.1 1.3.9 2.5 1.6 2.8 1.4.4 1.2-1.1-1.1-9.6-1.1-4-4.7-8.9-4.7-6.4zM58.2 408c-1.1 1.8-1 2 .8 2 1.3 0 2-.7 2-2 0-1.1-.3-2-.8-2-.4 0-1.3.9-2 2zM137 407.3c-1.4.7-3.4 2.9-4.5 5-2 3.8-2 3.8-.1 5.3 3.4 2.5 4.9 1.8 4.2-2-.8-4.3 1.1-6 5.6-5.1 4.5 1 5.8 2.2 5.8 5.6 0 3.1 1.6 4.7 3.2 3.1.6-.6.5-2.4-.5-5.3-1.1-3.3-2.3-4.9-4.8-6.1-4-2.1-5.6-2.2-8.9-.5zM209.2 407.6c.1.9.9 1.9 1.6 2.2.9.3 1.3-.2 1-1.4-.1-.9-.9-1.9-1.6-2.2-.9-.3-1.3.2-1 1.4zM127.2 410.7c-.1 1.2-.7 2.5-1.3 2.9-.8.5-1 4.4-.6 13.2.6 11.8 1 14.2 2.2 13 .3-.3.4-7.4.2-15.9-.1-8.5-.4-14.4-.5-13.2zM581.4 413.8c-2.3 2.6-4.7 5.8-5.4 7.2-3 5.5-24 32.9-25.7 33.4-2.1.6-120.6 1.6-218.3 1.9-68.9.2-86-.4-86-2.9 0-.8-.4-1.4-1-1.4-.5 0-1 .4-1 1 0 .5-1.1 1.2-2.4 1.6-4 1-4.5 5.4-.8 6.9 2.5 1 15.8 1.4 44.2 1.3 80.5-.3 98.2-.2 98.6.4.2.3 2.3.4 4.6.1 2.9-.4 3.9-.3 3.4.5-.4.7-.1 1.2.8 1.2s1.6-.5 1.6-1.1c0-.6 1-.9 2.3-.7 1.2.2 2.1.9 1.9 1.6-.1.6.2 1.2.8 1.2.5 0 1-.6 1-1.4 0-2 2.3-2.6 9.6-2.6 5.4 0 7.4.5 11.3 2.7.2.2-.2.9-.9 1.8-1.5 1.8-1.3 1.8 8.5.1 4-.7 6.4-1.5 5.7-2-.6-.4-1.2-1.1-1.2-1.7 0-1.2 3.7-1.2 4.5.1.3.5.1 1-.4 1-.6 0-1.1.4-1.1 1 0 .5.9 1 2 1s2-.7 2-1.5c0-.9.9-1.5 2.1-1.5 1.8 0 1.9.3.9 1.5-1 1.2-.7 1.9 1.7 4.1 4.4 4 6.3 4.8 6.3 2.6 0-1-1-2.4-2.2-3-2.2-1.1-2.1-1.2.9-1 2.2.2 3.7-.4 5-1.9 1.6-2 3-2.3 14.5-2.7 10.8-.4 12.7-.2 13.2 1.1.6 1.3.9 1.4 2.9 0 1.9-1.3 2.6-1.3 4.2-.1s2.3 1.1 5.2-.7c2.4-1.5 3.7-1.8 4.6-1.1.8.7 1.8.7 2.7.2 2.3-1.5 10.3-1.1 12.4.5 1.7 1.3 2.2 1.3 3.7-.1 1.3-1.2 2.7-1.4 4.6-.9 1.5.4 4.2.7 5.8.8 1.7.1 3.5.5 4.2 1 .7.4 2.6-.1 4.5-1.3 2.9-1.8 3.5-1.8 5.5-.4 2.1 1.3 2.6 1.3 5.3-.1 4-2 6.7-2.1 5 0-.7.8-1.8 1.5-2.4 1.5-.8 0-1.1 1.1-.8 3 .3 2.3-.3 3.7-3.2 6.7-3.6 3.8-4.4 5.3-2.8 5.3 1.8 0 12.2-12.5 18-21.7 2.7-4.2 3.1-5.5 2.3-7.2-.7-1.3-.8-2.2-.1-2.6.5-.3 1 0 1 .7s1.2 0 2.6-1.6c1.6-1.8 2.4-3.6 2-4.8-.7-2.9.3-4.8 2.8-4.8 1.6 0 1.8-.2.7-.9-1.6-1.1-1.2-1.9 4-7.6 1.6-1.7 3.5-4.7 4.4-6.8.8-2 2-3.7 2.6-3.7.5 0 .9-.6.7-1.3-.1-.6.3-2.2 1-3.4 2.3-4.1-.4-3.2-4.4 1.5zM154.4 421.7c.5 11.4 1.7 15.8 3.1 11.3 1.3-4-.9-23-2.6-23-.5 0-.7 4.8-.5 11.7zM49 413.2c0 .7.5 2 1 2.8.8 1.2 1 .9 1-1.3 0-1.5-.4-2.7-1-2.7-.5 0-1 .6-1 1.2zM91.6 413.6c-.7 1.9.2 3.7 1.5 2.9 1.2-.8 1.2-4.5 0-4.5-.5 0-1.2.7-1.5 1.6zM265.5 415.6c-3.6 4.3-4.9 6.4-3.8 6.4 1-.1 7.7-8.9 7.1-9.5-.2-.2-1.7 1.2-3.3 3.1z"/><path d="M140.6 415.9c-.3.5.1 1.4 1 2.1 1.1 1 1.8 1 2.7.1.9-.9.9-1.4-.3-2.1-1.9-1.2-2.7-1.2-3.4-.1zM323.8 417.1c-2.3 1.7-2.8 2.9-2.8 6.1 0 4.4 1.2 5.9 6.8 8.4 5.3 2.4 3.8 5.4-2.8 5.4-1.9 0-3.3.7-4 2.1-1.7 3.1.2 4.6 7 5.4 5.1.6 6.2.4 8.8-1.5 7.4-5.5 5.8-11.7-3.8-15.4-.8-.3-2.5-1.3-3.7-2.2-2.2-1.6-2.3-1.5-2.3.5 0 1.1-.4 2.1-1 2.1-1.2 0-1.3-2-.2-3.6.4-.7 3-1.2 5.8-1.1 5.9 0 7.4-.7 7.4-3.3 0-5.1-9.8-7-15.2-2.9zm10.3 23.2c-1.3 1.3-2.6.3-1.6-1.2.3-.6 1.1-.8 1.7-.5.6.4.6 1-.1 1.7zM352.3 416.5c-1.9 1.3-2 2.4-2 12.2 0 10.9.8 15.3 2.7 15.3.6 0 .9-3.6.8-10-.1-5.8.2-10.4.8-11 .6-.6 3.8-1.1 7.3-1.2 7.2-.2 8.9-1.9 5.2-5-2.9-2.2-11.7-2.5-14.8-.3zM377.5 417c-.9 1.4.2 2.8 3.6 4.5 2.2 1.2 2.9 2.3 2.9 4.5 0 1.6.6 3.3 1.3 3.7 2 1.2 4 6.9 3.2 9.2-.7 2.4 1 6.1 2.8 6.1 1.7 0 7.7-6.2 7.7-8 0-.8.7-2.4 1.5-3.4.8-1.1 1.5-2.7 1.5-3.5 0-.8.9-3.3 2-5.6 2.6-5.3 1.8-7.5-2.5-7.5-3.7 0-5.8 2.2-9 9.8l-1.9 4.2-2.3-6.2c-1.2-3.5-3-6.8-3.9-7.5-2.1-1.5-6-1.7-6.9-.3zm24.5 6.9c0 1.1-1.1 3.3-2.5 4.9-1.4 1.7-2.5 3.5-2.5 4.1 0 .6-.4 1.1-1 1.1-1 0-.1-2.9 1.9-6.7.5-1 1.2-2.6 1.5-3.6.7-2.3 2.6-2.2 2.6.2zM490.8 418.3c-1.1 1.2-2.6 3.8-3.3 5.7-.7 1.9-2.3 6.1-3.5 9.2-2.6 7.1-2.4 11 .7 11.4 1.4.3 2.6-.3 3.3-1.5.5-1.1 1.9-2.3 3-2.6 1.8-.6 1.8-.8.5-2.1-2-2.1-2-4.8.1-4 .9.3 1.8.6 2 .6.2 0 .4.6.4 1.4 0 1.6 3.2 2.6 6 1.9 1.4-.4 2-1.4 2-3.5 0-2.8-.2-2.9-3.4-2.3l-3.4.7v-4.7c.1-3 .6-4.9 1.5-5.2 1.7-.7 2.4-.1 2.7 2.4.2 1 1.4 2.3 2.7 3 2.5 1.3 3.6 3.8 3.8 8.6.1 1.6-.3 2.6-.9 2.2-1.4-.9-1.2 1.9.2 3.3 1.6 1.6 5.7 1.5 6.4-.1.7-2-7.3-24-9.3-25.5-2.9-2.1-9.2-1.5-11.5 1.1zm.3 13c-.8.8-1.1.7-1.1-.4 0-2 1.3-3.4 1.8-1.9.3.7-.1 1.7-.7 2.3zM182.1 419.1c-1.3 1.4-1.9 2.9-1.5 3.9.4.8.9 4.1 1.2 7.3.3 4.6.9 6.1 3 7.7 2.9 2.4 5.2 2.6 5.2.5 0-.8-.9-1.5-2-1.5-1 0-2.4-.8-2.9-1.8-1.2-2.3-1.2-12.1 0-14.5 1.7-3.1-.5-4.3-3-1.6zM435.6 418.3c-1.6 1.2-1.8 2.9-1.8 12.7.1 6.2.5 11.7.9 12.1.5.5 4 1.1 7.8 1.5 5.6.5 7.3.3 8.3-.9 1.9-2.2.5-4.4-3.9-6.1L443 436v-7.9c0-10.1-2.5-13.4-7.4-9.8zm2.9 6.6c.3.5.1 1.2-.5 1.6-.5.3-1-.1-1-.9 0-1.8.6-2.1 1.5-.7zM458.9 419.1c-.7 1.4-1 6-.7 12.6.3 8.9.6 10.7 2.3 11.9 1.9 1.4 11.9 1.9 14.9.8 3.9-1.5-.1-7.4-5-7.4-2.6 0-3-1.3-3.3-10.5-.1-3.8-.7-7.5-1.3-8.2-1.7-2-5.6-1.5-6.9.8zM414.6 419.2c-1.3 4.2-1.5 7.3-.6 14.8.5 4.6 1.4 8.8 2 9.4.8.8 1.1.4.9-1.4-.1-1.4-.1-3.8-.1-5.3.3-4.2 2.6-2.8 3.2 1.8.3 2.1 1.1 4 1.8 4.3.9.3 1.2-1.9 1.1-9-.2-13.5-.7-15.2-4.7-15.6-2-.2-3.4.2-3.6 1zm4.4 7.4c0 1.4-.4 2.3-.9 2-.5-.3-.7-1.5-.4-2.6.7-2.8 1.3-2.5 1.3.6zM82.7 420.7c-.4.3-.7 1.8-.7 3.2 0 2 .2 2.3 1 1.1 1.5-2.4 2.5-.4 2.9 5.8.1.8 1.1 1.2 2.9 1 2.3-.3 2.7-.8 2.8-3.8.2-3.9-1.2-6.3-3.2-5.6-.7.3-1.8-.2-2.4-1-1.4-1.5-2.3-1.8-3.3-.7zM149.2 422.2c-1.6 1.6-1.5 3.5.3 4.2 1.1.4 1.5-.2 1.5-2.4 0-3.4-.1-3.5-1.8-1.8zM131.2 424.7c.2 2.2.8 2.8 2.8 2.8 2 0 2.6-.6 2.8-2.8.3-2.4 0-2.7-2.8-2.7s-3.1.3-2.8 2.7zM140.3 422.7c-2.1.8-1.5 3.1 1.2 4.9 1.4.9 2.5 2 2.5 2.5s-1.1 1.4-2.5 1.9-2.5 1.4-2.5 1.9c0 .9 5.8 3.6 6.5 3 .2-.2.1-3.2-.2-6.7-.6-6.3-2.1-8.5-5-7.5zM171.5 423.1c-1 2.8 0 28.8 1.2 30 .9.9 1-2.6.7-14.7-.5-15.5-.8-18.1-1.9-15.3zM187.7 423.4c-.7 1.7 1.7 8.1 3.2 9 1.6 1 2.1-.9 1.3-5.5-.8-4.5-3.4-6.5-4.5-3.5z"/><path d="M356.4 428.2c.8 3.9.7 3.8 5.1 4.8 4.8 1.1 6.5.4 6.5-2.6 0-2-.6-2.5-4-3-2.2-.4-4.3-1.1-4.6-1.5-.3-.5-1.2-.9-2.1-.9-1.2 0-1.4.7-.9 3.2zM256.2 427.6c-1.2.8-2.2 1.9-2.2 2.5 0 .5-1.8 2.8-4 5-2.2 2.3-4 4.6-4 5.3 0 .6-.7 2.3-1.4 3.8-.8 1.6-1.2 2.8-.8 2.8 1 0 4.2-3.8 4.2-5 0-.6.4-1 .8-1s1.5-1.3 2.5-2.9c1-1.6 3.3-4.6 5.2-6.5 4.8-5 4.6-7.5-.3-4zM80 429.4c0 1.4.5 2.8 1 3.1.6.3 1-.5 1-1.9s-.4-2.8-1-3.1c-.6-.3-1 .5-1 1.9zM131 432.4c0 2.3 1.6 3.6 4.6 3.6 2.2 0 1.7-2.7-.8-4.4-3.1-2.2-3.8-2-3.8.8zM148 433.4c0 .9.7 1.6 1.6 1.6 1.7 0 1.4-2.2-.4-2.8-.7-.2-1.2.3-1.2 1.2zM383 432.5c0 .5.5 1.7 1 2.5s1 1 1 .5c0-.6-.5-1.7-1-2.5s-1-1.1-1-.5zM357.3 437.2c-.7 1.2-.5 5.9.3 6.7.2.2 3.3.5 6.9.7l6.6.3-.3-3.2c-.3-2.9-.6-3.1-4.6-3.4-2.4-.1-5.1-.7-6.2-1.3-1.3-.7-2.1-.7-2.7.2zM86 439.6c0 1.2.6 1.5 2.3 1 1.2-.3 2.9-.6 3.7-.6 1.3 0 1.3-.1 0-1-2.4-1.6-6-1.2-6 .6zM130.2 442.2c.6 1.6 17.2 3.7 18.6 2.3.2-.2.2-1.1-.1-2-.8-2-19.1-2.3-18.5-.3zM64 443.4c0 .8.5 1.8 1 2.1.6.3 1-.1 1-.9s-.4-1.8-1-2.1c-.5-.3-1 .1-1 .9zM110.2 448c0 1.9.2 2.7.5 1.7.2-.9.2-2.5 0-3.5-.3-.9-.5-.1-.5 1.8zM135 464.9c0 6.8.1 7.1 3.8 10.5 3.5 3.4 3.7 3.4 4 1.4.3-1.4-.6-2.9-2.7-4.5-2.8-2.2-3.1-2.9-3.1-8.4 0-3.3-.4-5.9-1-5.9s-1 3-1 6.9zM140 462c0 2.8.5 4.3 1.6 4.7 2.5.9 3.7-1.2 3-5.1-.5-2.7-1.2-3.6-2.6-3.6-1.7 0-2 .7-2 4zM80.1 460.5c0 2.4 2.6 6.1 3.6 5.1.4-.4.2-1-.4-1.4-.7-.4-1.6-1.9-2.2-3.2-.8-2.1-1-2.2-1-.5zM148 464.4c0 1.4.5 2.8 1 3.1.6.3 1-.5 1-1.9s-.4-2.8-1-3.1c-.6-.3-1 .5-1 1.9zM354.3 465.5c-.3.9-.3 1.8-.1 2.1.9.9 3.8-.8 3.8-2.2 0-1.9-2.9-1.8-3.7.1zM373.8 464.7c-2.2.6-2.3 1.9-.3 2.7 2.1.8 4.5-.3 4.5-2 0-1.4-1-1.6-4.2-.7zM65 466c0 .5.5 1 1.1 1 .5 0 .7-.5.4-1-.3-.6-.8-1-1.1-1-.2 0-.4.4-.4 1zM84.5 466c-.7 1.2.2 3 1.6 3 .5 0 .9-.9.9-2 0-2.1-1.5-2.7-2.5-1zM110.3 471.5c0 2.7.2 3.8.4 2.2.2-1.5.2-3.7 0-5-.2-1.2-.4 0-.4 2.8zM401.6 475.1c1.2 2 2.7 5.3 3.4 7.5.7 2.1 1.7 4.5 2.3 5.1.6.9.6 1.3-.2 1.3s-1 1.6-.7 5.2c.9 9.3-2.1 17.1-11.7 30.3-12.4 17.1-12.4 17.1-20.7 19.8-9.3 3.1-14 4-14 2.6 0-.5 1.1-2.7 2.5-4.7s2.5-4.1 2.5-4.7c0-.6-.3-.6-.8.1-1.2 1.7-8.2 6.7-8.2 5.8 0-.4-.5-.3-1.1.3-1.5 1.5-.3 5.9 1.8 6.8 4.5 1.9 13.8 3.3 16 2.4 1.4-.5 3.6-.9 5.1-.9 2.6 0 9.7-4.8 11.5-7.8 1.7-2.6 6.5-7.1 7.1-6.5.3.4.6-.5.6-1.8 0-1.4.9-3.5 2-4.7 1.1-1.2 2-2.7 2-3.3 0-.7 1.1-2.7 2.5-4.5 1.4-1.8 2.5-3.6 2.5-3.9 0-.4 1.1-2 2.4-3.5 1.3-1.6 2.7-4.9 3.1-7.6 1-6.7 8.1-13.2 13.1-12 2.4.6 2.6 1 1.9 4.4-.4 2-1.4 4.4-2.3 5.3-1 .8-2.6 3.3-3.7 5.4-2.7 5.2-3 5.6-10.4 13.6-6.6 7-10.5 13.3-9.7 15.6.3.7.1 1.3-.4 1.3-.6 0-1 1.3-1 3 0 2.3.7 3.3 3.2 4.6 3.6 1.9 26.8 4.6 28.2 3.3.5-.4 2.9-.5 5.4-.2 3.5.5 4.3.3 3.7-.6-.5-.9.1-1.2 2.1-1 5.1.4 8.1-1.1 12.3-6.1 2.3-2.7 4.1-5.3 4.1-5.9 0-.5.6-1.4 1.4-1.8 1.8-1.1 3.8-5.1 3.1-6.3-1.3-2.1-3.9-.8-8.7 4.4-7.1 7.7-9.8 8.6-27.8 8.6-8.2 0-16.1.5-17.6 1-3.5 1.4-4.1.7-2-2.4 2.3-3.7 2-4.9-.9-3-1.4.9-2.8 1.5-3 1.2-.4-.3 1.3-2.6 9-12 .7-.9 1.9-2.6 2.5-3.8.6-1.2 1.8-2.9 2.6-3.8 3.9-4.6 6.3-7.5 10.4-13.1 2.5-3.3 5.1-6 5.8-6.1.7 0 2-1.6 2.8-3.7 1.9-4.3.8-7-3.6-9.6-3.9-2.3-6.7-2.1-11.9.8-2.3 1.4-4.5 2.5-4.8 2.5-.3 0-.2-3.6.2-7.9.6-7.3.5-8-1.3-9-2.2-1.1-3.4-.2-3.8 2.7-.4 2.5-1 2.3-6-2l-4.8-4.3 2 3.6zm8.4 7c0 1.4-1.7 1-2.3-.5-.4-1-.1-1.3.9-.9.7.3 1.4.9 1.4 1.4z"/><path d="M353 474.2c-.6.7-2.5 3.4-4.3 6-1.8 2.6-4.9 6.5-7 8.7-2 2.2-3.7 4.7-3.7 5.6 0 .8-.4 1.5-.9 1.5s-.8-4.8-.8-10.8c.2-10.4.1-10.7-2-11-1.9-.3-2.3.2-2.4 2.5-.4 7.2-.6 8.3-2.2 10.1-2.1 2.3-2.2 3.9-.2 2.2 1.3-1.1 1.5-.6 1.5 3.4 0 5.3 2.3 10.6 4.6 10.6.9 0 2.9-.9 4.4-2 1.6-1.1 3.5-1.8 4.3-1.5.8.4 2.6 4.2 4.1 8.6 2.9 8.6 9 18.5 11.9 19.5 2.2.7 1.6 3-.7 2.6-1.1-.2-1.6.4-1.6 2.3 0 1.4-.7 3.6-1.6 4.9-1 1.6-1.2 2.6-.5 3.1.6.3 1.1.3 1.1-.2 0-1.4 7.5-9.3 8.8-9.3.7 0 1.1.4.7.9-.3.5-.1 1.2.5 1.6 1 .6 1.4-.7 1.1-3.3-.1-.8.4-2 1.1-2.9 1-1.3.8-1.8-1.2-3.4-9-6.7-11-8.8-13.5-14.3-2.4-5.2-2.7-6.8-2.2-12.6.3-3.6 1.1-7.8 1.8-9.3 1.7-3.8.3-4.6-2.7-1.4-1.4 1.5-2.7 2.7-3 2.7-.7 0 2.3-5.5 3.8-7.2 2.6-2.6 4.9-6.9 4.3-7.8-.8-1.4-2.2-1.2-3.5.2zM453.9 478.1c1.5 2.4 1.8 4.4 1.5 8.8-.6 6.7-2.4 14.1-3.4 14.1-.4 0-.7 1.1-.7 2.3 0 2.1-6.4 12.1-10.6 16.9-.8.9-1.8 2.5-2.1 3.5-.6 1.8-.1 1.9 8.6 1.7 5.1-.1 9.9-.3 10.7-.3 2.2-.1.7-1.1-2.5-1.7-3.6-.7-3.8-.9-2.2-2.5.7-.8 1.4-3.1 1.4-5.2.1-2.2 1.1-5.1 2.3-6.8 1.2-1.6 2-3.3 1.7-3.8-.3-.4.2-1.8 1.1-3.1 2.2-3.2 2.8-8.9 1-10.4-1.9-1.5-2.9-7.3-1.7-9.6.8-1.5.4-2.3-2.1-4.4-4.1-3.5-5.3-3.3-3 .5zM539 481.9c0 1.2.5 2.1 1 2.1.6 0 1-.6 1-1.4 0-.8-.4-1.8-1-2.1-.5-.3-1 .3-1 1.4zM95.1 481.7c0 .5 1.3 1.8 3 3.1 2.5 2 2.8 2.1 2.2.5-.3-1-1-2.4-1.6-3.1-1-1.3-3.7-1.7-3.6-.5zM50.8 487.9c.3 3 .9 4.1 2.5 4.5 2.6.7 2.8.5 2-2.2-.3-1.2-1.2-2.2-1.9-2.2-.8 0-1.4-.9-1.4-2s-.3-2-.8-2c-.4 0-.6 1.8-.4 3.9zM134.7 486.7c-1.7 8.8-1.7 14.1-.2 18.1 1.8 4.4 2.7 5.1 6.5 4.7 1.4-.1 3.8-.3 5.3-.4 4.8-.2 2.1-1.7-3.5-2-2.9-.1-5.5-.5-5.8-.7-.3-.3-.5-5.2-.5-10.9 0-10.3-.8-14.2-1.8-8.8zM375.3 488c-6.1 2.7-8.9 9.1-6.3 14.1 2.4 4.3 10.8 6.3 14.6 3.4 1-.8 2.6-1.5 3.5-1.5 3.1 0 3.9-6.2 1.5-10.8-3.2-6.2-7.4-7.9-13.3-5.2zm5.7 13.8c-.1 1.3-2.7 4.2-3.9 4.2-1.4 0-3.2-4.5-2.5-6.4.5-1.2 1-1.2 3.5.1 1.6.8 2.9 1.8 2.9 2.1zM534.4 487.5c-.4 1.1-1.2 2.3-1.8 2.7-.8.5-.8 1 0 1.8 1.5 1.5 4.6-3.1 3.4-5.1-.7-1.1-1-.9-1.6.6zM215.5 488.1c-1 1.6.4 5.9 1.9 5.9s3-4.5 2.1-6c-.8-1.3-3.2-1.3-4 .1zM180.6 488.9c-1.2 1.9.9 15.1 2.3 15.1 1.2 0 .6-13.9-.6-15.1-.8-.8-1.3-.7-1.7 0zM187.6 489.5c-2 2-2 2.8 0 6.6 2 4 3.8 3.2 4.2-1.8.4-4.9-1.7-7.3-4.2-4.8z"/><path d="M139.5 491.1c-.4 1.2-.4 4.1 0 6.6.5 3.4 1 4.3 2.2 3.9.8-.3 2.6-.6 3.9-.6 2.2 0 2.4-.4 2.4-4.4 0-5-1.9-7.6-5.5-7.6-1.5 0-2.6.7-3 2.1zM568.3 492.5c0 2.2.2 3 .4 1.7.2-1.2.2-3 0-4-.3-.9-.5.1-.4 2.3zM109.8 493.2c-.3.7-.1 2.4.3 3.8.6 2.2.7 2 .8-1.3.1-3.8-.3-4.7-1.1-2.5zM152 496.9c0 2.8.5 5.3 1 5.6.6.4 1-1.5 1-4.9 0-3.1-.4-5.6-1-5.6-.5 0-1 2.2-1 4.9zM523.7 499c-6.6 6.9-7.5 8-5.9 8 1.3 0 14.2-12.7 14.2-13.9 0-2.1-1.6-1-8.3 5.9zM63 495c0 .6 2 3.2 4.4 5.8 2.5 2.7 5 6 5.5 7.5.6 1.5 3.1 4.1 5.6 5.9 2.5 1.8 4.5 3.5 4.5 3.9 0 1.2 9.2 10.4 12.5 12.4l3 1.9-2-2.4c-1.1-1.4-5.2-5.9-9.2-10-8.9-9.3-11.2-11.9-17.1-19.7-4.3-5.8-7.2-7.8-7.2-5.3zM58 498c0 .5.5 1 1 1 .6 0 1-.5 1-1 0-.6-.4-1-1-1-.5 0-1 .4-1 1zM204.7 498.7c-1 1-.8 10.1.2 10.7 1.2.8 2.1-1.8 2.1-5.7 0-3.5-1.2-6.1-2.3-5zM210 500.5c0 .8.5 1.5 1 1.5.6 0 1-.7 1-1.5s-.4-1.5-1-1.5c-.5 0-1 .7-1 1.5zM210.5 509c-.3.5-.1 1 .4 1 .6 0 1.1-.5 1.1-1 0-.6-.2-1-.4-1-.3 0-.8.4-1.1 1zM206.2 514.5c0 1.6.2 2.2.5 1.2.2-.9.2-2.3 0-3-.3-.6-.5.1-.5 1.8zM506.7 514.6c-.4.4-.7 1.7-.7 2.8 0 1.9.1 1.9 1.7.3 1.2-1.1 1.4-2 .7-2.7-.6-.6-1.3-.7-1.7-.4zM111.7 522.8c-.3.4.3 1.3 1.4 2 1 .7 1.9.8 1.9.3 0-1.3-2.8-3.3-3.3-2.3zM538.3 532.6c-3.2 3.1-6.9 6.6-8.3 7.8-4.1 3.4-4.7 5.2-.9 2.6 3.6-2.5 15.9-14.4 15.9-15.4 0-1.2-.9-.5-6.7 5zM485.8 533.7c.7.3 1.6.2 1.9-.1.4-.3-.2-.6-1.3-.5-1.1 0-1.4.3-.6.6zM477 538.5c-.7.8-1.8 1.5-2.5 1.5s-1.6.7-1.9 1.6c-.4 1.1-1.3 1.4-3.1 1-1.7-.4-2.5-.2-2.5.6 0 .7-1.2 2.3-2.7 3.6l-2.8 2.4 2.5-.4c1.3-.1 3-1.3 3.6-2.5.6-1.3 1.3-2 1.7-1.7.6.6 5.3-2.2 8-4.9 1-1 1.7-2.1 1.4-2.3-.2-.2-1 .2-1.7 1.1zM138.6 541.2c2.6 4.5 3.7 5.7 4.7 5.1.6-.4.5-1-.5-1.7-.8-.6-1.7-1.9-2.1-2.9-.3-.9-1.1-1.7-1.7-1.7-.6 0-.8.6-.4 1.2zM115.8 548c1.2 1.1 2.5 2 3.1 2 .5 0 1.1.4 1.3.8.3 1 10.4 8.2 11.3 8.2.9 0 15.2 9.8 18.7 12.8 4.2 3.6 12.8 8.6 12.8 7.4 0-2.2-27.6-22.2-30.6-22.2-.8 0-1.4-.4-1.4-.8 0-.5-2.4-2.1-5.2-3.7-2.9-1.5-6.5-3.6-8-4.7-3.5-2.4-4.7-2.3-2 .2zM158.5 549.9c-.3.6 0 2.1.6 3.3.7 1.3 1.2 2.4 1.1 2.5-.9 1.3.2 3.3 1.8 3.3 2.3 0 2.6-1 .8-2.8-.9-.9-.9-1.2 0-1.2.7 0 1.2.4 1.2.9s.9 1.1 2.1 1.4c1.1.3 2.3 1.5 2.6 2.6.3 1.2 1.3 2.1 2.3 2.1 1 0 2.3.7 3 1.5.7.8 1.7 1.5 2.2 1.5.6 0 2.7 1.3 4.8 3 2.1 1.6 4.3 3 4.8 3 .6 0 1.5.6 1.9 1.4.4.8 1.7 1.5 2.7 1.7 1.2.3 2.3 1.6 2.8 3.7 1 3.6 2.2 3.9 8 1.8 3.6-1.3 3.8-1.2 6.9 2 2.9 3 5.8 4.7 4.5 2.6-.2-.4.1-1.5.8-2.5 1.1-1.4 1.8-1.5 4.5-.6 2.4.8 3.8 2.4 5.4 5.8 1.7 3.6 2.8 4.7 5 4.9 1.5.2 2.7.8 2.7 1.3s.7.9 1.6.9c1.4 0 1.4-.3.4-1.5-1-1.3-.9-1.5 1.1-1.6 1.3-.1 3.2-.1 4.2 0 .9.1 1.7-.4 1.7-1.1 0-.7.9-.2 2 1.2s1.8 3.1 1.5 3.7c-.2.7.4 1.7 1.5 2.3 2.3 1.2 4.3 1.3 3.6.1-.3-.5.3-1.1 1.4-1.4 1.5-.4 2 0 2 1.4 0 2.1 1.8 2.6 2.5.6.7-1.6 19.9-1.5 23.9.2 2.7 1.1 2.8 1.3 1.3 2.8-1.5 1.6-1.4 1.8 2.1 3 4.2 1.4 20.2 1.8 20.2.4 0-.5-.5-1.1-1.2-1.3-2.4-.8.5-2.8 4.2-2.8 4.8 0 6.1 1.5 2 2.4-1.8.3-3 1.2-3 2.1 0 1.2 1.3 1.5 6 1.5 5.8 0 8-1.2 4-2.3-1.1-.3-2-1.1-2-1.7 0-1.8 8-.4 9.5 1.6 1.1 1.6 5.3 2 15.8 1.6 5.5-.2 5.8-.3 5.2-2.4-.6-1.6-.4-2 .8-1.5.8.3 2.3-.3 3.3-1.4 1.9-2.1 5.4-2.6 5.4-.6 0 1.9-3.8 4.9-4.3 3.4-.2-.7-.8-.9-1.2-.4-3.5 3.2 16.5 2.4 25.8-1.1 3.6-1.4 4.4-2.1 3.5-3-.7-.7-2.3-1.3-3.7-1.3-2.1-.1-1.9-.3.9-.8 3.7-.7 6 .2 6 2.6 0 1.1 1 1.3 4.8.7 5.7-.8 5.8-.9 3.8-2.9-2.1-2.1-1.2-3.5 2.3-3.5 1.8 0 3.4.8 4.2 2.1 1.4 2 1.4 2 7.4-1.1 6.2-3.3 8-5.2 7.1-7.5-.2-.7.2-1.6 1-1.9 2.5-1 3.4-.7 3.4.9 0 .8-.6 1.5-1.2 1.5-.7 0-1.8 1.1-2.5 2.5-1 2.3-.9 2.5 1.2 2.5 1.3 0 2.7-.5 3-1 .3-.6 1.4-1 2.5-1 1 0 2-.7 2.4-1.5.3-.8 1.3-1.5 2.3-1.5 2.8 0 9.3-2.5 11.5-4.4 1.1-1 2.7-1.4 3.9-1.1 1.2.4 2.1.1 2.5-.9.3-.9 1.5-1.6 2.5-1.6 2.7 0 12.4-4.5 14.7-6.8 1.1-1.1 3.4-2.3 5.1-2.7 1.7-.3 3.4-1.1 3.7-1.6.7-1.1 5.5-3.3 6.7-3.1 1.2.3.8-.8-1.3-3-1.9-2.1-1.9-2.1.5-4 4.3-3.4 2.7-4-2.7-1.1-2.9 1.5-5.5 3-5.8 3.4-.3.3-1.4.9-2.5 1.3-1.4.6-1.6 1-.7 1.3.8.3 1.9 0 2.5-.6 1.3-1.3 3.7-1.5 3.7-.3 0 .9-2.1 2-7.7 4.4-1.8.7-3.3 1.6-3.3 2 0 .5-.7.8-1.5.8-1.7 0-2 1.6-.5 2.5.6.4.8 1.1.5 1.6-.4.5-1.5.3-2.8-.6-1.9-1.3-2.3-1.3-3.8.1-1 .9-2.3 1.3-3 .9-1.3-.9 2.4-3.4 5.1-3.5.8 0 2.6-1.2 3.9-2.5 1.3-1.4 2.9-2.5 3.7-2.5.8 0 1.4-.5 1.4-1 0-1.2-1.3-1.3-2.6-.2-.5.5-2.9 1.7-5.3 2.6-2.5 1-5.6 2.5-7 3.5-1.4.9-4.4 2.3-6.6 3-2.2.8-5.8 2.2-7.9 3.2-2.2 1.1-4.8 1.9-5.8 1.9s-1.8.4-1.8.9-1.5 1.1-3.2 1.4c-1.8.2-5.9 1.4-9 2.6-7.5 2.8-23.9 7.1-30.8 8.2-3 .4-7.1 1.1-9 1.4-29.7 5.3-64.6 5.5-96.5.5-3.3-.5-8.7-1.3-12-1.9-3.3-.5-8-1.6-10.5-2.5-2.5-.9-5.3-1.6-6.3-1.6-.9 0-2.5-.4-3.5-.9-.9-.5-4.2-1.7-7.2-2.6-3-.9-6.4-1.9-7.5-2.4-7.2-3-9.6-3.3-11.5-1.6-1.9 1.7-3.4.7-2.5-1.8.4-1-2.2-2.7-9.9-6.1-9.3-4.1-25.5-12.5-28.1-14.6-.5-.4-2.7-1.7-4.8-2.9-2.1-1.2-4.9-2.8-6.2-3.7-1.5-1-2.5-1.1-3-.5zm275.8 26.8c-1.2.2-2.7 1.1-3.3 1.9-1.4 1.6-3 1.9-3 .4 0-.6.7-1 1.5-1s1.5-.5 1.5-1c0-.6 1.2-.9 2.8-.9 2.2.1 2.3.2.5.6zm-10.3 4.1c0 1.1-4.6 3.2-6.8 3.1-1.3 0-1.2-.3.6-1.1 1.2-.6 2.2-1.5 2.2-2 0-.4.9-.8 2-.8s2 .4 2 .8zM260 594c0 .5-1.1 1-2.5 1s-2.5-.5-2.5-1c0-.6 1.1-1 2.5-1s2.5.4 2.5 1zm124.5 1c.3.5.1 1-.4 1-.6 0-1.1-.5-1.1-1 0-.6.2-1 .4-1 .3 0 .8.4 1.1 1zm-92 4.1c1.7 0 3.7.4 4.5.9 1.3.8 1.2 1.1-.5 2.4-2.5 1.9-3.1 1.9-4.7.2-.8-.9-2.6-1.2-5-.8-2.9.3-3.8.1-3.8-1 0-2.3 1.3-3 4-2.3 1.4.4 3.9.6 5.5.6zm67.3 1.4c-1.3 2.9-2.3 3.2-3.2.9-1-2.7-.7-3.4 1.9-3.4 2.3 0 2.4.2 1.3 2.5zm-19.6 1c.2.6-2.8 1.1-6.9 1.3-5.5.2-7.3 0-7.3-1 0-1.6 13.8-1.9 14.2-.3z"/><path d="M456 550.5c-.9 1.1-1.7 1.2-2.3.6-.6-.6-2.1.2-4.3 2.4-1.8 1.9-4.6 3.7-6.1 4.1-1.5.4-3.5 1.2-4.3 1.9-.8.6-2.4 1.6-3.5 2-1.8.7-1.8.9-.3 1.2 1 .3 3.2-.3 5-1.1 1.7-.9 3.7-1.6 4.4-1.6.7 0 1.4-.3 1.6-.8.2-.4 3.4-2.4 7.3-4.4 3.8-2 7.1-4.2 7.3-4.7.6-1.7-3.4-1.3-4.8.4zM504.1 561c-5.5 3.7-7.2 5.2-6.8 5.7.6.5 4.8-1.8 8.7-4.9 4.8-3.8 3.4-4.3-1.9-.8zM161 560.6c0 1.6 10.7 8 11.7 7 .8-.8-.7-2.6-2.3-2.6-.8 0-1.4-.4-1.4-.8 0-.9-5.4-4.2-6.9-4.2-.6 0-1.1.3-1.1.6zM420 568c0 .5-.8 1-1.7 1-2.2 0-5 1.7-4.2 2.5.7.6 9.9-3.1 9.9-4 0-.3-.9-.5-2-.5s-2 .4-2 1zM178 570.4c0 .9.7 1.6 1.6 1.6.9 0 1.4-.5 1.2-1.2-.6-1.8-2.8-2.1-2.8-.4zM200 583c0 .5 1.1 1 2.5 1s2.5-.5 2.5-1c0-.6-1.1-1-2.5-1s-2.5.4-2.5 1zM216 586.8c0 1 4.5 3.2 6.3 3.2 1.7-.1-3.2-4-4.9-4-.8 0-1.4.4-1.4.8zM200.5 598c.3.5 1.3 1 2.1 1s1.2-.5.9-1c-.3-.6-1.3-1-2.1-1s-1.2.4-.9 1zM261.5 599c-1.9.7-1.8.8.7 1.8 3.7 1.5 15.7 2.6 13.9 1.4-.8-.6-2-.8-2.7-.5-.7.2-1.7-.5-2.4-1.6-1.1-2.2-5.6-2.7-9.5-1.1zM427 602c-.9.6-1 1-.3 1 .6 0 1.5-.5 1.8-1 .8-1.2.4-1.2-1.5 0zM422 604c-2.3.7-2.3.8-.3.9 1.2.1 2.5-.4 2.8-.9.3-.6.5-1 .3-.9-.2.1-1.4.5-2.8.9zM414.5 605.7c-1.1.3-2.4.9-2.9 1.4-.6.5-2.2.9-3.7.9s-3.1.5-3.5 1.1c-.5.8.2 1 2.2.6 4.5-.9 10.4-3.1 10.4-3.9 0-.5-.1-.7-.2-.7-.2.1-1.2.3-2.3.6zM240.2 610.5c1 1.1 6.8 2.3 6.8 1.5 0-.4-.7-1.1-1.6-1.4-1.9-.7-5.9-.8-5.2-.1zM368.2 615.4l-4.4 2.3 3.3.7c3.3.6 12.9-2 12.9-3.5 0-.8-3.7-1.9-6-1.8-.8 0-3.5 1.1-5.8 2.3z"/></svg>
