<svg xmlns="http://www.w3.org/2000/svg" width="36" height="36" fill="none"><path fill="#fff" fill-rule="evenodd" d="M18 36c9.941 0 18-8.059 18-18S27.941 0 18 0 0 8.059 0 18s8.059 18 18 18Zm-.461-19.958 4.559-4.56a1.385 1.385 0 1 1 1.958 1.959L19.496 18l4.56 4.56a1.385 1.385 0 1 1-1.958 1.958l-4.56-4.56-4.559 4.56a1.385 1.385 0 0 1-1.958-1.959l4.56-4.56-4.56-4.558a1.385 1.385 0 0 1 1.958-1.959l4.56 4.56ZM2.769 18c0 8.412 6.82 15.23 15.23 15.23 8.413 0 15.232-6.818 15.232-15.23S26.41 2.77 18 2.77C9.588 2.77 2.77 9.587 2.77 18Z" clip-rule="evenodd"/></svg>
