<svg xmlns="http://www.w3.org/2000/svg" width="36" height="36" fill="none"><path fill="#fff" fill-rule="evenodd" d="M6.439 26.528a1.505 1.505 0 0 1-.434-1.197l.569-6.255a2.964 2.964 0 0 1 .855-1.82L20.923 3.76c1.053-1.057 2.962-1.005 4.074.104l4.107 4.107.001.001c1.148 1.15 1.194 2.976.102 4.071L15.712 25.54a2.962 2.962 0 0 1-1.821.853l-6.255.569a1.505 1.505 0 0 1-1.197-.434Zm17.589-13.543-4.043-4.043 2.922-2.923 4.041 4.04-2.92 2.926ZM13.619 23.404l-4.465.406.396-4.434 8.425-8.425 4.044 4.045-8.4 8.408Zm14.88 9.562c.825 0 1.5-.675 1.5-1.5 0-.823-.675-1.5-1.5-1.5h-21c-.823 0-1.5.677-1.5 1.5 0 .825.677 1.5 1.5 1.5h21Z" clip-rule="evenodd"/></svg>
