<svg xmlns="http://www.w3.org/2000/svg" width="62" height="48" fill="none"  viewBox="0 0 62 48"><path fill="#000" d="m30.045 12.453-19.756 16.27v17.563A1.714 1.714 0 0 0 12.003 48l12.008-.031a1.714 1.714 0 0 0 1.706-1.715V36a1.715 1.715 0 0 1 1.714-1.715h6.858A1.714 1.714 0 0 1 36.004 36v10.248a1.715 1.715 0 0 0 1.714 1.72L49.721 48a1.715 1.715 0 0 0 1.715-1.715V28.712l-19.752-16.26a1.306 1.306 0 0 0-1.64 0ZM61.25 23.511l-8.958-7.384V1.286A1.286 1.286 0 0 0 51.007 0h-6a1.286 1.286 0 0 0-1.286 1.286v7.78l-9.594-7.893a5.143 5.143 0 0 0-6.536 0L.467 23.512a1.285 1.285 0 0 0-.172 1.81l2.733 3.323a1.285 1.285 0 0 0 1.812.174L30.045 8.06a1.306 1.306 0 0 1 1.64 0L56.89 28.82a1.286 1.286 0 0 0 1.811-.171l2.733-3.322a1.287 1.287 0 0 0-.183-1.814Z"/></svg>
