<svg xmlns="http://www.w3.org/2000/svg" width="60" height="48" fill="none" viewBox="0 0 60 48" ><path fill="#000" d="m59.416 42.947-22.894-17.7c4.144-2.306 6.975-6.675 6.975-11.747 0-7.453-6.047-13.5-13.5-13.5-6.29 0-11.531 4.322-13.031 10.144L4.263.319a1.506 1.506 0 0 0-2.11.262L.316 2.944a1.493 1.493 0 0 0 .262 2.1l55.163 42.628a1.506 1.506 0 0 0 2.11-.263l1.837-2.371c.506-.638.384-1.585-.272-2.091ZM18.597 30c-6.956 0-12.6 5.644-12.6 12.6v.9c0 2.484 2.016 4.5 4.5 4.5h35.831L23.041 30h-4.444Z"/></svg>
